<svg width="247" height="240" viewBox="0 0 247 240" fill="none" xmlns="http://www.w3.org/2000/svg">
<path d="M123.252 0C55.1877 0 0 55.1816 0 123.258C0 177.317 34.8043 223.247 83.224 239.871C90.2789 240.866 97.6266 235.922 102.631 231.51C103.388 230.851 104.114 230.149 104.81 229.411C111.736 222.148 115.624 211.725 117.729 202.076C119.908 192.123 120.048 181.382 116.374 171.757C112.56 161.755 103.742 154.12 93.965 150.135C90.3033 148.646 86.4402 147.657 82.51 147.194C80.5449 146.962 78.5615 146.858 76.5903 146.889C75.5772 146.901 74.558 146.962 73.5389 147.041C72.6906 147.114 71.6897 147.511 70.8658 147.236C71.1527 145.656 73.728 144.862 75.0585 144.533C79.2328 143.514 83.6268 143.807 87.8499 144.612C96.1986 146.205 103.943 149.855 110.735 154.92C111.956 155.835 113.177 156.787 114.568 157.416C122.764 161.139 118.681 146.022 117.973 142.501C116.558 135.409 113.781 128.141 109.96 122.068C102.515 110.247 94.7461 103.839 103.919 110.357C105.981 111.828 116.173 125.388 117.577 124.473C119.939 117.973 121.428 111.254 122.636 104.456C122.721 103.986 123.124 103.632 123.6 103.632C124.027 103.632 124.363 103.992 124.333 104.419C123.814 112.078 120.5 126.908 121.171 130.472C122.99 140.066 131.967 132.376 132.394 130.472C132.663 129.27 129.715 109.216 129.184 106.036C129.142 105.768 129.172 105.463 129.19 105.158C129.221 104.749 129.563 104.431 129.959 104.431C130.435 104.431 130.869 104.724 131.021 105.176C131.332 106.049 135.006 126.725 136.001 126.865C141.384 127.652 151.154 107.44 152.894 104.163C153.84 102.387 156.36 96.5159 157.501 94.8621C158.6 93.257 160.357 90.7427 161.621 89.2658C163.207 87.4044 163.677 86.9589 165.746 84.6643C165.404 88.033 163.262 89.5038 160.296 94.7034C158.728 97.4558 157.3 101.264 155.872 104.346C152.424 111.81 148.384 119.005 143.801 125.828C138.821 133.249 132.596 140.438 131.595 149.708C131.32 152.283 129.856 159.411 134.842 158.575C135.678 158.429 136.465 158.057 137.179 157.587C144.673 152.625 152.753 148.579 161.273 147.072C166.418 146.168 171.739 146.187 177.171 147.481C177.634 147.59 177.866 148.109 177.659 148.53L177.543 148.744C177.39 149.055 177.055 149.214 176.719 149.147C175.663 148.902 173.436 148.548 173.24 148.53C169.585 148.225 166.54 148.683 163.22 149.482C159.949 150.269 156.751 151.337 153.675 152.674C145.967 156.024 139.339 161.267 135.598 168.938C129.63 181.162 131.583 218.45 150.416 233.439C156.238 238.065 159.564 239.962 164.495 239.432C212.286 222.466 246.505 176.847 246.505 123.246C246.517 55.1816 191.335 0 123.252 0ZM25.7172 127.079C24.3197 125.15 22.8733 123.271 21.2378 121.537C20.7373 121.007 17.4296 118.022 17.9911 117.241C18.8455 116.051 21.9884 116.814 24.4173 117.589C25.6257 117.98 26.6571 118.37 27.1453 118.529C31.4112 119.914 35.6648 121.367 39.888 122.886C42.1094 123.68 44.343 124.503 46.4241 125.626C50.8852 128.043 54.4371 131.729 58.1842 135.092C60.8206 137.454 66.5328 141.903 64.4396 146.083C62.2181 150.538 53.7169 148.237 50.1773 147.255C44.3186 145.631 38.7834 142.665 34.4504 138.363C31.0633 134.994 28.5001 130.942 25.7172 127.091V127.079ZM96.5526 160.736C98.1088 162.262 99.726 164.349 99.6589 166.643C99.6589 166.778 96.1986 168.901 95.8263 169.207C94.6912 170.122 93.4767 170.86 92.2318 171.635C89.5648 173.295 86.6538 174.534 83.6329 175.401C77.5179 177.146 71.0123 177.372 64.7325 176.524C58.7456 175.724 52.9175 174.022 47.248 171.971C43.5069 170.622 39.0458 169.426 35.732 167.193C35.5 167.04 35.262 166.863 35.1339 166.613C34.6945 165.783 35.8296 165.264 36.4155 165.026C42.7197 162.451 48.9262 160.479 54.8154 156.909C66.4596 149.854 86.5195 150.874 96.5587 160.736H96.5526ZM84.7192 136.392C82.3452 137.246 79.8187 137.649 77.2921 137.624C76.1326 137.618 74.973 137.515 73.8257 137.325C70.7865 136.825 67.1919 135.934 64.4701 134.463C59.4658 131.766 54.9131 128.275 50.0675 125.333C45.3866 122.502 40.1748 120.653 34.8715 119.371C33.1688 118.962 31.4417 118.663 29.7268 118.303C28.8114 118.12 27.8715 117.949 26.9866 117.662C26.1383 117.394 26.1261 116.545 26.9317 116.417C27.7983 116.283 28.671 116.149 29.5437 116.021C31.3074 115.764 33.0711 115.532 34.8409 115.331C38.3623 114.94 41.9019 114.684 45.4476 114.611C48.9873 114.538 52.533 114.653 56.0543 115.001C56.5975 115.056 57.1467 115.123 57.6899 115.184C66.246 116.234 74.6923 118.907 81.6922 124.04C84.1577 125.846 88.5945 128.885 88.6189 132.419C88.6311 134.579 86.4951 135.745 84.7192 136.386V136.392ZM56.4815 102.24C52.6123 97.5229 50.0003 91.8839 48.4014 86.0191C47.5714 82.9616 44.166 71.1099 48.4258 71.1527C49.1886 71.1588 50.2017 71.5493 51.5199 72.4404C55.6881 75.2598 59.8014 77.7437 64.3785 79.8431C70.3532 82.5832 76.5292 84.9877 82.0584 88.5884C86.605 91.5544 87.5875 95.5456 89.0766 100.519C90.8037 106.287 92.3233 112.121 94.1053 117.87C80.0689 117.992 65.3977 113.097 56.4876 102.246L56.4815 102.24ZM116.551 93.196C114.739 101.331 99.5918 95.0513 94.917 91.9938C82.9189 84.1516 78.891 59.8747 82.095 46.3203C85.8055 47.1259 94.9475 53.6681 98.5238 56.7378C108.398 65.2207 119.707 79.068 116.551 93.196ZM127.036 80.2397C126.047 84.2188 127.164 88.1307 128.116 91.9816C128.489 93.5317 128.952 95.0757 129.16 96.6563C129.178 96.7601 129.184 96.8638 129.184 96.9859C129.19 96.992 129.19 97.0042 129.184 97.0103C129.19 97.1323 129.19 97.2666 129.184 97.3947V97.413C129.093 97.8952 128.666 98.2491 128.159 98.2491C127.75 98.2491 127.39 98.0172 127.219 97.6633C127.189 97.5534 127.158 97.4375 127.128 97.3276C124.546 88.3748 123.173 78.9826 118.669 70.8597C115.654 65.416 111.285 60.6619 109.332 54.7666C107.3 48.6333 108.13 41.8287 110.443 35.7991C112.298 30.9901 115.038 26.596 117.986 22.3851C118.98 20.957 127.384 11.8272 127.384 11.0888C128.055 12.5535 128.8 13.9937 129.575 15.4035C133.456 22.4889 138.223 29.0067 140.578 37.0868C143.55 47.248 142.739 57.9279 136.184 66.5084C132.864 70.8597 128.409 74.7411 127.042 80.2459L127.036 80.2397ZM139.193 95.6799C132.376 95.8935 133.676 88.21 134.677 83.4071C135.678 78.5981 138.113 74.2529 141.127 70.4203C147.816 61.9008 157.062 56.3106 164.709 48.8103C166.027 47.5165 167.315 46.0884 167.797 44.3064C168.383 42.1643 169.048 41.4686 169.683 41.6212C173.918 42.622 172.85 56.274 172.618 59.2156C172.081 66.0751 170.14 72.8614 166.57 78.7629C160.772 88.326 150.379 95.3259 139.199 95.686L139.193 95.6799ZM161.01 121.287C158.52 120.952 156.555 118.486 156.641 115.972C156.72 113.585 158.27 111.62 159.204 109.515C160.254 107.153 160.248 104.547 161.493 102.21C163.14 99.1218 165.295 96.2352 167.717 93.727C172.282 89.0156 177.848 85.2563 183.719 82.4123C189.816 79.4586 196.23 77.1456 202.027 73.5877C203.26 72.8309 204.664 71.7629 206.147 71.6043C206.19 71.6043 204.395 84.0906 204.121 85.2318C203.01 89.8822 201.387 94.4349 199.013 98.6031C196.773 102.533 193.825 106.097 190.267 108.911C188.711 110.144 187.088 111.102 185.409 111.913C182.944 113.103 180.356 113.964 177.653 114.904C173.485 116.344 169.591 118.053 165.716 120.122C164.269 120.897 162.646 121.507 161.017 121.281L161.01 121.287ZM211.645 171.721C211.316 172.288 210.645 172.557 210.028 172.777C202.735 175.358 195.174 177.171 187.503 178.178C180.826 179.05 173.9 179.288 167.498 177.213C160.626 174.986 148.341 165.581 155.292 157.544C159.747 152.399 169.701 152.369 175.804 153.602L175.883 153.614C184.628 155.402 192.257 160.382 200.087 164.385C201.686 165.203 213.006 169.402 211.652 171.709L211.645 171.721ZM219.585 125.455C213.696 131.522 207.3 139.492 199.184 142.537C194.539 144.283 189.37 144.252 184.525 143.16C180.741 142.305 177.128 140.835 173.643 139.132C172.783 138.711 163.757 135.537 163.818 136.068C163.812 135.983 163.171 136.648 163.012 134.463V132.059C163.012 126.853 168.584 123.106 172.606 120.836C177.555 118.041 183.139 116.46 188.754 115.74C198.469 114.501 208.6 115.398 218.267 116.722C220.739 117.064 224.028 117.162 226.274 118.419C225.365 118.205 220.287 124.723 219.573 125.455H219.585Z" fill="#33346D"/>
<path d="M127.036 80.2397C126.047 84.2188 127.164 88.1307 128.116 91.9816C128.489 93.5317 128.952 95.0757 129.16 96.6563C129.178 96.7601 129.184 96.8638 129.184 96.9859C129.19 96.992 129.19 97.0042 129.184 97.0103C129.19 97.1323 129.19 97.2666 129.184 97.3947V97.413C129.093 97.8952 128.666 98.2491 128.159 98.2491C127.75 98.2491 127.39 98.0172 127.219 97.6633C127.189 97.5534 127.158 97.4375 127.128 97.3276C124.546 88.3748 123.173 78.9826 118.669 70.8597C115.654 65.416 111.285 60.6619 109.332 54.7666C107.3 48.6333 108.13 41.8287 110.443 35.7991C112.298 30.9901 115.038 26.596 117.986 22.3851C118.98 20.957 127.384 11.8272 127.384 11.0888C128.055 12.5535 128.8 13.9937 129.575 15.4035C133.456 22.4889 138.223 29.0067 140.578 37.0868C143.55 47.248 142.739 57.9279 136.184 66.5084C132.864 70.8597 128.409 74.7411 127.042 80.2459L127.036 80.2397Z" fill="#8DC757"/>
<path d="M226.286 118.419C225.377 118.205 220.299 124.723 219.585 125.455C213.696 131.522 207.3 139.492 199.184 142.537C194.539 144.283 189.37 144.252 184.525 143.16C180.741 142.305 177.128 140.835 173.643 139.132C172.783 138.711 163.757 135.537 163.818 136.068C163.812 135.983 163.171 136.648 163.012 134.463V132.059C163.012 126.853 168.584 123.106 172.606 120.836C177.555 118.041 183.139 116.46 188.754 115.74C198.469 114.501 208.6 115.398 218.267 116.722C220.739 117.064 224.028 117.162 226.274 118.419H226.286Z" fill="#8DC757"/>
<path d="M206.147 71.6043C206.19 71.6043 204.395 84.0906 204.121 85.2318C203.01 89.8822 201.387 94.4349 199.013 98.6031C196.773 102.533 193.825 106.097 190.267 108.911C188.711 110.144 187.088 111.102 185.409 111.913C182.944 113.103 180.356 113.964 177.653 114.904C173.485 116.344 169.591 118.053 165.716 120.122C164.269 120.897 162.646 121.507 161.017 121.281C158.527 120.945 156.561 118.48 156.647 115.966C156.726 113.579 158.276 111.614 159.21 109.509C160.26 107.147 160.254 104.541 161.499 102.204C163.146 99.1157 165.301 96.2291 167.724 93.7209C172.288 89.0095 177.854 85.2502 183.725 82.4062C189.822 79.4525 196.236 77.1395 202.034 73.5816C203.266 72.8248 204.67 71.7568 206.153 71.5982L206.147 71.6043Z" fill="#8DC757"/>
<path d="M116.551 93.196C114.739 101.331 99.5918 95.0513 94.917 91.9938C82.9189 84.1516 78.891 59.8747 82.095 46.3203C85.8055 47.1259 94.9475 53.6681 98.5238 56.7378C108.398 65.2207 119.707 79.068 116.551 93.196Z" fill="#559B61"/>
<path d="M94.1053 117.864C80.0689 117.986 65.3977 113.091 56.4876 102.24C52.6184 97.5229 50.0064 91.8839 48.4075 86.0191C47.5775 82.9616 44.1721 71.1099 48.4319 71.1527C49.1948 71.1588 50.2078 71.5493 51.526 72.4404C55.6942 75.2598 59.8075 77.7437 64.3846 79.8431C70.3593 82.5832 76.5353 84.9877 82.0645 88.5884C86.6111 91.5544 87.5936 95.5456 89.0827 100.519C90.8098 106.287 92.3294 112.121 94.1114 117.87L94.1053 117.864Z" fill="#559B61"/>
<path d="M64.4396 146.071C62.2181 150.526 53.7169 148.225 50.1773 147.243C44.3186 145.619 38.7834 142.653 34.4504 138.351C31.0633 134.982 28.5001 130.93 25.7172 127.079C24.3197 125.15 22.8733 123.271 21.2378 121.537C20.7373 121.007 17.4296 118.022 17.9911 117.241C18.8455 116.051 21.9884 116.814 24.4173 117.589C25.6257 117.98 26.6571 118.37 27.1453 118.529C31.4112 119.914 35.6648 121.367 39.888 122.886C42.1094 123.68 44.343 124.503 46.4241 125.626C50.8852 128.043 54.4371 131.729 58.1842 135.092C60.8206 137.454 66.5328 141.903 64.4396 146.083V146.071Z" fill="#559B61"/>
<path d="M99.6589 166.649C99.6589 166.784 96.1986 168.907 95.8263 169.213C94.6912 170.128 93.4767 170.866 92.2318 171.642C89.5648 173.301 86.6538 174.54 83.6329 175.407C77.5179 177.152 71.0123 177.378 64.7325 176.53C58.7456 175.73 52.9175 174.028 47.248 171.977C43.5069 170.628 39.0458 169.432 35.732 167.199C35.5 167.046 35.262 166.869 35.1339 166.619C34.6945 165.789 35.8296 165.27 36.4155 165.032C42.7197 162.457 48.9262 160.486 54.8154 156.915C66.4596 149.861 86.5195 150.88 96.5587 160.742C98.1149 162.268 99.7321 164.355 99.665 166.649H99.6589Z" fill="#559B61"/>
<path d="M172.618 59.2095C172.081 66.069 170.14 72.8553 166.57 78.7568C160.772 88.3199 150.379 95.3198 139.199 95.6799C132.382 95.8935 133.682 88.21 134.683 83.4071C135.684 78.5981 138.119 74.2529 141.134 70.4203C147.822 61.9008 157.068 56.3106 164.715 48.8103C166.033 47.5165 167.321 46.0884 167.803 44.3064C168.389 42.1643 169.054 41.4686 169.689 41.6212C173.924 42.622 172.856 56.274 172.624 59.2156L172.618 59.2095Z" fill="#559B61"/>
<path d="M88.6189 132.419C88.6311 134.579 86.4951 135.745 84.7192 136.386C82.3452 137.24 79.8187 137.643 77.2921 137.618C76.1326 137.612 74.973 137.509 73.8257 137.319C70.7865 136.819 67.1919 135.928 64.4701 134.457C59.4658 131.76 54.9131 128.269 50.0675 125.327C45.3866 122.496 40.1748 120.646 34.8715 119.365C33.1688 118.956 31.4417 118.657 29.7268 118.297C28.8114 118.114 27.8715 117.943 26.9866 117.656C26.1383 117.388 26.1261 116.539 26.9317 116.411C27.7983 116.277 28.671 116.143 29.5437 116.014C31.3074 115.758 33.0711 115.526 34.8409 115.325C38.3623 114.934 41.9019 114.678 45.4476 114.605C48.9873 114.531 52.533 114.647 56.0543 114.995C56.5975 115.05 57.1467 115.117 57.6899 115.178C66.246 116.228 74.6923 118.901 81.6922 124.034C84.1577 125.84 88.5945 128.879 88.6189 132.413V132.419Z" fill="#559B61"/>
<path d="M211.645 171.721C211.316 172.288 210.645 172.557 210.028 172.777C202.735 175.358 195.174 177.171 187.503 178.178C180.826 179.05 173.9 179.288 167.498 177.213C160.626 174.986 148.341 165.581 155.292 157.544C159.747 152.399 169.701 152.369 175.804 153.602L175.883 153.614C184.628 155.402 192.257 160.382 200.087 164.385C201.686 165.203 213.006 169.402 211.652 171.709L211.645 171.721Z" fill="#559B61"/>
</svg>
