<svg width="336" height="396" viewBox="0 0 336 396" fill="none" xmlns="http://www.w3.org/2000/svg">
<path d="M28.4073 328.548V335.277H18.1122V360.604H10.1992V335.277H0V328.548H28.4073Z" fill="white"/>
<path d="M52.5297 360.604L45.0274 350.709H40.7286V360.604H32.8568V328.548H46.7661C55.6373 328.548 60.9902 332.666 60.9902 339.676C60.9902 344.672 58.2933 348.146 53.5359 349.75L61.6816 360.604H52.5297ZM40.7286 335.099V344.391H46.5333C50.6952 344.391 53.1252 343.11 53.1252 339.814C53.1252 336.518 50.702 335.099 46.5333 335.099H40.7286Z" fill="white"/>
<path d="M65.2137 346.954V328.548H73.1266V346.954C73.1266 351.853 75.6867 354.505 79.9855 354.505C84.2842 354.505 86.9812 351.853 86.9812 346.954V328.548H94.8052V346.954C94.8052 355.697 89.1305 361.145 79.9786 361.145C70.8267 361.145 65.2068 355.697 65.2068 346.954H65.2137Z" fill="white"/>
<path d="M130.277 351.901C130.277 357.301 125.656 360.604 118.065 360.604H101V328.548H117.654C124.698 328.548 128.949 331.522 128.949 336.655C128.949 340.04 127.025 342.787 124.013 343.98C127.854 345.124 130.277 348.057 130.277 351.901ZM108.735 334.777V341.602H116.142C119.667 341.602 121.221 340.41 121.221 338.169C121.221 335.784 119.578 334.777 116.142 334.777H108.735ZM117.011 354.375C120.803 354.375 122.453 353.183 122.453 350.853C122.453 348.331 120.577 347.283 116.874 347.283H108.735V354.375H117.018H117.011Z" fill="white"/>
<path d="M160.211 360.604L158.109 355.334H142.742L140.64 360.604H132.502L145.767 328.548H155.193L168.507 360.604H160.211ZM145.206 349.29H155.679L150.463 336.195L145.206 349.29Z" fill="white"/>
<path d="M172.395 360.604V328.548H180.171V353.916H196.688V360.604H172.395Z" fill="white"/>
<path d="M226.074 360.604L223.973 355.334H208.606L206.504 360.604H198.365L211.631 328.548H221.057L234.371 360.604H226.074ZM211.07 349.29H221.543L216.327 336.195L211.07 349.29Z" fill="white"/>
<path d="M238.259 360.604V328.548H245.535L261.498 348.098V328.548H269.37V360.604H262.326L246.137 340.732V360.604H238.259Z" fill="white"/>
<path d="M275.1 344.576C275.1 334.277 282.554 328 292.253 328C296.415 328 300.577 329.24 304.602 331.988L301.262 337.943C298.332 335.839 295.498 334.825 292.616 334.825C287.27 334.825 283.149 338.395 283.149 344.535C283.149 350.675 287.311 354.286 292.712 354.286C295.594 354.286 298.428 353.326 301.399 351.216L304.698 357.171C300.762 359.918 296.737 361.2 292.575 361.2C282.835 361.2 275.106 354.697 275.106 344.576H275.1Z" fill="white"/>
<path d="M317.196 354.101H336V360.604H309.468V328.548H335.541V335.051H317.196V341.095H333.433V347.276H317.196V354.101Z" fill="white"/>
<path d="M50.7887 388.068C50.7887 392.707 46.8901 395.591 40.5508 395.591H26.3662V367.116H40.0626C45.9138 367.116 49.5304 369.8 49.5304 374.274C49.5304 377.447 47.7015 380.008 44.7793 380.944C48.4372 381.756 50.7955 384.482 50.7955 388.061L50.7887 388.068ZM30.3885 370.736V379.402H39.4094C43.5967 379.402 45.5425 377.853 45.5425 375.052C45.5425 372.251 43.4317 370.743 39.2444 370.743H30.3885V370.736ZM39.9388 391.977C44.6143 391.977 46.7664 390.394 46.7664 387.545C46.7664 384.454 44.408 383.029 39.8563 383.029H30.3885V391.977H39.9388Z" fill="white"/>
<path d="M59.2386 381.357C59.2386 372.856 65.4954 366.71 74.1107 366.71C82.7259 366.71 89.024 372.815 89.024 381.357C89.024 389.899 82.7672 396.004 74.1107 396.004C65.4542 396.004 59.2386 389.899 59.2386 381.357ZM84.7542 381.357C84.7542 374.846 80.3676 370.372 74.1107 370.372C67.8538 370.372 63.4602 374.846 63.4602 381.357C63.4602 387.868 67.8882 392.301 74.1107 392.301C80.3332 392.301 84.7542 387.868 84.7542 381.357Z" fill="white"/>
<path d="M99.3379 367.123H110.882C120.309 367.123 126.366 372.698 126.366 381.322C126.366 389.947 120.309 395.605 110.882 395.605H99.3379V367.123ZM103.36 391.977H110.717C117.71 391.977 122.096 387.992 122.096 381.357C122.096 374.722 117.71 370.702 110.676 370.702H103.36V391.977Z" fill="white"/>
<path d="M158.854 367.116L147.028 385.872V395.598H142.964V385.755L131.179 367.123H135.607L145.034 382.375L154.419 367.123H158.847L158.854 367.116Z" fill="white"/>
<path d="M207.706 367.116L198.644 395.591H194.216L186.817 373.951L179.378 395.591H174.95L165.805 367.116H170.11L177.384 390.587L184.982 367.116H188.557L196.237 390.587L203.47 367.116H207.706Z" fill="white"/>
<path d="M214.024 381.357C214.024 372.856 220.281 366.71 228.896 366.71C237.512 366.71 243.81 372.815 243.81 381.357C243.81 389.899 237.553 396.004 228.896 396.004C220.24 396.004 214.024 389.899 214.024 381.357ZM239.547 381.357C239.547 374.846 235.16 370.372 228.903 370.372C222.646 370.372 218.253 374.846 218.253 381.357C218.253 387.868 222.681 392.301 228.903 392.301C235.126 392.301 239.547 387.868 239.547 381.357Z" fill="white"/>
<path d="M272.495 395.598L264.897 385.59H258.152V395.598H254.13V367.123H265.427C272.942 367.123 277.294 370.461 277.294 376.36C277.294 381.04 274.572 384.089 269.697 385.191L277.624 395.605H272.502L272.495 395.598ZM258.152 370.702V382.011H265.303C270.425 382.011 273.265 380.386 273.265 376.436C273.265 372.485 270.419 370.702 265.344 370.702H258.152Z" fill="white"/>
<path d="M310.634 395.598H305.395L291.293 381.398V395.598H287.23V367.123H291.293V380.958L304.907 367.123H310.153L296.374 381.075L310.634 395.598Z" fill="white"/>
<path d="M168.005 0C85.2546 0 18.1602 67.1516 18.1602 150.004C18.1602 232.855 85.2546 300 167.998 300C250.741 300 317.842 232.834 317.842 150.004C317.842 67.1727 250.762 0 168.005 0ZM215.456 283.801C209.783 284.412 205.957 282.226 199.26 276.899C177.588 259.639 175.341 216.698 182.214 202.621C186.518 193.787 194.142 187.75 203.009 183.892C206.547 182.353 210.226 181.123 213.989 180.216C217.808 179.289 221.311 178.769 225.516 179.12C225.741 179.141 228.303 179.549 229.518 179.83C229.911 179.914 230.297 179.732 230.466 179.366L230.599 179.12C230.838 178.635 230.571 178.038 230.037 177.911C223.789 176.414 217.667 176.393 211.749 177.44C201.948 179.176 192.653 183.836 184.032 189.55C183.211 190.091 182.305 190.519 181.343 190.688C175.608 191.651 177.293 183.442 177.609 180.476C178.76 169.801 185.928 161.522 191.649 152.976C196.922 145.126 201.569 136.833 205.536 128.238C207.179 124.682 208.822 120.297 210.626 117.134C214.038 111.153 216.502 109.453 216.895 105.573C214.515 108.216 213.968 108.729 212.149 110.872C210.689 112.573 208.674 115.468 207.41 117.317C206.098 119.221 203.198 125.982 202.11 128.027C200.109 131.801 188.876 155.078 182.677 154.171C181.533 154.002 177.314 130.199 176.949 129.194C176.773 128.674 176.282 128.337 175.727 128.337C175.271 128.337 174.878 128.695 174.843 129.173C174.814 129.524 174.786 129.876 174.836 130.185C175.446 133.846 178.837 156.94 178.528 158.325C178.037 160.517 167.71 169.372 165.618 158.325C164.838 154.22 168.651 137.142 169.254 128.322C169.289 127.838 168.903 127.416 168.412 127.416C167.857 127.416 167.401 127.816 167.303 128.365C165.92 136.194 164.2 143.924 161.483 151.416C159.868 152.47 148.137 136.847 145.771 135.161C135.219 127.662 144.156 135.034 152.721 148.647C157.116 155.633 160.31 164.003 161.939 172.177C162.753 176.239 167.45 193.64 158.022 189.353C156.414 188.629 155.01 187.525 153.613 186.478C145.799 180.645 136.883 176.442 127.286 174.608C122.428 173.681 117.373 173.343 112.571 174.517C111.041 174.896 108.078 175.81 107.748 177.63C108.696 177.953 109.847 177.49 110.823 177.405C111.995 177.314 113.168 177.251 114.333 177.23C116.601 177.194 118.883 177.314 121.143 177.581C125.664 178.115 130.101 179.254 134.32 180.968C145.574 185.558 155.719 194.343 160.1 205.868C164.326 216.951 164.164 229.327 161.658 240.783C159.229 251.901 154.764 263.898 146.796 272.261C145.996 273.111 145.153 273.912 144.29 274.678C138.54 279.767 130.087 285.452 121.965 284.307C66.2643 265.163 26.2267 212.271 26.2267 150.018C26.2126 71.6073 89.6985 8.061 168.005 8.061C246.311 8.061 309.797 71.6073 309.797 150.004C309.797 211.73 270.433 264.263 215.456 283.801Z" fill="white"/>
<path d="M168.005 8.061C89.6985 8.061 26.2197 71.6073 26.2197 150.004C26.2197 212.257 66.2573 265.149 121.958 284.293C130.073 285.438 138.526 279.746 144.283 274.664C145.153 273.905 145.989 273.097 146.789 272.247C154.757 263.884 159.229 251.88 161.651 240.769C164.157 229.306 164.319 216.937 160.093 205.854C155.705 194.336 145.56 185.544 134.314 180.954C130.101 179.24 125.657 178.101 121.136 177.567C118.876 177.3 116.594 177.18 114.326 177.216C113.161 177.23 111.988 177.3 110.816 177.391C109.84 177.476 108.689 177.932 107.741 177.616C108.071 175.796 111.034 174.882 112.564 174.503C117.366 173.329 122.421 173.666 127.279 174.594C136.883 176.428 145.792 180.631 153.606 186.464C155.01 187.518 156.414 188.615 158.015 189.339C167.443 193.626 162.746 176.218 161.932 172.163C160.303 163.996 157.109 155.626 152.714 148.633C144.149 135.02 135.212 127.641 145.764 135.147C148.137 136.84 159.861 152.456 161.476 151.402C164.193 143.917 165.906 136.18 167.296 128.351C167.394 127.809 167.857 127.402 168.405 127.402C168.896 127.402 169.282 127.816 169.247 128.308C168.651 137.128 164.838 154.206 165.611 158.311C167.703 169.358 178.03 160.503 178.521 158.311C178.83 156.926 175.439 133.832 174.829 130.171C174.779 129.862 174.815 129.51 174.836 129.159C174.871 128.688 175.264 128.322 175.72 128.322C176.268 128.322 176.766 128.66 176.942 129.18C177.3 130.185 181.526 153.995 182.67 154.157C188.862 155.064 200.102 131.787 202.103 128.013C203.191 125.968 206.091 119.207 207.403 117.303C208.667 115.454 210.689 112.559 212.142 110.858C213.968 108.715 214.508 108.202 216.888 105.559C216.495 109.439 214.031 111.132 210.619 117.12C208.815 120.29 207.172 124.675 205.529 128.224C201.562 136.819 196.915 145.105 191.643 152.962C185.914 161.508 178.753 169.787 177.602 180.462C177.286 183.428 175.601 191.637 181.337 190.674C182.298 190.505 183.204 190.077 184.025 189.535C192.646 183.822 201.942 179.162 211.742 177.426C217.66 176.386 223.782 176.407 230.03 177.897C230.564 178.024 230.831 178.621 230.592 179.106L230.459 179.352C230.283 179.71 229.897 179.893 229.511 179.816C228.296 179.535 225.734 179.127 225.509 179.106C221.304 178.755 217.801 179.282 213.982 180.202C210.219 181.109 206.54 182.339 203.002 183.878C194.135 187.736 186.511 193.773 182.207 202.607C175.341 216.684 177.588 259.625 199.253 276.885C205.95 282.212 209.776 284.398 215.449 283.787C270.426 264.249 309.79 211.716 309.79 149.989C309.79 71.5933 246.311 8.04698 167.998 8.04698L168.005 8.061ZM55.7968 154.403C54.1891 152.182 52.5253 150.018 50.6438 148.022C50.0681 147.41 46.263 143.974 46.9089 143.074C47.8918 141.704 51.5073 142.582 54.3015 143.475C55.6915 143.924 56.878 144.374 57.4396 144.557C62.3469 146.152 67.2401 147.825 72.0983 149.575C74.6537 150.488 77.2232 151.437 79.6172 152.73C84.7491 155.513 88.8351 159.758 93.1456 163.631C96.1784 166.35 102.75 171.474 100.342 176.288C97.7861 181.418 88.0066 178.769 83.9348 177.637C77.1951 175.768 70.8276 172.352 65.8431 167.398C61.9467 163.518 58.9981 158.852 55.7968 154.417V154.403ZM137.283 193.162C139.073 194.919 140.934 197.322 140.857 199.965C140.857 200.12 136.876 202.565 136.448 202.917C135.142 203.971 133.745 204.821 132.313 205.714C129.245 207.625 125.896 209.052 122.421 210.05C115.386 212.06 107.903 212.32 100.679 211.343C93.7915 210.422 87.087 208.462 80.565 206.1C76.2614 204.547 71.1295 203.17 67.3174 200.597C67.0506 200.422 66.7768 200.218 66.6294 199.93C66.1239 198.974 67.4297 198.377 68.1037 198.102C75.3558 195.137 82.4956 192.867 89.2703 188.755C102.665 180.631 125.742 181.805 137.29 193.162H137.283ZM123.671 165.128C120.94 166.111 118.033 166.575 115.127 166.547C113.793 166.54 112.459 166.421 111.139 166.203C107.643 165.627 103.508 164.6 100.377 162.907C94.6199 159.8 89.3826 155.78 83.8084 152.393C78.4237 149.132 72.4283 147.003 66.3275 145.527C64.3688 145.056 62.382 144.712 60.4092 144.297C59.3562 144.086 58.275 143.889 57.2571 143.559C56.2812 143.25 56.2672 142.273 57.1939 142.125C58.1908 141.971 59.1947 141.816 60.1986 141.668C62.2275 141.373 64.2565 141.106 66.2924 140.874C70.3432 140.425 74.415 140.129 78.4939 140.045C82.5658 139.961 86.6447 140.094 90.6955 140.495C91.3203 140.558 91.9521 140.635 92.577 140.706C102.42 141.914 112.136 144.993 120.188 150.903C123.025 152.983 128.129 156.483 128.157 160.552C128.171 163.04 125.713 164.383 123.671 165.121V165.128ZM91.1939 125.799C86.743 120.367 83.7382 113.873 81.8988 107.119C80.9441 103.598 77.0267 89.9501 81.9269 89.9993C82.8045 90.0064 83.9699 90.4561 85.4863 91.4822C90.2813 94.7291 95.0131 97.5895 100.278 100.007C107.151 103.163 114.256 105.932 120.617 110.078C125.847 113.494 126.977 118.09 128.69 123.818C130.677 130.459 132.425 137.178 134.475 143.798C118.328 143.938 101.451 138.302 91.2009 125.806L91.1939 125.799ZM160.289 115.384C158.204 124.752 140.779 117.521 135.402 114C121.599 104.969 116.966 77.0118 120.652 61.4028C124.92 62.3305 135.437 69.8644 139.551 73.3994C150.91 83.1682 163.919 99.1145 160.289 115.384ZM172.35 100.464C171.213 105.046 172.498 109.551 173.593 113.986C174.021 115.771 174.555 117.549 174.793 119.369C174.814 119.488 174.822 119.608 174.822 119.748C174.829 119.755 174.829 119.77 174.822 119.777C174.829 119.917 174.829 120.072 174.822 120.219V120.24C174.716 120.796 174.225 121.203 173.642 121.203C173.172 121.203 172.758 120.936 172.561 120.529C172.526 120.402 172.491 120.269 172.456 120.142C169.486 109.832 167.906 99.0161 162.725 89.662C159.257 83.3931 154.231 77.9184 151.984 71.1294C149.646 64.0664 150.601 56.2303 153.262 49.2867C155.396 43.7487 158.548 38.6886 161.939 33.8394C163.083 32.1948 172.75 21.6811 172.75 20.8307C173.523 22.5174 174.379 24.176 175.271 25.7995C179.736 33.9588 185.219 41.4646 187.929 50.7696C191.348 62.471 190.414 74.7699 182.874 84.6511C179.055 89.662 173.93 94.1317 172.357 100.471L172.35 100.464ZM186.335 118.244C178.493 118.49 179.989 109.642 181.14 104.111C182.291 98.5734 185.092 93.5695 188.561 89.156C196.255 79.345 206.891 72.9075 215.688 64.2702C217.204 62.7803 218.685 61.1357 219.24 59.0836C219.914 56.6168 220.679 55.8156 221.409 55.9913C226.281 57.1439 225.053 72.8653 224.786 76.2528C224.168 84.1521 221.936 91.9671 217.829 98.7631C211.159 109.776 199.204 117.837 186.342 118.251L186.335 118.244ZM211.44 147.734C208.576 147.347 206.315 144.508 206.414 141.612C206.505 138.864 208.288 136.601 209.362 134.177C210.57 131.457 210.563 128.456 211.995 125.764C213.89 122.208 216.369 118.884 219.156 115.996C224.407 110.57 230.81 106.241 237.563 102.966C244.577 99.5643 251.955 96.9007 258.625 92.8035C260.043 91.932 261.657 90.7021 263.363 90.5194C263.413 90.5194 261.349 104.898 261.033 106.213C259.755 111.568 257.887 116.811 255.157 121.611C252.58 126.137 249.189 130.241 245.096 133.481C243.306 134.901 241.439 136.004 239.508 136.939C236.672 138.309 233.695 139.3 230.585 140.382C225.79 142.041 221.311 144.009 216.853 146.391C215.189 147.284 213.322 147.987 211.447 147.727L211.44 147.734ZM269.682 205.812C269.303 206.466 268.53 206.775 267.821 207.028C259.432 210.001 250.734 212.088 241.909 213.248C234.229 214.253 226.26 214.527 218.896 212.137C210.991 209.572 196.859 198.742 204.855 189.486C209.98 183.562 221.43 183.527 228.451 184.946L228.542 184.96C238.602 187.02 247.378 192.754 256.385 197.365C258.224 198.306 271.247 203.141 269.689 205.798L269.682 205.812ZM278.822 152.534C272.048 159.519 264.69 168.698 255.353 172.205C250.011 174.215 244.064 174.18 238.49 172.922C234.137 171.938 229.981 170.244 225.973 168.283C224.983 167.798 214.599 164.144 214.67 164.755C214.663 164.657 213.925 165.423 213.743 162.907V160.138C213.743 154.143 220.153 149.828 224.779 147.213C230.473 143.995 236.896 142.174 243.355 141.345C254.532 139.919 266.186 140.952 277.306 142.477C280.149 142.87 283.933 142.983 286.517 144.43C285.471 144.184 279.63 151.69 278.808 152.534H278.822Z" fill="#33346D"/>
<path d="M172.35 100.464C171.213 105.046 172.498 109.551 173.593 113.986C174.021 115.771 174.555 117.549 174.793 119.369C174.814 119.488 174.822 119.608 174.822 119.748C174.829 119.755 174.829 119.77 174.822 119.777C174.829 119.917 174.829 120.072 174.822 120.219V120.24C174.716 120.796 174.225 121.203 173.642 121.203C173.172 121.203 172.758 120.936 172.561 120.529C172.526 120.402 172.491 120.269 172.456 120.142C169.486 109.832 167.906 99.0161 162.725 89.662C159.257 83.3931 154.231 77.9184 151.984 71.1294C149.646 64.0664 150.601 56.2303 153.262 49.2867C155.396 43.7487 158.548 38.6886 161.939 33.8394C163.083 32.1948 172.75 21.6811 172.75 20.8307C173.523 22.5174 174.379 24.176 175.271 25.7995C179.736 33.9588 185.219 41.4646 187.929 50.7696C191.348 62.471 190.414 74.7699 182.874 84.6511C179.055 89.662 173.93 94.1317 172.357 100.471L172.35 100.464Z" fill="#8DC757"/>
<path d="M286.524 144.43C285.478 144.184 279.637 151.69 278.815 152.533C272.041 159.519 264.683 168.698 255.346 172.205C250.003 174.215 244.057 174.179 238.483 172.921C234.13 171.938 229.974 170.244 225.965 168.283C224.975 167.798 214.592 164.144 214.662 164.755C214.655 164.657 213.918 165.423 213.736 162.907V160.138C213.736 154.143 220.145 149.828 224.772 147.213C230.465 143.995 236.889 142.174 243.348 141.345C254.524 139.918 266.178 140.951 277.299 142.477C280.142 142.87 283.926 142.983 286.51 144.43H286.524Z" fill="#8DC757"/>
<path d="M263.363 90.5194C263.413 90.5194 261.349 104.898 261.033 106.213C259.755 111.568 257.887 116.811 255.157 121.611C252.58 126.137 249.189 130.241 245.096 133.481C243.306 134.901 241.439 136.004 239.508 136.939C236.672 138.309 233.695 139.3 230.585 140.382C225.79 142.041 221.311 144.009 216.853 146.391C215.189 147.284 213.322 147.987 211.447 147.727C208.583 147.34 206.322 144.501 206.42 141.605C206.512 138.857 208.295 136.594 209.369 134.17C210.576 131.45 210.569 128.449 212.002 125.757C213.897 122.201 216.375 118.877 219.162 115.989C224.414 110.563 230.816 106.234 237.57 102.959C244.583 99.5573 251.962 96.8938 258.631 92.7965C260.049 91.925 261.664 90.6951 263.37 90.5124L263.363 90.5194Z" fill="#8DC757"/>
<path d="M160.289 115.384C158.204 124.752 140.779 117.521 135.402 114C121.599 104.969 116.966 77.0118 120.652 61.4028C124.92 62.3305 135.437 69.8644 139.551 73.3994C150.91 83.1682 163.919 99.1145 160.289 115.384Z" fill="#559B61"/>
<path d="M134.468 143.791C118.321 143.931 101.444 138.295 91.1939 125.799C86.743 120.367 83.7382 113.873 81.8988 107.119C80.9441 103.598 77.0267 89.9501 81.9269 89.9993C82.8045 90.0064 83.9699 90.4561 85.4863 91.4822C90.2813 94.7291 95.0131 97.5895 100.278 100.007C107.151 103.163 114.256 105.932 120.617 110.078C125.847 113.494 126.977 118.09 128.69 123.818C130.677 130.459 132.425 137.178 134.475 143.798L134.468 143.791Z" fill="#559B61"/>
<path d="M100.342 176.274C97.7861 181.404 88.0066 178.755 83.9348 177.623C77.1951 175.754 70.8276 172.338 65.8431 167.383C61.9467 163.504 58.9981 158.838 55.7968 154.403C54.1891 152.182 52.5253 150.018 50.6438 148.022C50.0681 147.41 46.263 143.974 46.9089 143.074C47.8918 141.704 51.5073 142.582 54.3015 143.475C55.6915 143.924 56.878 144.374 57.4396 144.557C62.3469 146.152 67.2401 147.825 72.0983 149.575C74.6537 150.488 77.2232 151.437 79.6172 152.73C84.7491 155.513 88.8351 159.758 93.1456 163.631C96.1784 166.35 102.75 171.474 100.342 176.288L100.342 176.274Z" fill="#559B61"/>
<path d="M140.863 199.972C140.863 200.127 136.883 202.572 136.454 202.924C135.149 203.978 133.752 204.828 132.319 205.721C129.251 207.632 125.903 209.059 122.428 210.057C115.393 212.067 107.909 212.327 100.685 211.35C93.7981 210.429 87.0936 208.469 80.5716 206.107C76.2681 204.554 71.1361 203.177 67.324 200.604C67.0572 200.429 66.7834 200.225 66.636 199.937C66.1305 198.981 67.4364 198.384 68.1103 198.11C75.3624 195.144 82.5022 192.874 89.277 188.762C102.672 180.638 125.748 181.812 137.297 193.169C139.087 194.926 140.947 197.329 140.87 199.972H140.863Z" fill="#559B61"/>
<path d="M224.786 76.2457C224.169 84.1451 221.936 91.9601 217.829 98.7561C211.16 109.769 199.204 117.83 186.342 118.244C178.501 118.49 179.996 109.642 181.147 104.111C182.299 98.5734 185.1 93.5695 188.568 89.156C196.262 79.345 206.898 72.9075 215.695 64.2702C217.211 62.7803 218.693 61.1357 219.247 59.0836C219.921 56.6168 220.686 55.8156 221.417 55.9913C226.289 57.1439 225.06 72.8653 224.793 76.2528L224.786 76.2457Z" fill="#559B61"/>
<path d="M128.157 160.552C128.171 163.04 125.713 164.383 123.671 165.121C120.94 166.104 118.033 166.568 115.126 166.54C113.792 166.533 112.459 166.414 111.139 166.196C107.643 165.62 103.507 164.593 100.376 162.9C94.6196 159.793 89.3823 155.773 83.8081 152.386C78.4234 149.125 72.4279 146.996 66.3272 145.52C64.3685 145.049 62.3817 144.704 60.4089 144.29C59.3559 144.079 58.2747 143.882 57.2567 143.552C56.2809 143.243 56.2669 142.266 57.1936 142.118C58.1905 141.964 59.1944 141.809 60.1983 141.661C62.2272 141.366 64.2561 141.099 66.2921 140.867C70.3429 140.417 74.4147 140.122 78.4936 140.038C82.5655 139.954 86.6443 140.087 90.6951 140.488C91.32 140.551 91.9518 140.628 92.5766 140.699C102.419 141.907 112.136 144.986 120.188 150.896C123.024 152.976 128.128 156.476 128.156 160.545L128.157 160.552Z" fill="#559B61"/>
<path d="M269.682 205.812C269.303 206.466 268.53 206.775 267.821 207.028C259.432 210.001 250.734 212.088 241.909 213.248C234.229 214.253 226.26 214.527 218.896 212.137C210.991 209.572 196.859 198.742 204.855 189.486C209.98 183.562 221.43 183.527 228.451 184.946L228.542 184.96C238.602 187.02 247.378 192.754 256.385 197.365C258.224 198.306 271.247 203.141 269.689 205.798L269.682 205.812Z" fill="#559B61"/>
</svg>
