<svg width="592" height="120" viewBox="0 0 592 120" fill="none" xmlns="http://www.w3.org/2000/svg">
<path d="M185.631 94.9456C185.631 100.985 180.545 104.747 172.282 104.747H153.793V67.6611H171.647C179.275 67.6611 183.991 71.1578 183.991 76.9866C183.991 81.1183 181.608 84.4555 177.792 85.6742C182.561 86.7334 185.631 90.2813 185.631 94.9456ZM159.036 72.3765V83.661H170.799C176.254 83.661 178.797 81.6479 178.797 77.9917C178.797 74.3355 176.044 72.3765 170.585 72.3765H159.036ZM171.488 100.031C177.581 100.031 180.389 97.9638 180.389 94.2565C180.389 90.2301 177.316 88.3765 171.382 88.3765H159.039V100.031H171.491H171.488Z" fill="white"/>
<path d="M196.648 86.2038C196.648 75.133 204.806 67.1315 216.039 67.1315C227.272 67.1315 235.481 75.0788 235.481 86.2038C235.481 97.3289 227.323 105.276 216.039 105.276C204.754 105.276 196.648 97.3289 196.648 86.2038ZM229.917 86.2038C229.917 77.7269 224.197 71.8981 216.036 71.8981C207.875 71.8981 202.154 77.7269 202.154 86.2038C202.154 94.6808 207.929 100.455 216.036 100.455C224.143 100.455 229.917 94.6808 229.917 86.2038Z" fill="white"/>
<path d="M248.933 104.747V67.6611H263.979C276.268 67.6611 284.161 74.9193 284.161 86.1497C284.161 97.38 276.268 104.747 263.979 104.747H248.933ZM254.175 100.031H263.765C272.877 100.031 278.6 94.8402 278.6 86.2038C278.6 77.5674 272.88 72.3224 263.714 72.3224H254.178V100.031H254.175Z" fill="white"/>
<path d="M326.519 67.6611L311.103 92.0838V104.747H305.803V91.9243L290.439 67.6611H296.213L308.503 87.5279L320.741 67.6611H326.519Z" fill="white"/>
<path d="M384.693 67.6611H390.203L378.389 104.747H372.614L362.972 76.5623L353.277 104.747H347.502L335.583 67.6611H341.198L350.68 98.2286L360.586 67.6611H365.247L375.262 98.2286L384.693 67.6611Z" fill="white"/>
<path d="M398.448 86.2038C398.448 75.133 406.606 67.1315 417.839 67.1315C429.073 67.1315 437.282 75.0788 437.282 86.2038C437.282 97.3289 429.124 105.276 417.839 105.276C406.555 105.276 398.448 97.3289 398.448 86.2038ZM431.718 86.2038C431.718 77.7269 425.997 71.8981 417.836 71.8981C409.675 71.8981 403.955 77.7269 403.955 86.2038C403.955 94.6808 409.729 100.455 417.836 100.455C425.943 100.455 431.718 94.6808 431.718 86.2038Z" fill="white"/>
<path d="M474.677 104.747L464.771 91.7137H455.975V104.747H450.73V67.6611H465.457C475.258 67.6611 480.927 72.0064 480.927 79.6889C480.927 85.7825 477.379 89.7547 471.021 91.1841L481.352 104.747H474.677ZM455.975 72.3224V87.0494H465.3C471.975 87.0494 475.685 84.9309 475.685 79.7912C475.685 74.6515 471.978 72.3224 465.355 72.3224H455.975Z" fill="white"/>
<path d="M524.398 104.747H517.564L499.181 86.255V104.747H493.885V67.6611H499.181V85.6742L516.929 67.6611H523.763L505.801 85.8337L524.395 104.747H524.398Z" fill="white"/>
<path d="M189.2 15.7222V24.5271H175.719V57.6525H165.358V24.5271H152V15.7222H189.2Z" fill="white"/>
<path d="M220.784 57.6525L210.962 44.7129H205.335V57.6525H195.029V15.7222H213.24C224.859 15.7222 231.867 21.1117 231.867 30.2747C231.867 36.8047 228.338 41.3546 222.102 43.452L232.77 57.6495H220.787L220.784 57.6525ZM205.332 24.2864V36.4466H212.936C218.389 36.4466 221.564 34.7675 221.564 30.4583C221.564 26.1491 218.389 24.2894 212.936 24.2894H205.332V24.2864Z" fill="white"/>
<path d="M237.401 39.8019V15.7222H247.762V39.8019C247.762 46.2115 251.117 49.6841 256.747 49.6841C262.378 49.6841 265.91 46.2115 265.91 39.8019V15.7222H276.157V39.8019C276.157 51.2429 268.73 58.3687 256.744 58.3687C244.759 58.3687 237.401 51.2429 237.401 39.8019Z" fill="white"/>
<path d="M322.598 46.2687C322.598 53.3373 316.549 57.6525 306.604 57.6525H284.261V15.7222H306.068C315.292 15.7222 320.862 19.6131 320.862 26.3266C320.862 30.7562 318.346 34.3492 314.395 35.911C319.423 37.4096 322.598 41.2433 322.598 46.2717V46.2687ZM294.39 23.8681V32.7934H304.091C308.704 32.7934 310.745 31.2377 310.745 28.3007C310.745 25.1832 308.59 23.8681 304.091 23.8681H294.39ZM305.232 49.5036C310.203 49.5036 312.358 47.9478 312.358 44.8934C312.358 41.5954 309.905 40.2201 305.051 40.2201H294.39V49.5005H305.232V49.5036Z" fill="white"/>
<path d="M361.799 57.6525L359.042 50.7614H338.92L336.163 57.6525H325.502L342.871 15.7222H355.212L372.644 57.6525H361.799ZM342.152 42.8562H355.868L349.04 25.7278L342.152 42.8562Z" fill="white"/>
<path d="M377.757 57.6525V15.7222H387.94V48.9077H409.567V57.6525H377.757Z" fill="white"/>
<path d="M448.043 57.6525L445.286 50.7614H425.164L422.407 57.6525H411.746L429.115 15.7222H441.455L458.888 57.6525H448.043ZM428.399 42.8562H442.115L435.287 25.7278L428.399 42.8562Z" fill="white"/>
<path d="M464.003 57.6525V15.7222H473.528L494.433 41.2974V15.7222H504.739V57.6525H495.51L474.307 31.656V57.6525H464H464.003Z" fill="white"/>
<path d="M512.25 36.6843C512.25 23.2091 522.015 15 534.711 15C540.163 15 545.61 16.619 550.885 20.215L546.516 28.0028C542.682 25.2463 538.966 23.9253 535.189 23.9253C528.187 23.9253 522.791 28.5986 522.791 36.6272C522.791 44.6557 528.244 49.3862 535.313 49.3862C539.089 49.3862 542.8 48.1283 546.69 45.3719L551.006 53.1597C545.854 56.7557 540.582 58.4258 535.129 58.4258C522.37 58.4258 512.25 49.9188 512.25 36.6813V36.6843Z" fill="white"/>
<path d="M567.379 49.1455H592V57.6525H557.253V15.7222H591.398V24.2292H567.379V32.1344H588.645V40.2201H567.379V49.1455Z" fill="white"/>
<path d="M59.9986 0C26.8663 0 0 26.8606 0 60.0014C0 93.1422 26.8663 120 59.9986 120C93.1309 120 120 93.1337 120 60.0014C120 26.8691 93.1394 0 59.9986 0ZM79.002 113.52C76.7306 113.765 75.1985 112.891 72.5167 110.76C63.8386 103.856 62.9391 86.6793 65.6912 81.0486C67.4144 77.5149 70.4674 75.1002 74.0179 73.5568C75.4347 72.9412 76.9077 72.4492 78.4145 72.0866C79.9438 71.7155 81.3465 71.5075 83.0304 71.648C83.1204 71.6565 84.1465 71.8195 84.6328 71.932C84.7902 71.9657 84.9448 71.8926 85.0123 71.7464L85.0657 71.648C85.1613 71.4541 85.0545 71.2151 84.8408 71.1645C82.3389 70.5657 79.8876 70.5573 77.5177 70.9762C73.5934 71.6705 69.8714 73.5343 66.4193 75.8198C66.0904 76.0363 65.7277 76.2077 65.3426 76.2752C63.0459 76.6603 63.7206 73.3769 63.8471 72.1906C64.3081 67.9204 67.1783 64.6089 69.4694 61.1905C71.5806 58.0505 73.4416 54.7333 75.0299 51.2952C75.6877 49.8728 76.3455 48.1186 77.068 46.8536C78.4342 44.4613 79.4209 43.781 79.5783 42.2293C78.6253 43.2862 78.4061 43.4915 77.678 44.3489C77.0933 45.0292 76.2865 46.1874 75.7804 46.9267C75.2548 47.6885 74.0937 50.3929 73.658 51.2109C72.8568 52.7205 68.359 62.0311 65.8767 61.6684C65.4185 61.601 63.729 52.0796 63.5828 51.6776C63.5125 51.4695 63.3158 51.3346 63.0937 51.3346C62.911 51.3346 62.7535 51.478 62.7395 51.6691C62.7282 51.8097 62.717 51.9502 62.7367 52.0739C62.9812 53.5386 64.339 62.776 64.2153 63.3298C64.0186 64.2069 59.8833 67.749 59.0456 63.3298C58.7336 61.6881 60.26 54.857 60.5018 51.329C60.5158 51.135 60.3612 50.9663 60.1645 50.9663C59.9424 50.9663 59.7596 51.1266 59.7203 51.3458C59.1665 54.4775 58.4778 57.5698 57.3898 60.5664C56.7433 60.9881 52.0458 54.7389 51.0985 54.0642C46.8733 51.0647 50.4519 54.0136 53.8815 59.4589C55.6413 62.2531 56.9204 65.6012 57.5726 68.8706C57.8987 70.4955 59.7793 77.4559 56.0039 75.7411C55.3602 75.4515 54.798 75.0102 54.2385 74.5913C51.1097 72.2581 47.5395 70.577 43.6967 69.8433C41.7514 69.4722 39.7273 69.3373 37.8045 69.8067C37.1917 69.9585 36.0053 70.324 35.8732 71.0521C36.2527 71.1814 36.7138 70.9959 37.1045 70.9621C37.574 70.9256 38.0434 70.9003 38.5101 70.8918C39.4181 70.8778 40.3317 70.9256 41.2369 71.0324C43.0473 71.2461 44.824 71.7015 46.5135 72.3874C51.0198 74.2231 55.0819 77.737 56.836 82.3473C58.5284 86.7805 58.4637 91.731 57.4601 96.3132C56.4875 100.76 54.6996 105.559 51.5089 108.904C51.1884 109.245 50.8511 109.565 50.5053 109.871C48.203 111.907 44.8183 114.181 41.5658 113.723C19.2565 106.059 3.2244 84.9027 3.2244 60.0014C3.2244 28.6429 28.6457 3.2244 59.9986 3.2244C91.3515 3.2244 116.776 28.6429 116.776 60.0014C116.776 84.6918 101.013 105.705 78.9992 113.52H79.002Z" fill="white"/>
<path d="M59.9986 3.2244C28.6457 3.2244 3.2244 28.6429 3.2244 60.0014C3.2244 84.9027 19.2565 106.059 41.5602 113.717C44.8099 114.175 48.1945 111.898 50.4997 109.866C50.8483 109.562 51.1828 109.239 51.5033 108.899C54.6939 105.553 56.4846 100.752 57.4545 96.3075C58.4581 91.7225 58.5227 86.7749 56.8304 82.3417C55.0734 77.7342 51.0113 74.2174 46.5078 72.3818C44.8211 71.6958 43.0417 71.2404 41.2313 71.0268C40.3261 70.92 39.4125 70.8722 38.5045 70.8862C38.0378 70.8918 37.5683 70.92 37.0989 70.9565C36.7081 70.9902 36.2471 71.173 35.8676 71.0465C35.9997 70.3184 37.186 69.9529 37.7989 69.8011C39.7217 69.3317 41.7457 69.4666 43.6911 69.8377C47.5367 70.5714 51.1041 72.2524 54.2329 74.5857C54.7951 75.0074 55.3574 75.4459 55.9983 75.7355C59.7737 77.4503 57.893 70.487 57.5669 68.865C56.9148 65.5984 55.6357 62.2503 53.8759 59.4532C50.4463 54.008 46.8677 51.0563 51.0928 54.0586C52.043 54.7361 56.7377 60.9825 57.3842 60.5608C58.4721 57.5669 59.1581 54.4719 59.7147 51.3402C59.754 51.1238 59.9396 50.9607 60.1588 50.9607C60.3556 50.9607 60.5102 51.1266 60.4962 51.3234C60.2572 54.8514 58.7308 61.6825 59.04 63.3242C59.8777 67.7433 64.0129 64.2013 64.2097 63.3242C64.3334 62.7704 62.9756 53.5329 62.731 52.0683C62.7114 51.9446 62.7254 51.8041 62.7339 51.6635C62.7479 51.4752 62.9053 51.329 63.0881 51.329C63.3073 51.329 63.5069 51.4639 63.5772 51.6719C63.7206 52.0739 65.4129 61.5981 65.8711 61.6628C68.3506 62.0254 72.8512 52.7149 73.6524 51.2053C74.0881 50.3872 75.2491 47.6829 75.7748 46.9211C76.2808 46.1817 77.0904 45.0235 77.6724 44.3432C78.4033 43.4858 78.6197 43.2806 79.5727 42.2236C79.4153 43.7754 78.4286 44.4529 77.0623 46.848C76.3399 48.1158 75.6821 49.87 75.0242 51.2896C73.4359 54.7277 71.575 58.042 69.4638 61.1849C67.1699 64.6033 64.3025 67.9148 63.8415 72.185C63.715 73.3713 63.0403 76.6547 65.337 76.2696C65.7221 76.2021 66.0848 76.0306 66.4137 75.8142C69.8658 73.5287 73.5878 71.6649 77.5121 70.9706C79.8819 70.5545 82.3333 70.5629 84.8352 71.1589C85.0488 71.2095 85.1557 71.4485 85.0601 71.6424L85.0067 71.7408C84.9364 71.8842 84.7818 71.9573 84.6272 71.9264C84.1408 71.8139 83.1148 71.6509 83.0248 71.6424C81.3409 71.5019 79.9382 71.7127 78.4089 72.081C76.9021 72.4436 75.4291 72.9356 74.0122 73.5512C70.4617 75.0945 67.4088 77.5093 65.6856 81.0429C62.9363 86.6737 63.8358 103.85 72.5111 110.754C75.1929 112.885 76.725 113.759 78.9964 113.515C101.011 105.7 116.773 84.6862 116.773 59.9958C116.773 28.6373 91.3543 3.21878 59.9958 3.21878L59.9986 3.2244ZM15.0706 61.7612C14.4269 60.8729 13.7606 60.007 13.0072 59.2087C12.7767 58.9641 11.2531 57.5894 11.5117 57.2296C11.9053 56.6814 13.353 57.0328 14.4719 57.3898C15.0285 57.5698 15.5035 57.7497 15.7284 57.8228C17.6934 58.4609 19.6528 59.1299 21.5981 59.8299C22.6214 60.1954 23.6503 60.5749 24.6089 61.0921C26.6639 62.2054 28.3 63.9033 30.026 65.4522C31.2404 66.5402 33.8717 68.5895 32.9074 70.5151C31.8842 72.5673 27.9682 71.5075 26.3378 71.0549C23.639 70.3071 21.0893 68.9409 19.0934 66.959C17.5332 65.4073 16.3525 63.5407 15.0706 61.7668V61.7612ZM47.6998 77.2647C48.4166 77.9675 49.1616 78.929 49.1306 79.9859C49.1306 80.0478 47.5367 81.0261 47.3652 81.1666C46.8424 81.5883 46.2829 81.9285 45.7095 82.2855C44.481 83.0501 43.1401 83.6208 41.7485 84.02C38.9318 84.824 35.9351 84.928 33.0424 84.5372C30.2846 84.169 27.6 83.3846 24.9884 82.4401C23.2652 81.8188 21.2102 81.2678 19.6837 80.239C19.5769 80.1687 19.4673 80.0872 19.4083 79.9719C19.2058 79.5896 19.7287 79.3506 19.9986 79.241C22.9025 78.0547 25.7615 77.1467 28.4742 75.5021C33.8379 72.2524 43.0782 72.7219 47.7026 77.2647H47.6998ZM42.2489 66.051C41.1554 66.4446 39.9916 66.6301 38.8277 66.6189C38.2936 66.6161 37.7595 66.5683 37.231 66.4811C35.8311 66.2506 34.1753 65.8402 32.9215 65.1627C30.6163 63.9202 28.5192 62.3122 26.2872 60.9572C24.131 59.6528 21.7303 58.801 19.2874 58.2107C18.5031 58.0224 17.7075 57.8846 16.9176 57.7187C16.4959 57.6344 16.063 57.5557 15.6554 57.4236C15.2646 57.2999 15.259 56.9091 15.6301 56.8501C16.0292 56.7882 16.4312 56.7264 16.8332 56.6674C17.6457 56.5493 18.4581 56.4425 19.2733 56.3497C20.8954 56.1698 22.5258 56.0517 24.1591 56.018C25.7896 55.9843 27.4229 56.0377 29.0449 56.1979C29.2951 56.2232 29.5481 56.2541 29.7983 56.2822C33.7395 56.7658 37.6302 57.9971 40.8546 60.3612C41.9903 61.1933 44.034 62.5933 44.0453 64.221C44.0509 65.2161 43.067 65.753 42.2489 66.0482V66.051ZM29.2417 50.3198C27.4594 48.1467 26.2562 45.5492 25.5197 42.8477C25.1374 41.4393 23.5688 35.98 25.531 35.9997C25.8824 36.0025 26.349 36.1824 26.9562 36.5929C28.8762 37.8916 30.771 39.0358 32.8793 40.0028C35.6315 41.265 38.4764 42.3726 41.0233 44.0312C43.1176 45.3974 43.5702 47.2359 44.2561 49.527C45.0517 52.1836 45.7516 54.871 46.5725 57.5192C40.1068 57.5754 33.3488 55.3208 29.2445 50.3226L29.2417 50.3198ZM56.9119 46.1536C56.077 49.9009 49.0997 47.0082 46.9464 45.5998C41.4196 41.9875 39.5643 30.8047 41.0401 24.5611C42.7493 24.9322 46.9604 27.9457 48.6078 29.3598C53.1562 33.2673 58.3653 39.6458 56.9119 46.1536ZM61.7415 40.1855C61.2861 42.0184 61.8005 43.8204 62.2391 45.5942C62.4106 46.3082 62.6242 47.0195 62.7198 47.7476C62.7282 47.7954 62.731 47.8431 62.731 47.8994C62.7339 47.9022 62.7339 47.9078 62.731 47.9106C62.7339 47.9668 62.7339 48.0287 62.731 48.0877V48.0961C62.6889 48.3182 62.4921 48.4813 62.2588 48.4813C62.0704 48.4813 61.9046 48.3744 61.8258 48.2114C61.8118 48.1608 61.7977 48.1074 61.7837 48.0568C60.5946 43.9328 59.962 39.6064 57.8874 35.8648C56.4987 33.3572 54.4859 31.1673 53.5863 28.4518C52.6502 25.6265 53.0325 22.4921 54.098 19.7147C54.9526 17.4995 56.2148 15.4754 57.5726 13.5357C58.0308 12.8779 61.9018 8.67243 61.9018 8.33228C62.211 9.00696 62.5539 9.67039 62.911 10.3198C64.6989 13.5835 66.8944 16.5858 67.9795 20.3078C69.3485 24.9884 68.9746 29.9079 65.9554 33.8604C64.4262 35.8648 62.374 37.6527 61.7443 40.1884L61.7415 40.1855ZM67.3413 47.2978C64.2013 47.3962 64.8001 43.8569 65.2611 41.6445C65.7221 39.4293 66.8438 37.4278 68.2325 35.6624C71.3135 31.738 75.5724 29.163 79.0948 25.7081C79.702 25.1121 80.2952 24.4543 80.5173 23.6334C80.7871 22.6467 81.0935 22.3262 81.3859 22.3965C83.3369 22.8575 82.8449 29.1461 82.7381 30.5011C82.4907 33.6608 81.5967 36.7868 79.9522 39.5052C77.2816 43.9103 72.4942 47.1347 67.3442 47.3006L67.3413 47.2978ZM77.3912 59.0934C76.2443 58.9388 75.3391 57.8031 75.3785 56.6449C75.415 55.5457 76.129 54.6405 76.5591 53.6707C77.0427 52.5828 77.0399 51.3824 77.6133 50.3057C78.3723 48.8833 79.3647 47.5536 80.4807 46.3982C82.5835 44.228 85.1472 42.4963 87.8516 41.1863C90.6599 39.8257 93.6145 38.7603 96.2851 37.1214C96.8529 36.7728 97.4995 36.2808 98.1826 36.2077C98.2023 36.2077 97.3758 41.9594 97.2493 42.4851C96.7377 44.6272 95.9899 46.7243 94.8963 48.6443C93.8646 50.4547 92.5068 52.0964 90.8679 53.3924C90.1511 53.9602 89.4033 54.4016 88.6303 54.7755C87.4946 55.3236 86.3026 55.72 85.0573 56.1529C83.1373 56.8164 81.3437 57.6035 79.5587 58.5565C78.8924 58.9135 78.1446 59.1946 77.3941 59.0906L77.3912 59.0934ZM100.715 82.3248C100.564 82.5863 100.254 82.71 99.9705 82.8112C96.6111 84.0003 93.1281 84.8352 89.5945 85.299C86.5191 85.701 83.3284 85.8107 80.3795 84.8549C77.2141 83.8288 71.5553 79.4968 74.7572 75.7945C76.8093 73.4247 81.3943 73.4106 84.2055 73.9785L84.2421 73.9841C88.2704 74.8078 91.7844 77.1017 95.3911 78.9458C96.1276 79.3225 101.342 81.2566 100.718 82.3192L100.715 82.3248ZM104.373 61.0134C101.66 63.8077 98.7139 67.4791 94.9751 68.8819C92.8358 69.6859 90.4547 69.6718 88.2226 69.1686C86.4797 68.775 84.8155 68.0975 83.2104 67.3132C82.814 67.1193 78.6563 65.6575 78.6844 65.902C78.6816 65.8627 78.3864 66.1691 78.3133 65.1627V64.0551C78.3133 61.6572 80.8799 59.9311 82.7324 58.8854C85.0123 57.5979 87.5845 56.8698 90.1708 56.5381C94.6462 55.9674 99.3127 56.3806 103.766 56.9907C104.904 57.1481 106.419 57.1931 107.454 57.7722C107.035 57.6738 104.696 60.6761 104.367 61.0134H104.373Z" fill="#33346D"/>
<path d="M61.7415 40.1855C61.2861 42.0184 61.8005 43.8204 62.2391 45.5942C62.4106 46.3082 62.6242 47.0195 62.7198 47.7476C62.7282 47.7954 62.731 47.8431 62.731 47.8994C62.7339 47.9022 62.7339 47.9078 62.731 47.9106C62.7339 47.9668 62.7339 48.0287 62.731 48.0877V48.0961C62.6889 48.3182 62.4921 48.4813 62.2588 48.4813C62.0704 48.4813 61.9046 48.3744 61.8258 48.2114C61.8118 48.1608 61.7977 48.1074 61.7837 48.0568C60.5946 43.9328 59.962 39.6064 57.8874 35.8648C56.4987 33.3572 54.4859 31.1673 53.5863 28.4518C52.6502 25.6265 53.0325 22.4921 54.098 19.7147C54.9526 17.4995 56.2148 15.4754 57.5726 13.5357C58.0308 12.8779 61.9018 8.67243 61.9018 8.33228C62.211 9.00696 62.5539 9.67039 62.911 10.3198C64.6989 13.5835 66.8944 16.5858 67.9795 20.3078C69.3485 24.9884 68.9746 29.9079 65.9554 33.8604C64.4262 35.8648 62.374 37.6527 61.7443 40.1884L61.7415 40.1855Z" fill="#8DC757"/>
<path d="M107.459 57.7722C107.041 57.6738 104.702 60.6761 104.373 61.0134C101.66 63.8077 98.7139 67.4791 94.9751 68.8819C92.8358 69.6859 90.4547 69.6718 88.2226 69.1686C86.4797 68.775 84.8155 68.0975 83.2104 67.3132C82.814 67.1193 78.6563 65.6575 78.6844 65.902C78.6816 65.8627 78.3864 66.1691 78.3133 65.1627V64.0551C78.3133 61.6572 80.8799 59.9311 82.7324 58.8854C85.0123 57.5979 87.5845 56.8698 90.1708 56.5381C94.6462 55.9674 99.3127 56.3806 103.766 56.9907C104.904 57.1481 106.419 57.1931 107.454 57.7722H107.459Z" fill="#8DC757"/>
<path d="M98.1826 36.2077C98.2023 36.2077 97.3758 41.9594 97.2493 42.4851C96.7377 44.6272 95.9899 46.7243 94.8963 48.6443C93.8646 50.4547 92.5068 52.0964 90.8679 53.3924C90.1511 53.9602 89.4033 54.4016 88.6303 54.7755C87.4946 55.3236 86.3026 55.72 85.0573 56.1529C83.1373 56.8164 81.3437 57.6035 79.5587 58.5565C78.8924 58.9135 78.1446 59.1946 77.3941 59.0906C76.2471 58.936 75.3419 57.8003 75.3813 56.6421C75.4178 55.5429 76.1319 54.6377 76.562 53.6679C77.0455 52.5799 77.0427 51.3796 77.6161 50.3029C78.3752 48.8805 79.3675 47.5508 80.4835 46.3954C82.5863 44.2252 85.15 42.4935 87.8544 41.1835C90.6627 39.8229 93.6173 38.7575 96.2879 37.1186C96.8557 36.77 97.5023 36.278 98.1854 36.2049L98.1826 36.2077Z" fill="#8DC757"/>
<path d="M56.9119 46.1536C56.077 49.9009 49.0997 47.0082 46.9464 45.5998C41.4196 41.9875 39.5643 30.8047 41.0401 24.5611C42.7493 24.9322 46.9604 27.9457 48.6078 29.3598C53.1562 33.2673 58.3653 39.6458 56.9119 46.1536Z" fill="#559B61"/>
<path d="M46.5725 57.5163C40.1068 57.5726 33.3488 55.318 29.2445 50.3198C27.4622 48.1467 26.259 45.5492 25.5225 42.8477C25.1402 41.4393 23.5716 35.98 25.5338 35.9997C25.8852 36.0025 26.3518 36.1824 26.959 36.5929C28.8791 37.8916 30.7738 39.0358 32.8821 40.0028C35.6343 41.265 38.4792 42.3726 41.0261 44.0312C43.1204 45.3974 43.573 47.2359 44.2589 49.527C45.0545 52.1836 45.7544 54.871 46.5753 57.5192L46.5725 57.5163Z" fill="#559B61"/>
<path d="M32.9046 70.5095C31.8814 72.5617 27.9654 71.5019 26.335 71.0493C23.6362 70.3015 21.0865 68.9353 19.0906 66.9534C17.5304 65.4016 16.3497 63.535 15.0678 61.7612C14.4241 60.8729 13.7578 60.007 13.0044 59.2087C12.7739 58.9641 11.2503 57.5894 11.5089 57.2296C11.9025 56.6814 13.3502 57.0328 14.469 57.3898C15.0257 57.5698 15.5007 57.7497 15.7256 57.8228C17.6906 58.4609 19.65 59.1299 21.5953 59.8299C22.6186 60.1954 23.6475 60.5749 24.6061 61.0921C26.661 62.2054 28.2971 63.9033 30.0232 65.4523C31.2376 66.5402 33.8689 68.5895 32.9046 70.5151V70.5095Z" fill="#559B61"/>
<path d="M49.1306 79.9888C49.1306 80.0506 47.5367 81.0289 47.3652 81.1694C46.8424 81.5911 46.2829 81.9313 45.7095 82.2883C44.481 83.0529 43.1401 83.6236 41.7485 84.0228C38.9318 84.8268 35.9351 84.9308 33.0424 84.54C30.2846 84.1718 27.6 83.3874 24.9884 82.4429C23.2652 81.8216 21.2102 81.2706 19.6837 80.2418C19.5769 80.1715 19.4673 80.09 19.4083 79.9747C19.2058 79.5924 19.7287 79.3534 19.9986 79.2438C22.9025 78.0575 25.7615 77.1495 28.4742 75.505C33.8379 72.2553 43.0782 72.7247 47.7026 77.2675C48.4194 77.9703 49.1644 78.9318 49.1335 79.9888H49.1306Z" fill="#559B61"/>
<path d="M82.7381 30.4983C82.4907 33.658 81.5967 36.784 79.9522 39.5024C77.2816 43.9075 72.4942 47.1319 67.3442 47.2978C64.2041 47.3962 64.8029 43.8569 65.2639 41.6445C65.7249 39.4293 66.8466 37.4278 68.2353 35.6624C71.3163 31.738 75.5752 29.163 79.0976 25.7081C79.7048 25.1121 80.298 24.4543 80.5201 23.6334C80.7899 22.6467 81.0963 22.3262 81.3887 22.3965C83.3397 22.8575 82.8477 29.1461 82.7409 30.5011L82.7381 30.4983Z" fill="#559B61"/>
<path d="M44.0453 64.221C44.0509 65.2161 43.067 65.753 42.2489 66.0482C41.1554 66.4418 39.9916 66.6273 38.8277 66.6161C38.2936 66.6133 37.7595 66.5655 37.231 66.4783C35.8311 66.2478 34.1753 65.8374 32.9215 65.1599C30.6163 63.9173 28.5192 62.3094 26.2872 60.9544C24.131 59.65 21.7303 58.7982 19.2874 58.2079C18.5031 58.0195 17.7075 57.8818 16.9176 57.7159C16.4959 57.6316 16.063 57.5529 15.6554 57.4208C15.2646 57.2971 15.259 56.9063 15.6301 56.8473C16.0292 56.7854 16.4312 56.7236 16.8332 56.6646C17.6457 56.5465 18.4581 56.4397 19.2733 56.3469C20.8954 56.167 22.5258 56.0489 24.1591 56.0152C25.7896 55.9814 27.4229 56.0349 29.0449 56.1951C29.2951 56.2204 29.5481 56.2513 29.7983 56.2794C33.7395 56.7629 37.6302 57.9942 40.8546 60.3584C41.9903 61.1905 44.034 62.5905 44.0453 64.2181V64.221Z" fill="#559B61"/>
<path d="M100.715 82.3248C100.564 82.5863 100.254 82.71 99.9705 82.8112C96.6111 84.0003 93.1281 84.8352 89.5945 85.299C86.5191 85.701 83.3284 85.8107 80.3795 84.8549C77.2141 83.8288 71.5553 79.4968 74.7572 75.7945C76.8093 73.4247 81.3943 73.4106 84.2055 73.9785L84.2421 73.9841C88.2704 74.8078 91.7844 77.1017 95.3911 78.9458C96.1276 79.3225 101.342 81.2566 100.718 82.3192L100.715 82.3248Z" fill="#559B61"/>
</svg>
