<svg width="560" height="114" viewBox="0 0 560 114" fill="none" xmlns="http://www.w3.org/2000/svg">
<path d="M58.2961 0C26.1 0 0 26.1 0 58.2992C0 83.8663 16.4615 105.589 39.3641 113.453C42.7033 113.922 46.1779 111.587 48.5436 109.498C48.901 109.184 49.246 108.854 49.5756 108.506C52.8531 105.072 54.689 100.143 55.687 95.5779C56.719 90.8711 56.7837 85.7885 55.0463 81.2387C53.2443 76.5073 49.0735 72.8971 44.4467 71.0119C42.7156 70.3096 40.8889 69.8414 39.0284 69.6227C38.0981 69.5118 37.1617 69.4625 36.2283 69.4779C35.7478 69.484 35.2672 69.5118 34.7836 69.5487C34.3832 69.5857 33.9088 69.7736 33.5176 69.6411C33.6531 68.8926 34.8699 68.5168 35.5013 68.3628C37.4759 67.8792 39.552 68.0178 41.5512 68.3997C45.4972 69.1544 49.1628 70.8794 52.3756 73.276C52.9517 73.7072 53.5308 74.16 54.19 74.4588C58.0651 76.2177 56.1368 69.0713 55.801 67.4048C55.1295 64.0502 53.8173 60.6126 52.0091 57.7416C48.4882 52.1508 44.8133 49.1197 49.1505 52.2C50.1239 52.8962 54.9477 59.3096 55.61 58.8783C56.7282 55.8041 57.4336 52.6251 58.0035 49.4123C58.0466 49.1874 58.2345 49.0242 58.4594 49.0242C58.6627 49.0242 58.8198 49.1967 58.8044 49.3969C58.5579 53.0194 56.99 60.0334 57.3104 61.7184C58.1698 66.2558 62.4177 62.621 62.6179 61.7184C62.7442 61.1516 61.3518 51.6641 61.0993 50.1608C61.0808 50.0345 61.0931 49.8898 61.1023 49.745C61.1177 49.5509 61.2779 49.4031 61.4658 49.4031C61.6907 49.4031 61.8971 49.5417 61.9679 49.7573C62.1158 50.1701 63.8531 59.9472 64.3213 60.018C66.8688 60.3908 71.4863 50.8324 72.3088 49.2798C72.7554 48.4389 73.9506 45.6635 74.4866 44.8811C75.0072 44.1202 75.8358 42.9312 76.4365 42.235C77.185 41.354 77.4099 41.1446 78.3894 40.0572C78.2261 41.6498 77.2127 42.3459 75.8111 44.8041C75.0688 46.104 74.3942 47.906 73.7165 49.3661C72.087 52.8962 70.1771 56.3 68.0085 59.5252C65.6551 63.0368 62.7072 66.4345 62.2359 70.8209C62.1065 72.0377 61.4135 75.4076 63.773 75.0133C64.1704 74.9455 64.54 74.77 64.8789 74.5451C68.4244 72.1978 72.2441 70.2849 76.2732 69.5703C78.7067 69.1421 81.2234 69.1514 83.7924 69.7643C84.0111 69.8167 84.122 70.0601 84.0234 70.2603L83.968 70.3619C83.8971 70.5098 83.7369 70.5868 83.5768 70.5529C83.0777 70.4389 82.0243 70.2695 81.9318 70.2603C80.2038 70.1155 78.7621 70.3311 77.1942 70.71C75.6479 71.0827 74.1354 71.5879 72.6784 72.2194C69.0312 73.8027 65.8985 76.2824 64.1273 79.9111C61.3026 85.693 62.2267 103.331 71.1382 110.419C73.8921 112.606 75.4661 113.506 77.798 113.253C100.402 105.229 116.586 83.6538 116.586 58.3023C116.592 26.1 90.4953 0 58.2961 0ZM12.1644 60.1043C11.5052 59.1925 10.8183 58.3023 10.0451 57.4829C9.80792 57.2334 8.24309 55.8195 8.508 55.4498C8.91153 54.8892 10.3994 55.2465 11.5483 55.6162C12.1213 55.801 12.608 55.9858 12.839 56.0598C14.8567 56.7159 16.8681 57.4028 18.8642 58.1205C19.9177 58.4963 20.9712 58.8845 21.9569 59.4174C24.067 60.5602 25.7489 62.3037 27.517 63.8932C28.7646 65.0113 31.463 67.1152 30.4772 69.0897C29.4268 71.1967 25.4069 70.1093 23.7312 69.6442C20.9589 68.8772 18.3406 67.4725 16.2952 65.4395C14.6934 63.8469 13.4828 61.9279 12.1644 60.1074V60.1043ZM45.6666 76.0237C46.4028 76.7445 47.1667 77.7302 47.1359 78.8176C47.1359 78.8792 45.5002 79.8865 45.3216 80.0312C44.7856 80.4656 44.2096 80.8137 43.6212 81.1802C42.3613 81.9657 40.9813 82.551 39.5551 82.9607C36.6626 83.7862 33.5853 83.8909 30.6159 83.4936C27.7819 83.1147 25.0281 82.3107 22.345 81.3404C20.5769 80.7028 18.4669 80.1391 16.8989 79.0794C16.788 79.0055 16.6772 78.9223 16.6155 78.8052C16.4061 78.414 16.9451 78.1676 17.2224 78.0567C20.2042 76.8369 23.1398 75.9066 25.9244 74.2186C31.4322 70.8794 40.9197 71.3661 45.6666 76.0298V76.0237ZM40.0695 64.5092C38.9452 64.9128 37.75 65.1037 36.5579 65.0914C36.0096 65.0883 35.4613 65.0391 34.9191 64.9497C33.4806 64.7125 31.7802 64.2936 30.4926 63.5974C28.1269 62.3222 25.9737 60.6711 23.6819 59.2818C21.4702 57.9419 19.0028 57.0701 16.4954 56.4602C15.6884 56.2661 14.8721 56.1244 14.065 55.955C13.6337 55.8688 13.1871 55.7887 12.7682 55.6531C12.3677 55.5268 12.3615 55.1264 12.7435 55.0648C13.1532 55.0001 13.566 54.9385 13.9787 54.8769C14.8104 54.7568 15.6452 54.6459 16.4831 54.5504C18.1496 54.3655 19.8222 54.2423 21.4979 54.2115C23.1706 54.1746 24.8494 54.23 26.5128 54.3964C26.7685 54.4241 27.0272 54.4518 27.286 54.4826C31.3305 54.9785 35.3258 56.2415 38.6402 58.6688C39.8046 59.5221 41.9054 60.9606 41.9147 62.6302C41.9208 63.6529 40.9105 64.2043 40.0695 64.5061V64.5092ZM26.7161 48.3588C24.8864 46.1286 23.6511 43.461 22.8934 40.6856C22.5021 39.2378 20.888 33.6346 22.9026 33.6531C23.263 33.6562 23.7405 33.841 24.3658 34.263C26.3372 35.5968 28.2809 36.7735 30.4495 37.7623C33.2773 39.0592 36.1975 40.1927 38.8127 41.8993C40.9628 43.3008 41.428 45.1922 42.1303 47.5425C42.9466 50.2717 43.6643 53.0287 44.5084 55.7486C37.8671 55.8041 30.9301 53.4907 26.7161 48.3588ZM55.1264 44.0771C54.267 47.9245 47.1051 44.955 44.8934 43.5103C39.2194 39.8015 37.3126 28.3179 38.8281 21.9076C40.584 22.2865 44.9057 25.3823 46.5969 26.8332C51.2667 30.8438 56.6142 37.3927 55.1233 44.0771H55.1264ZM60.0858 37.9502C59.6176 39.8323 60.1474 41.6836 60.5972 43.5041C60.7758 44.2373 60.9914 44.9673 61.09 45.7159C61.0993 45.7651 61.0993 45.8144 61.0993 45.8699C61.1023 45.873 61.1023 45.8791 61.0993 45.8822C61.1023 45.9376 61.1023 46.0023 61.0993 46.0639V46.0732C61.0561 46.3011 60.8528 46.4675 60.6156 46.4675C60.4216 46.4675 60.2522 46.3566 60.1721 46.1902C60.1567 46.1379 60.1443 46.0824 60.1289 46.0301C58.9091 41.7945 58.2592 37.3557 56.1306 33.5114C54.7044 30.9362 52.6375 28.6875 51.7134 25.8998C50.7523 22.9981 51.1435 19.7791 52.2401 16.9297C53.118 14.6533 54.4118 12.5772 55.8072 10.5873C56.2754 9.91265 60.2522 5.59396 60.2522 5.24588C60.5694 5.93896 60.9237 6.61973 61.2872 7.28509C63.1231 10.6365 65.3779 13.72 66.4899 17.5397C67.8976 22.3481 67.5095 27.3969 64.4137 31.4537C62.8428 33.5114 60.7358 35.3473 60.0889 37.9502H60.0858ZM65.8338 45.2538C62.6117 45.3555 63.2247 41.7206 63.6991 39.4473C64.1735 37.1709 65.3255 35.1194 66.7487 33.305C69.9122 29.2759 74.2863 26.6329 77.9027 23.0843C78.5249 22.4713 79.1349 21.7967 79.3628 20.9558C79.64 19.9424 79.9542 19.6128 80.253 19.6836C82.2584 20.158 81.7532 26.6144 81.6423 28.0068C81.3866 31.2504 80.4717 34.4602 78.7806 37.251C76.0391 41.773 71.1228 45.0844 65.8338 45.2538ZM76.1531 57.3658C74.9764 57.2057 74.0461 56.0413 74.0861 54.8492C74.1231 53.7187 74.8562 52.7915 75.2998 51.7965C75.7957 50.6783 75.7927 49.4462 76.3841 48.3403C77.1634 46.8802 78.1799 45.5126 79.3289 44.3297C81.4883 42.1026 84.1189 40.3252 86.8974 38.976C89.7806 37.5806 92.8148 36.484 95.5563 34.8021C96.1416 34.4417 96.8039 33.9365 97.5031 33.8656C97.5247 33.8656 96.6745 39.7707 96.5452 40.3129C96.0184 42.5123 95.2514 44.6654 94.1301 46.6369C93.0705 48.4974 91.6751 50.1824 89.9932 51.5131C89.257 52.0984 88.49 52.5512 87.6952 52.9332C86.5308 53.4938 85.3049 53.9035 84.0265 54.3471C82.0551 55.0278 80.2161 55.8349 78.3802 56.8144C77.6963 57.181 76.9262 57.4706 76.1561 57.3628L76.1531 57.3658ZM100.1 81.2203C99.9428 81.4883 99.6255 81.6146 99.3329 81.7193C95.8829 82.9391 92.3066 83.7985 88.6779 84.2729C85.5205 84.6857 82.243 84.7997 79.215 83.817C75.9652 82.7635 70.1556 78.3155 73.4423 74.5143C75.5493 72.0808 80.2592 72.0654 83.1424 72.6507L83.1794 72.6568C87.3133 73.5008 90.9235 75.8604 94.6261 77.7518C95.3808 78.1368 100.738 80.1237 100.094 81.2172L100.1 81.2203ZM103.858 59.3342C101.07 62.2051 98.0484 65.9724 94.2102 67.414C92.0139 68.2396 89.5681 68.2242 87.2794 67.7097C85.4897 67.3062 83.7801 66.61 82.1352 65.803C81.7285 65.6058 77.4591 64.1026 77.4899 64.3552C77.4869 64.3121 77.185 64.6294 77.1111 63.5974V62.4608C77.1111 59.9965 79.7448 58.2283 81.6484 57.1533C83.9895 55.8318 86.6294 55.0833 89.2878 54.7444C93.8837 54.1592 98.6737 54.5812 103.245 55.2065C104.412 55.3667 105.971 55.416 107.031 56.0105C106.599 55.9088 104.197 58.9923 103.861 59.3373L103.858 59.3342Z" fill="#33346D"/>
<path d="M60.0858 37.9502C59.6176 39.8323 60.1474 41.6836 60.5972 43.5041C60.7758 44.2373 60.9914 44.9673 61.09 45.7159C61.0993 45.7651 61.0993 45.8144 61.0993 45.8699C61.1023 45.873 61.1023 45.8791 61.0993 45.8822C61.1023 45.9376 61.1023 46.0023 61.0993 46.0639V46.0732C61.0561 46.3011 60.8528 46.4675 60.6156 46.4675C60.4216 46.4675 60.2522 46.3566 60.1721 46.1902C60.1567 46.1379 60.1443 46.0824 60.1289 46.0301C58.9091 41.7945 58.2592 37.3557 56.1306 33.5114C54.7044 30.9362 52.6375 28.6875 51.7134 25.8998C50.7523 22.9981 51.1435 19.7791 52.2401 16.9297C53.118 14.6533 54.4118 12.5772 55.8072 10.5873C56.2754 9.91265 60.2522 5.59396 60.2522 5.24588C60.5694 5.93896 60.9237 6.61973 61.2872 7.28509C63.1231 10.6365 65.3779 13.72 66.4899 17.5397C67.8976 22.3481 67.5095 27.3969 64.4137 31.4537C62.8428 33.5114 60.7358 35.3473 60.0889 37.9502H60.0858Z" fill="#8DC757"/>
<path d="M107.028 56.0074C106.596 55.9057 104.194 58.9892 103.858 59.3342C101.07 62.2051 98.0484 65.9724 94.2102 67.414C92.0139 68.2396 89.5681 68.2242 87.2794 67.7097C85.4897 67.3062 83.7801 66.61 82.1352 65.803C81.7285 65.6058 77.4591 64.1026 77.4899 64.3552C77.4869 64.3121 77.185 64.6294 77.1111 63.5974V62.4608C77.1111 59.9965 79.7448 58.2283 81.6484 57.1533C83.9895 55.8318 86.6294 55.0833 89.2878 54.7444C93.8837 54.1592 98.6737 54.5812 103.245 55.2065C104.412 55.3667 105.971 55.416 107.031 56.0105L107.028 56.0074Z" fill="#8DC757"/>
<path d="M97.5031 33.8656C97.5247 33.8656 96.6745 39.7707 96.5452 40.3129C96.0184 42.5123 95.2514 44.6654 94.1301 46.6369C93.0705 48.4974 91.6751 50.1824 89.9932 51.5131C89.257 52.0984 88.49 52.5512 87.6952 52.9332C86.5308 53.4938 85.3049 53.9035 84.0265 54.3471C82.0551 55.0278 80.2161 55.8349 78.3802 56.8144C77.6963 57.181 76.9262 57.4706 76.1561 57.3628C74.9794 57.2026 74.0492 56.0382 74.0892 54.8461C74.1262 53.7156 74.8593 52.7884 75.3029 51.7934C75.7988 50.6753 75.7957 49.4431 76.3872 48.3373C77.1665 46.8772 78.183 45.5095 79.332 44.3266C81.4914 42.0995 84.122 40.3221 86.9005 38.9729C89.7837 37.5775 92.8179 36.4809 95.5594 34.799C96.1447 34.4386 96.807 33.9334 97.5062 33.8626L97.5031 33.8656Z" fill="#8DC757"/>
<path d="M55.1264 44.0771C54.267 47.9245 47.1051 44.955 44.8934 43.5103C39.2194 39.8015 37.3126 28.3179 38.8281 21.9076C40.584 22.2865 44.9057 25.3823 46.5969 26.8332C51.2667 30.8438 56.6142 37.3927 55.1233 44.0771H55.1264Z" fill="#559B61"/>
<path d="M44.5084 55.7456C37.8671 55.801 30.9301 53.4876 26.7161 48.3557C24.8864 46.1255 23.6511 43.4579 22.8934 40.6825C22.5021 39.2347 20.888 33.6315 22.9026 33.65C23.263 33.6531 23.7405 33.8379 24.3658 34.2599C26.3372 35.5937 28.2809 36.7704 30.4495 37.7592C33.2773 39.0561 36.1975 40.1897 38.8127 41.8962C40.9628 43.2978 41.428 45.1891 42.1303 47.5394C42.9466 50.2687 43.6643 53.0256 44.5084 55.7456Z" fill="#559B61"/>
<path d="M30.4772 69.0867C29.4268 71.1936 25.4069 70.1063 23.7312 69.6411C20.9589 68.8741 18.3406 67.4695 16.2952 65.4364C14.6934 63.8439 13.4828 61.9248 12.1644 60.1043C11.5052 59.1925 10.8183 58.3023 10.0451 57.4829C9.80792 57.2334 8.24309 55.8195 8.508 55.4498C8.91153 54.8892 10.3994 55.2465 11.5483 55.6162C12.1213 55.801 12.608 55.9858 12.839 56.0598C14.8567 56.7159 16.8681 57.4028 18.8642 58.1205C19.9177 58.4963 20.9712 58.8845 21.9569 59.4174C24.067 60.5602 25.7489 62.3037 27.517 63.8932C28.7646 65.0113 31.463 67.1152 30.4772 69.0897V69.0867Z" fill="#559B61"/>
<path d="M47.1359 78.8207C47.1359 78.8823 45.5002 79.8895 45.3216 80.0343C44.7856 80.4687 44.2096 80.8167 43.6212 81.1833C42.3613 81.9688 40.9813 82.5541 39.5551 82.9638C36.6626 83.7893 33.5853 83.894 30.6159 83.4967C27.7819 83.1178 25.0281 82.3138 22.345 81.3435C20.5769 80.7058 18.4669 80.1421 16.8989 79.0825C16.788 79.0086 16.6772 78.9254 16.6155 78.8083C16.4061 78.4171 16.9451 78.1707 17.2224 78.0598C20.2042 76.84 23.1398 75.9097 25.9244 74.2216C31.4322 70.8825 40.9197 71.3692 45.6666 76.0329C46.4028 76.7537 47.1667 77.7394 47.1359 78.8268V78.8207Z" fill="#559B61"/>
<path d="M81.6423 28.0037C81.3866 31.2473 80.4717 34.4571 78.7806 37.2479C76.0391 41.7699 71.1228 45.0813 65.8338 45.2507C62.6117 45.3524 63.2247 41.7175 63.6991 39.4442C64.1735 37.1678 65.3255 35.1163 66.7487 33.3019C69.9122 29.2728 74.2863 26.6298 77.9027 23.0813C78.5249 22.4683 79.1349 21.7937 79.3628 20.9527C79.64 19.9393 79.9542 19.6097 80.253 19.6805C82.2584 20.1549 81.7532 26.6114 81.6423 28.0037Z" fill="#559B61"/>
<path d="M41.9147 62.6302C41.9208 63.6529 40.9105 64.2043 40.0695 64.5061C38.9452 64.9097 37.75 65.1007 36.5579 65.0883C36.0096 65.0853 35.4613 65.036 34.9191 64.9466C33.4806 64.7095 31.7802 64.2905 30.4926 63.5944C28.1269 62.3191 25.9737 60.668 23.6819 59.2787C21.4702 57.9388 19.0028 57.067 16.4954 56.4571C15.6884 56.2631 14.8721 56.1214 14.065 55.9519C13.6337 55.8657 13.1871 55.7856 12.7682 55.6501C12.3677 55.5238 12.3615 55.1233 12.7435 55.0617C13.1532 54.997 13.566 54.9354 13.9787 54.8738C14.8104 54.7537 15.6452 54.6428 16.4831 54.5473C18.1496 54.3625 19.8222 54.2393 21.4979 54.2084C23.1706 54.1715 24.8494 54.2269 26.5128 54.3933C26.7685 54.421 27.0272 54.4487 27.286 54.4795C31.3305 54.9755 35.3258 56.2384 38.6402 58.6658C39.8046 59.519 41.9054 60.9576 41.9147 62.6271V62.6302Z" fill="#559B61"/>
<path d="M100.1 81.2203C99.9428 81.4883 99.6255 81.6146 99.3329 81.7193C95.8829 82.9391 92.3066 83.7985 88.6779 84.2729C85.5205 84.6857 82.243 84.7997 79.215 83.817C75.9652 82.7635 70.1556 78.3155 73.4423 74.5143C75.5493 72.0808 80.2592 72.0654 83.1424 72.6507L83.1794 72.6568C87.3133 73.5008 90.9235 75.8604 94.6261 77.7518C95.3808 78.1368 100.738 80.1237 100.094 81.2172L100.1 81.2203Z" fill="#559B61"/>
<path d="M175.596 89.5526C175.596 95.2656 170.785 98.8238 162.968 98.8238H145.479V63.7429H162.368C169.584 63.7429 174.044 67.0506 174.044 72.5643C174.044 76.4727 171.79 79.6295 168.18 80.7823C172.692 81.7843 175.596 85.1404 175.596 89.5526ZM150.438 68.2034V78.878H161.565C166.726 78.878 169.131 76.9737 169.131 73.5151C169.131 70.0565 166.526 68.2034 161.363 68.2034H150.438ZM162.217 94.3633C167.981 94.3633 170.637 92.4077 170.637 88.9007C170.637 85.092 167.73 83.3385 162.117 83.3385H150.441V94.3633H162.22H162.217Z" fill="#33346D"/>
<path d="M186.017 81.2833C186.017 70.8109 193.734 63.2419 204.36 63.2419C214.986 63.2419 222.752 70.7596 222.752 81.2833C222.752 91.807 215.035 99.3248 204.36 99.3248C193.685 99.3248 186.017 91.807 186.017 81.2833ZM217.488 81.2833C217.488 73.2646 212.077 67.7508 204.357 67.7508C196.637 67.7508 191.226 73.2646 191.226 81.2833C191.226 89.3021 196.688 94.7646 204.357 94.7646C212.026 94.7646 217.488 89.3021 217.488 81.2833Z" fill="#33346D"/>
<path d="M235.476 98.8238V63.7429H249.708C261.334 63.7429 268.8 70.6088 268.8 81.2321C268.8 91.8554 261.334 98.8238 249.708 98.8238H235.476ZM240.434 94.3633H249.506C258.126 94.3633 263.54 89.4529 263.54 81.2833C263.54 73.1137 258.129 68.1522 249.458 68.1522H240.437V94.3633H240.434Z" fill="#33346D"/>
<path d="M308.868 63.7429L294.285 86.8455V98.8238H289.273V86.6946L274.738 63.7429H280.201L291.826 82.5358L303.403 63.7429H308.868Z" fill="#33346D"/>
<path d="M363.898 63.7429H369.11L357.934 98.8238H352.472L343.352 72.163L334.18 98.8238H328.717L317.442 63.7429H322.754L331.723 92.6582L341.094 63.7429H345.504L354.977 92.6582L363.898 63.7429Z" fill="#33346D"/>
<path d="M376.91 81.2833C376.91 70.8109 384.627 63.2419 395.253 63.2419C405.879 63.2419 413.644 70.7596 413.644 81.2833C413.644 91.807 405.927 99.3248 395.253 99.3248C384.578 99.3248 376.91 91.807 376.91 81.2833ZM408.381 81.2833C408.381 73.2646 402.97 67.7508 395.25 67.7508C387.53 67.7508 382.119 73.2646 382.119 81.2833C382.119 89.3021 387.581 94.7646 395.25 94.7646C402.919 94.7646 408.381 89.3021 408.381 81.2833Z" fill="#33346D"/>
<path d="M449.019 98.8238L439.648 86.4954H431.327V98.8238H426.366V63.7429H440.297C449.568 63.7429 454.931 67.8533 454.931 75.1205C454.931 80.8848 451.575 84.6423 445.56 85.9944L455.332 98.8238H449.019ZM431.327 68.1522V82.0832H440.149C446.462 82.0832 449.972 80.0792 449.972 75.2173C449.972 70.3554 446.465 68.1522 440.2 68.1522H431.327Z" fill="#33346D"/>
<path d="M496.052 98.8238H489.588L472.198 81.3317V98.8238H467.188V63.7429H472.198V80.7823L488.987 63.7429H495.452L478.46 80.9332L496.049 98.8238H496.052Z" fill="#33346D"/>
<path d="M178.972 14.6113V22.9403H166.219V54.2752H156.418V22.9403H143.782V14.6113H178.972Z" fill="#33346D"/>
<path d="M208.849 54.2752L199.558 42.035H194.235V54.2752H184.485V14.6113H201.713C212.703 14.6113 219.333 19.7095 219.333 28.3773C219.333 34.5543 215.994 38.8583 210.096 40.8423L220.187 54.2724H208.852L208.849 54.2752ZM194.232 22.7126V34.2155H201.425C206.583 34.2155 209.586 32.6272 209.586 28.5509C209.586 24.4746 206.583 22.7155 201.425 22.7155H194.232V22.7126Z" fill="#33346D"/>
<path d="M224.568 37.3895V14.6113H234.368V37.3895C234.368 43.4526 237.542 46.7375 242.868 46.7375C248.194 46.7375 251.536 43.4526 251.536 37.3895V14.6113H261.228V37.3895C261.228 48.2121 254.203 54.9527 242.865 54.9527C231.527 54.9527 224.568 48.2121 224.568 37.3895Z" fill="#33346D"/>
<path d="M305.159 43.5067C305.159 50.1933 299.438 54.2752 290.03 54.2752H268.894V14.6113H289.523C298.248 14.6113 303.517 18.2919 303.517 24.6426C303.517 28.8327 301.137 32.2315 297.4 33.7089C302.156 35.1264 305.159 38.753 305.159 43.5096V43.5067ZM278.476 22.317V30.7598H287.653C292.017 30.7598 293.947 29.2882 293.947 26.5099C293.947 23.5609 291.909 22.317 287.653 22.317H278.476ZM288.732 46.5668C293.434 46.5668 295.472 45.0951 295.472 42.2058C295.472 39.086 293.153 37.7851 288.561 37.7851H278.476V46.5639H288.732V46.5668Z" fill="#33346D"/>
<path d="M342.241 54.2752L339.634 47.7566H320.599L317.992 54.2752H307.906L324.337 14.6113H336.01L352.5 54.2752H342.241ZM323.656 40.2787H336.631L330.172 24.0761L323.656 40.2787Z" fill="#33346D"/>
<path d="M357.337 54.2752V14.6113H366.969V46.0031H387.428V54.2752H357.337Z" fill="#33346D"/>
<path d="M423.824 54.2752L421.216 47.7566H402.181L399.574 54.2752H389.488L405.919 14.6113H417.593L434.083 54.2752H423.824ZM405.241 40.2787H418.216L411.757 24.0761L405.241 40.2787Z" fill="#33346D"/>
<path d="M438.922 54.2752V14.6113H447.931L467.706 38.8042V14.6113H477.456V54.2752H468.725L448.668 29.6838V54.2752H438.919H438.922Z" fill="#33346D"/>
<path d="M484.561 34.4404C484.561 21.6936 493.798 13.9282 505.807 13.9282C510.965 13.9282 516.118 15.4596 521.108 18.8612L516.974 26.2281C513.348 23.6207 509.832 22.371 506.26 22.371C499.636 22.371 494.532 26.7917 494.532 34.3863C494.532 41.981 499.69 46.4557 506.377 46.4557C509.949 46.4557 513.459 45.2659 517.139 42.6584L521.221 50.0253C516.348 53.4269 511.361 55.0068 506.203 55.0068C494.134 55.0068 484.561 46.9596 484.561 34.4376V34.4404Z" fill="#33346D"/>
<path d="M536.71 46.228H560V54.2752H527.131V14.6113H559.431V22.6585H536.71V30.1364H556.826V37.7851H536.71V46.228Z" fill="#33346D"/>
</svg>
