<svg width="336" height="400" viewBox="0 0 336 400" fill="none" xmlns="http://www.w3.org/2000/svg">
<path d="M168.007 0C82.972 0 14.0303 68.977 14.0303 154.073C14.0303 221.646 57.5086 279.059 117.996 299.839C126.809 301.082 135.988 294.903 142.239 289.388C143.185 288.564 144.092 287.686 144.961 286.763C153.614 277.685 158.47 264.656 161.1 252.595C163.822 240.153 163.997 226.727 159.408 214.697C154.643 202.194 143.627 192.65 131.413 187.669C126.839 185.808 122.013 184.572 117.104 183.992C114.649 183.702 112.171 183.573 109.709 183.611C108.443 183.626 107.17 183.702 105.897 183.801C104.837 183.893 103.587 184.389 102.557 184.045C102.916 182.07 106.133 181.078 107.795 180.666C113.01 179.392 118.499 179.758 123.774 180.765C134.204 182.756 143.878 187.318 152.364 193.65C153.888 194.794 155.413 195.984 157.151 196.77C167.39 201.423 162.29 182.527 161.405 178.126C159.637 169.261 156.168 160.176 151.395 152.585C142.094 137.809 132.389 129.799 143.848 137.946C146.425 139.785 159.156 156.735 160.91 155.591C163.86 147.467 165.72 139.068 167.23 130.57C167.337 129.982 167.84 129.54 168.434 129.54C168.968 129.54 169.387 129.99 169.349 130.524C168.701 140.098 164.562 158.635 165.4 163.09C167.672 175.082 178.887 165.47 179.42 163.09C179.756 161.587 176.073 136.52 175.41 132.545C175.357 132.21 175.395 131.828 175.418 131.447C175.456 130.936 175.883 130.539 176.378 130.539C176.973 130.539 177.514 130.905 177.705 131.47C178.094 132.561 182.683 158.406 183.926 158.582C190.65 159.566 202.856 134.3 205.028 130.203C206.21 127.984 209.359 120.645 210.784 118.578C212.157 116.571 214.352 113.428 215.93 111.582C217.913 109.256 218.5 108.699 221.084 105.83C220.657 110.041 217.981 111.88 214.276 118.379C212.317 121.82 210.533 126.58 208.749 130.432C204.441 139.762 199.395 148.756 193.669 157.285C187.448 166.561 179.672 175.547 178.422 187.135C178.078 190.354 176.249 199.264 182.477 198.219C183.522 198.036 184.505 197.571 185.397 196.983C194.759 190.781 204.853 185.724 215.496 183.84C221.923 182.71 228.571 182.733 235.356 184.351C235.935 184.488 236.225 185.136 235.966 185.663L235.821 185.93C235.63 186.319 235.211 186.517 234.792 186.433C233.473 186.128 230.69 185.686 230.446 185.663C225.879 185.281 222.075 185.853 217.928 186.853C213.842 187.837 209.847 189.172 206.004 190.842C196.376 195.031 188.096 201.583 183.423 211.172C175.967 226.452 178.406 273.063 201.933 291.798C209.206 297.581 213.361 299.953 219.521 299.289C279.223 278.082 321.969 221.059 321.969 154.058C321.985 68.977 253.051 0 168.007 0ZM46.1568 158.848C44.411 156.438 42.6042 154.088 40.561 151.922C39.9358 151.258 35.8038 147.528 36.5051 146.551C37.5725 145.064 41.4987 146.017 44.533 146.986C46.0425 147.474 47.3309 147.963 47.9408 148.161C53.2698 149.893 58.5836 151.708 63.8592 153.608C66.6343 154.599 69.4246 155.629 72.0243 157.033C77.5972 160.054 82.0343 164.661 86.7153 168.865C90.0087 171.817 97.1446 177.378 94.5296 182.604C91.7546 188.172 81.1347 185.297 76.7129 184.068C69.3941 182.039 62.4793 178.332 57.0664 172.954C52.8352 168.743 49.6333 163.677 46.1568 158.864V158.848ZM134.646 200.92C136.59 202.827 138.61 205.436 138.526 208.304C138.526 208.472 134.204 211.127 133.739 211.508C132.321 212.652 130.804 213.575 129.248 214.544C125.917 216.619 122.28 218.168 118.506 219.251C110.867 221.433 102.74 221.715 94.8956 220.655C87.4166 219.655 80.1359 217.527 73.0535 214.964C68.3801 213.278 62.8071 211.783 58.6674 208.991C58.3777 208.8 58.0804 208.579 57.9203 208.266C57.3714 207.229 58.7894 206.58 59.5213 206.283C67.3966 203.063 75.15 200.599 82.5069 196.137C97.0531 187.318 122.112 188.592 134.654 200.92H134.646ZM119.863 170.49C116.898 171.558 113.742 172.061 110.585 172.031C109.137 172.023 107.688 171.893 106.255 171.657C102.458 171.031 97.9679 169.917 94.5677 168.079C88.3163 164.707 82.6289 160.344 76.5757 156.667C70.7282 153.127 64.2175 150.816 57.5925 149.214C55.4654 148.703 53.3079 148.329 51.1656 147.879C50.0221 147.65 48.848 147.436 47.7426 147.078C46.6829 146.742 46.6676 145.682 47.674 145.521C48.7565 145.354 49.8467 145.186 50.9369 145.026C53.1402 144.705 55.3435 144.415 57.5544 144.164C61.9533 143.675 66.3751 143.355 70.8045 143.263C75.2262 143.172 79.6557 143.317 84.0546 143.752C84.7331 143.82 85.4192 143.904 86.0977 143.981C96.7863 145.293 107.338 148.634 116.082 155.05C119.162 157.308 124.704 161.107 124.735 165.523C124.75 168.224 122.082 169.681 119.863 170.482V170.49ZM84.5959 127.8C79.7624 121.904 76.4994 114.855 74.502 107.524C73.4652 103.702 69.2111 88.8874 74.5325 88.9408C75.4855 88.9484 76.751 89.4367 78.3977 90.5504C83.6048 94.0748 88.7432 97.1796 94.461 99.8038C101.925 103.229 109.64 106.235 116.547 110.735C122.227 114.443 123.454 119.432 125.314 125.649C127.472 132.858 129.37 140.151 131.596 147.337C114.062 147.49 95.7342 141.372 84.6035 127.808L84.5959 127.8ZM159.629 116.495C157.365 126.664 138.443 118.814 132.603 114.992C117.614 105.19 112.583 74.8433 116.585 57.9004C121.22 58.9074 132.641 67.0851 137.108 70.9223C149.444 81.5259 163.57 98.835 159.629 116.495ZM172.727 100.3C171.492 105.273 172.887 110.163 174.076 114.977C174.541 116.915 175.12 118.845 175.38 120.82C175.403 120.95 175.41 121.08 175.41 121.232C175.418 121.24 175.418 121.255 175.41 121.263C175.418 121.415 175.418 121.583 175.41 121.743V121.766C175.296 122.369 174.762 122.811 174.129 122.811C173.619 122.811 173.169 122.522 172.955 122.079C172.917 121.942 172.879 121.797 172.841 121.66C169.616 110.468 167.901 98.7282 162.274 88.5747C158.508 81.77 153.05 75.8274 150.61 68.4583C148.071 60.7916 149.108 52.2858 151.998 44.7489C154.315 38.7376 157.738 33.2451 161.421 27.9814C162.663 26.1963 173.161 14.7841 173.161 13.861C174 15.6918 174.93 17.4922 175.898 19.2544C180.747 28.1111 186.701 36.2583 189.644 46.3585C193.357 59.0599 192.343 72.4098 184.155 83.1355C180.007 88.5747 174.442 93.4264 172.734 100.307L172.727 100.3ZM187.913 119.6C179.397 119.867 181.021 110.263 182.272 104.259C183.522 98.2476 186.564 92.8161 190.33 88.0254C198.686 77.376 210.236 70.3883 219.788 61.0128C221.435 59.3956 223.043 57.6105 223.646 55.383C224.378 52.7054 225.209 51.8357 226.001 52.0264C231.292 53.2775 229.958 70.3425 229.669 74.0194C228.998 82.5939 226.573 91.0768 222.113 98.4536C214.871 110.407 201.888 119.157 187.921 119.607L187.913 119.6ZM215.176 151.609C212.065 151.189 209.61 148.108 209.717 144.965C209.816 141.982 211.753 139.525 212.919 136.894C214.23 133.941 214.223 130.684 215.778 127.762C217.836 123.902 220.528 120.294 223.554 117.159C229.257 111.269 236.21 106.57 243.544 103.015C251.16 99.3232 259.172 96.432 266.415 91.9846C267.955 91.0387 269.709 89.7037 271.561 89.5053C271.614 89.5053 269.373 105.113 269.03 106.54C267.643 112.353 265.615 118.044 262.649 123.254C259.851 128.167 256.169 132.622 251.724 136.138C249.78 137.679 247.752 138.877 245.656 139.892C242.576 141.379 239.343 142.455 235.966 143.63C230.759 145.43 225.895 147.566 221.054 150.152C219.247 151.121 217.219 151.884 215.183 151.601L215.176 151.609ZM278.422 214.651C278.011 215.361 277.172 215.696 276.402 215.971C267.292 219.198 257.846 221.463 248.263 222.722C239.922 223.813 231.27 224.11 223.272 221.517C214.688 218.732 199.341 206.977 208.025 196.93C213.59 190.499 226.024 190.461 233.648 192.002L233.747 192.017C244.672 194.252 254.202 200.477 263.983 205.482C265.98 206.504 280.123 211.752 278.43 214.636L278.422 214.651ZM288.349 156.819C280.992 164.402 273.002 174.365 262.862 178.172C257.061 180.353 250.603 180.315 244.55 178.95C239.823 177.882 235.31 176.043 230.957 173.915C229.882 173.388 218.606 169.422 218.683 170.085C218.675 169.979 217.875 170.81 217.676 168.079V165.073C217.676 158.566 224.637 153.882 229.661 151.045C235.844 147.551 242.82 145.575 249.833 144.675C261.97 143.126 274.626 144.248 286.702 145.903C289.789 146.33 293.899 146.452 296.704 148.024C295.568 147.757 289.225 155.904 288.333 156.819H288.349Z" fill="#33346D"/>
<path d="M172.727 100.3C171.492 105.273 172.887 110.163 174.076 114.977C174.541 116.915 175.12 118.845 175.38 120.82C175.403 120.95 175.41 121.08 175.41 121.232C175.418 121.24 175.418 121.255 175.41 121.263C175.418 121.415 175.418 121.583 175.41 121.743V121.766C175.296 122.369 174.762 122.811 174.129 122.811C173.619 122.811 173.169 122.522 172.955 122.079C172.917 121.942 172.879 121.797 172.841 121.66C169.616 110.468 167.901 98.7282 162.274 88.5747C158.508 81.77 153.05 75.8274 150.61 68.4583C148.071 60.7916 149.108 52.2858 151.998 44.7489C154.315 38.7376 157.738 33.2451 161.421 27.9814C162.663 26.1963 173.161 14.7841 173.161 13.861C174 15.6918 174.93 17.4922 175.898 19.2544C180.747 28.1111 186.701 36.2583 189.644 46.3585C193.357 59.0599 192.343 72.4098 184.155 83.1355C180.007 88.5747 174.442 93.4264 172.734 100.307L172.727 100.3Z" fill="#8DC757"/>
<path d="M296.712 148.024C295.576 147.757 289.233 155.904 288.341 156.819C280.984 164.402 272.994 174.365 262.855 178.172C257.053 180.353 250.596 180.315 244.542 178.95C239.816 177.882 235.302 176.043 230.949 173.915C229.874 173.388 218.599 169.422 218.675 170.085C218.667 169.979 217.867 170.81 217.669 168.079V165.073C217.669 158.566 224.629 153.882 229.653 151.045C235.836 147.551 242.812 145.575 249.826 144.675C261.963 143.126 274.618 144.248 286.694 145.903C289.782 146.33 293.891 146.452 296.697 148.024H296.712Z" fill="#8DC757"/>
<path d="M271.561 89.5053C271.614 89.5053 269.373 105.113 269.03 106.54C267.643 112.353 265.615 118.044 262.649 123.254C259.851 128.167 256.169 132.622 251.724 136.138C249.78 137.679 247.752 138.877 245.656 139.892C242.576 141.379 239.343 142.455 235.966 143.63C230.759 145.43 225.895 147.566 221.054 150.152C219.247 151.121 217.219 151.884 215.183 151.601C212.073 151.182 209.618 148.1 209.725 144.957C209.824 141.974 211.76 139.518 212.927 136.886C214.238 133.934 214.23 130.676 215.786 127.755C217.844 123.895 220.535 120.286 223.562 117.151C229.264 111.262 236.217 106.563 243.551 103.008C251.167 99.3156 259.18 96.4244 266.423 91.977C267.963 91.031 269.716 89.696 271.569 89.4977L271.561 89.5053Z" fill="#8DC757"/>
<path d="M159.629 116.495C157.365 126.664 138.443 118.814 132.603 114.992C117.614 105.19 112.583 74.8433 116.585 57.9004C121.22 58.9074 132.641 67.0851 137.108 70.9223C149.444 81.5259 163.57 98.835 159.629 116.495Z" fill="#559B61"/>
<path d="M131.589 147.329C114.054 147.482 95.7266 141.364 84.5959 127.8C79.7624 121.904 76.4994 114.855 74.502 107.524C73.4652 103.702 69.2111 88.8874 74.5325 88.9408C75.4855 88.9484 76.751 89.4367 78.3977 90.5504C83.6048 94.0748 88.7432 97.1796 94.461 99.8038C101.925 103.229 109.64 106.235 116.547 110.735C122.227 114.443 123.454 119.432 125.314 125.649C127.472 132.858 129.37 140.151 131.596 147.337L131.589 147.329Z" fill="#559B61"/>
<path d="M94.5296 182.588C91.7546 188.157 81.1347 185.281 76.7129 184.053C69.3941 182.024 62.4793 178.316 57.0664 172.938C52.8353 168.727 49.6333 163.662 46.1568 158.848C44.411 156.438 42.6042 154.088 40.561 151.922C39.9358 151.258 35.8038 147.528 36.5051 146.551C37.5725 145.064 41.4987 146.017 44.533 146.986C46.0425 147.474 47.3309 147.963 47.9408 148.161C53.2698 149.893 58.5836 151.708 63.8592 153.608C66.6343 154.599 69.4246 155.629 72.0243 157.033C77.5972 160.054 82.0343 164.661 86.7153 168.865C90.0087 171.817 97.1446 177.378 94.5296 182.604V182.588Z" fill="#559B61"/>
<path d="M138.534 208.312C138.534 208.48 134.211 211.134 133.746 211.516C132.328 212.66 130.811 213.583 129.256 214.552C125.924 216.627 122.288 218.175 118.514 219.259C110.875 221.44 102.748 221.723 94.9032 220.662C87.4243 219.663 80.1436 217.535 73.0611 214.971C68.3877 213.286 62.8147 211.79 58.675 208.998C58.3853 208.808 58.088 208.586 57.9279 208.274C57.379 207.236 58.797 206.588 59.5289 206.29C67.4043 203.071 75.1576 200.607 82.5146 196.144C97.0607 187.326 122.12 188.6 134.661 200.927C136.605 202.835 138.625 205.443 138.542 208.312H138.534Z" fill="#559B61"/>
<path d="M229.669 74.0118C228.998 82.5863 226.573 91.0692 222.113 98.446C214.871 110.4 201.887 119.15 187.921 119.6C179.405 119.867 181.029 110.263 182.279 104.259C183.529 98.2476 186.571 92.8161 190.337 88.0254C198.693 77.376 210.243 70.3883 219.796 61.0128C221.442 59.3956 223.051 57.6105 223.653 55.383C224.385 52.7054 225.216 51.8357 226.009 52.0264C231.3 53.2775 229.966 70.3425 229.676 74.0194L229.669 74.0118Z" fill="#559B61"/>
<path d="M124.735 165.523C124.75 168.224 122.082 169.681 119.863 170.482C116.898 171.55 113.742 172.053 110.585 172.023C109.137 172.015 107.688 171.886 106.255 171.649C102.458 171.024 97.9679 169.91 94.5677 168.071C88.3163 164.7 82.6289 160.336 76.5757 156.659C70.7282 153.119 64.2175 150.808 57.5925 149.206C55.4654 148.695 53.3079 148.321 51.1656 147.871C50.0221 147.642 48.848 147.429 47.7426 147.07C46.6829 146.734 46.6676 145.674 47.674 145.514C48.7565 145.346 49.8467 145.178 50.9369 145.018C53.1402 144.698 55.3435 144.408 57.5544 144.156C61.9533 143.668 66.3751 143.347 70.8045 143.256C75.2262 143.164 79.6557 143.309 84.0546 143.744C84.7331 143.813 85.4192 143.897 86.0977 143.973C96.7863 145.285 107.338 148.626 116.082 155.042C119.162 157.3 124.704 161.099 124.735 165.516L124.735 165.523Z" fill="#559B61"/>
<path d="M278.422 214.651C278.011 215.361 277.172 215.696 276.402 215.971C267.292 219.198 257.846 221.463 248.263 222.722C239.922 223.813 231.27 224.11 223.272 221.517C214.688 218.732 199.341 206.977 208.025 196.93C213.59 190.499 226.024 190.461 233.648 192.002L233.747 192.017C244.672 194.252 254.202 200.477 263.983 205.482C265.98 206.504 280.123 211.752 278.43 214.636L278.422 214.651Z" fill="#559B61"/>
<path d="M28.4073 332.548V339.277H18.1122V364.604H10.1992V339.277H0V332.548H28.4073Z" fill="#33346D"/>
<path d="M52.5297 364.604L45.0274 354.709H40.7286V364.604H32.8568V332.548H46.7661C55.6373 332.548 60.9902 336.666 60.9902 343.676C60.9902 348.672 58.2933 352.146 53.5359 353.75L61.6816 364.604H52.5297ZM40.7286 339.099V348.391H46.5333C50.6952 348.391 53.1252 347.11 53.1252 343.814C53.1252 340.518 50.702 339.099 46.5333 339.099H40.7286Z" fill="#33346D"/>
<path d="M65.2137 350.954V332.548H73.1266V350.954C73.1266 355.853 75.6867 358.505 79.9855 358.505C84.2842 358.505 86.9812 355.853 86.9812 350.954V332.548H94.8052V350.954C94.8052 359.697 89.1305 365.145 79.9786 365.145C70.8267 365.145 65.2068 359.697 65.2068 350.954H65.2137Z" fill="#33346D"/>
<path d="M130.277 355.901C130.277 361.301 125.656 364.604 118.065 364.604H101V332.548H117.654C124.698 332.548 128.949 335.522 128.949 340.655C128.949 344.04 127.025 346.787 124.013 347.98C127.854 349.124 130.277 352.057 130.277 355.901ZM108.735 338.777V345.602H116.142C119.667 345.602 121.221 344.41 121.221 342.169C121.221 339.784 119.578 338.777 116.142 338.777H108.735ZM117.011 358.375C120.803 358.375 122.453 357.183 122.453 354.853C122.453 352.331 120.577 351.283 116.874 351.283H108.735V358.375H117.018H117.011Z" fill="#33346D"/>
<path d="M160.211 364.604L158.109 359.334H142.742L140.64 364.604H132.502L145.767 332.548H155.193L168.507 364.604H160.211ZM145.206 353.29H155.679L150.463 340.195L145.206 353.29Z" fill="#33346D"/>
<path d="M172.395 364.604V332.548H180.171V357.916H196.688V364.604H172.395Z" fill="#33346D"/>
<path d="M226.074 364.604L223.973 359.334H208.606L206.504 364.604H198.365L211.631 332.548H221.057L234.371 364.604H226.074ZM211.07 353.29H221.543L216.327 340.195L211.07 353.29Z" fill="#33346D"/>
<path d="M238.259 364.604V332.548H245.535L261.498 352.098V332.548H269.37V364.604H262.326L246.137 344.732V364.604H238.259Z" fill="#33346D"/>
<path d="M275.1 348.576C275.1 338.277 282.554 332 292.253 332C296.415 332 300.577 333.24 304.602 335.988L301.262 341.943C298.332 339.839 295.498 338.825 292.616 338.825C287.27 338.825 283.149 342.395 283.149 348.535C283.149 354.675 287.311 358.286 292.712 358.286C295.594 358.286 298.428 357.326 301.399 355.216L304.698 361.171C300.762 363.918 296.737 365.2 292.575 365.2C282.835 365.2 275.106 358.697 275.106 348.576H275.1Z" fill="#33346D"/>
<path d="M317.196 358.101H336V364.604H309.468V332.548H335.541V339.051H317.196V345.095H333.433V351.276H317.196V358.101Z" fill="#33346D"/>
<path d="M50.7887 392.068C50.7887 396.707 46.8901 399.591 40.5508 399.591H26.3662V371.116H40.0626C45.9138 371.116 49.5304 373.8 49.5304 378.274C49.5304 381.447 47.7015 384.008 44.7793 384.944C48.4372 385.756 50.7955 388.482 50.7955 392.061L50.7887 392.068ZM30.3885 374.736V383.402H39.4094C43.5967 383.402 45.5425 381.853 45.5425 379.052C45.5425 376.251 43.4317 374.743 39.2444 374.743H30.3885V374.736ZM39.9388 395.977C44.6143 395.977 46.7664 394.394 46.7664 391.545C46.7664 388.454 44.408 387.029 39.8563 387.029H30.3885V395.977H39.9388Z" fill="#33346D"/>
<path d="M59.2386 385.357C59.2386 376.856 65.4954 370.71 74.1107 370.71C82.7259 370.71 89.024 376.815 89.024 385.357C89.024 393.899 82.7672 400.004 74.1107 400.004C65.4542 400.004 59.2386 393.899 59.2386 385.357ZM84.7542 385.357C84.7542 378.846 80.3676 374.372 74.1107 374.372C67.8538 374.372 63.4602 378.846 63.4602 385.357C63.4602 391.868 67.8882 396.301 74.1107 396.301C80.3332 396.301 84.7542 391.868 84.7542 385.357Z" fill="#33346D"/>
<path d="M99.3379 371.123H110.882C120.309 371.123 126.366 376.698 126.366 385.322C126.366 393.947 120.309 399.605 110.882 399.605H99.3379V371.123ZM103.36 395.977H110.717C117.71 395.977 122.096 391.992 122.096 385.357C122.096 378.722 117.71 374.702 110.676 374.702H103.36V395.977Z" fill="#33346D"/>
<path d="M158.854 371.116L147.028 389.872V399.598H142.964V389.755L131.179 371.123H135.607L145.034 386.375L154.419 371.123H158.847L158.854 371.116Z" fill="#33346D"/>
<path d="M207.706 371.116L198.644 399.591H194.216L186.817 377.951L179.378 399.591H174.95L165.805 371.116H170.11L177.384 394.587L184.982 371.116H188.557L196.237 394.587L203.47 371.116H207.706Z" fill="#33346D"/>
<path d="M214.024 385.357C214.024 376.856 220.281 370.71 228.896 370.71C237.512 370.71 243.81 376.815 243.81 385.357C243.81 393.899 237.553 400.004 228.896 400.004C220.24 400.004 214.024 393.899 214.024 385.357ZM239.547 385.357C239.547 378.846 235.16 374.372 228.903 374.372C222.646 374.372 218.253 378.846 218.253 385.357C218.253 391.868 222.681 396.301 228.903 396.301C235.126 396.301 239.547 391.868 239.547 385.357Z" fill="#33346D"/>
<path d="M272.495 399.598L264.897 389.59H258.152V399.598H254.13V371.123H265.427C272.942 371.123 277.294 374.461 277.294 380.36C277.294 385.04 274.572 388.089 269.697 389.191L277.624 399.605H272.502L272.495 399.598ZM258.152 374.702V386.011H265.303C270.425 386.011 273.265 384.386 273.265 380.436C273.265 376.485 270.419 374.702 265.344 374.702H258.152Z" fill="#33346D"/>
<path d="M310.634 399.598H305.395L291.293 385.398V399.598H287.23V371.123H291.293V384.958L304.907 371.123H310.153L296.374 385.075L310.634 399.598Z" fill="#33346D"/>
</svg>
