<svg width="590" height="120" viewBox="0 0 590 120" fill="none" xmlns="http://www.w3.org/2000/svg">
<path d="M183.631 94.9456C183.631 100.985 178.545 104.747 170.282 104.747H151.793V67.6611H169.647C177.275 67.6611 181.991 71.1578 181.991 76.9866C181.991 81.1183 179.608 84.4555 175.792 85.6742C180.561 86.7334 183.631 90.2813 183.631 94.9456ZM157.036 72.3765V83.661H168.799C174.254 83.661 176.797 81.6479 176.797 77.9917C176.797 74.3355 174.044 72.3765 168.585 72.3765H157.036ZM169.488 100.031C175.581 100.031 178.389 97.9638 178.389 94.2565C178.389 90.2301 175.316 88.3765 169.382 88.3765H157.039V100.031H169.491H169.488Z" fill="white"/>
<path d="M194.648 86.2038C194.648 75.1329 202.806 67.1315 214.039 67.1315C225.272 67.1315 233.481 75.0788 233.481 86.2038C233.481 97.3288 225.323 105.276 214.039 105.276C202.754 105.276 194.648 97.3288 194.648 86.2038ZM227.917 86.2038C227.917 77.7269 222.197 71.8981 214.036 71.8981C205.875 71.8981 200.154 77.7269 200.154 86.2038C200.154 94.6807 205.929 100.455 214.036 100.455C222.143 100.455 227.917 94.6807 227.917 86.2038Z" fill="white"/>
<path d="M246.933 104.747V67.6611H261.979C274.268 67.6611 282.161 74.9193 282.161 86.1497C282.161 97.38 274.268 104.747 261.979 104.747H246.933ZM252.175 100.031H261.765C270.877 100.031 276.6 94.8402 276.6 86.2038C276.6 77.5674 270.88 72.3224 261.714 72.3224H252.178V100.031H252.175Z" fill="white"/>
<path d="M324.519 67.6611L309.103 92.0838V104.747H303.803V91.9243L288.439 67.6611H294.213L306.503 87.5279L318.741 67.6611H324.519Z" fill="white"/>
<path d="M382.693 67.6611H388.203L376.389 104.747H370.614L360.972 76.5623L351.277 104.747H345.502L333.583 67.6611H339.198L348.68 98.2286L358.586 67.6611H363.247L373.262 98.2286L382.693 67.6611Z" fill="white"/>
<path d="M396.448 86.2038C396.448 75.1329 404.606 67.1315 415.839 67.1315C427.073 67.1315 435.282 75.0788 435.282 86.2038C435.282 97.3288 427.124 105.276 415.839 105.276C404.555 105.276 396.448 97.3288 396.448 86.2038ZM429.718 86.2038C429.718 77.7269 423.997 71.8981 415.836 71.8981C407.675 71.8981 401.955 77.7269 401.955 86.2038C401.955 94.6807 407.729 100.455 415.836 100.455C423.943 100.455 429.718 94.6807 429.718 86.2038Z" fill="white"/>
<path d="M472.677 104.747L462.771 91.7137H453.975V104.747H448.73V67.6611H463.457C473.258 67.6611 478.927 72.0064 478.927 79.6889C478.927 85.7825 475.379 89.7547 469.021 91.1841L479.352 104.747H472.677ZM453.975 72.3224V87.0494H463.3C469.975 87.0494 473.685 84.9309 473.685 79.7912C473.685 74.6515 469.978 72.3224 463.355 72.3224H453.975Z" fill="white"/>
<path d="M522.398 104.747H515.564L497.181 86.255V104.747H491.885V67.6611H497.181V85.6742L514.929 67.6611H521.763L503.801 85.8337L522.395 104.747H522.398Z" fill="white"/>
<path d="M187.2 15.7222V24.5271H173.719V57.6525H163.358V24.5271H150V15.7222H187.2Z" fill="white"/>
<path d="M218.784 57.6525L208.962 44.7129H203.335V57.6525H193.029V15.7222H211.24C222.859 15.7222 229.867 21.1117 229.867 30.2747C229.867 36.8047 226.338 41.3546 220.102 43.452L230.77 57.6495H218.787L218.784 57.6525ZM203.332 24.2864V36.4466H210.936C216.389 36.4466 219.564 34.7675 219.564 30.4583C219.564 26.1491 216.389 24.2894 210.936 24.2894H203.332V24.2864Z" fill="white"/>
<path d="M235.401 39.8019V15.7222H245.762V39.8019C245.762 46.2115 249.117 49.6841 254.747 49.6841C260.378 49.6841 263.91 46.2115 263.91 39.8019V15.7222H274.157V39.8019C274.157 51.2429 266.73 58.3687 254.744 58.3687C242.759 58.3687 235.401 51.2429 235.401 39.8019Z" fill="white"/>
<path d="M320.598 46.2687C320.598 53.3373 314.549 57.6525 304.604 57.6525H282.261V15.7222H304.068C313.292 15.7222 318.862 19.6131 318.862 26.3266C318.862 30.7562 316.346 34.3492 312.395 35.911C317.423 37.4096 320.598 41.2433 320.598 46.2717V46.2687ZM292.39 23.8681V32.7934H302.091C306.704 32.7934 308.745 31.2377 308.745 28.3007C308.745 25.1832 306.59 23.8681 302.091 23.8681H292.39ZM303.232 49.5036C308.203 49.5036 310.358 47.9478 310.358 44.8934C310.358 41.5954 307.905 40.2201 303.051 40.2201H292.39V49.5005H303.232V49.5036Z" fill="white"/>
<path d="M359.799 57.6525L357.042 50.7614H336.92L334.163 57.6525H323.502L340.871 15.7222H353.212L370.644 57.6525H359.799ZM340.152 42.8562H353.868L347.04 25.7278L340.152 42.8562Z" fill="white"/>
<path d="M375.757 57.6525V15.7222H385.94V48.9077H407.567V57.6525H375.757Z" fill="white"/>
<path d="M446.043 57.6525L443.286 50.7614H423.164L420.407 57.6525H409.746L427.115 15.7222H439.455L456.888 57.6525H446.043ZM426.399 42.8562H440.115L433.287 25.7278L426.399 42.8562Z" fill="white"/>
<path d="M462.003 57.6525V15.7222H471.528L492.433 41.2974V15.7222H502.739V57.6525H493.51L472.307 31.656V57.6525H462H462.003Z" fill="white"/>
<path d="M510.25 36.6843C510.25 23.2091 520.015 15 532.711 15C538.163 15 543.61 16.619 548.885 20.215L544.516 28.0028C540.682 25.2463 536.966 23.9253 533.189 23.9253C526.187 23.9253 520.791 28.5986 520.791 36.6272C520.791 44.6557 526.244 49.3862 533.313 49.3862C537.089 49.3862 540.799 48.1283 544.69 45.3719L549.006 53.1597C543.854 56.7557 538.582 58.4258 533.129 58.4258C520.37 58.4258 510.25 49.9188 510.25 36.6813V36.6843Z" fill="white"/>
<path d="M565.379 49.1455H590V57.6525H555.253V15.7222H589.398V24.2292H565.379V32.1344H586.645V40.2201H565.379V49.1455Z" fill="white"/>
<path d="M59.9986 0C26.8663 0 0 26.8606 0 60.0014C0 93.1422 26.8663 120 59.9986 120C93.1309 120 120 93.1337 120 60.0014C120 26.8691 93.1394 0 59.9986 0ZM79.002 113.52C76.7306 113.765 75.1985 112.891 72.5167 110.76C63.8386 103.856 62.9391 86.6793 65.6912 81.0486C67.4144 77.5149 70.4674 75.1002 74.0179 73.5568C75.4347 72.9412 76.9077 72.4492 78.4145 72.0866C79.9438 71.7155 81.3465 71.5075 83.0304 71.648C83.1204 71.6565 84.1465 71.8195 84.6328 71.932C84.7902 71.9657 84.9448 71.8926 85.0123 71.7464L85.0657 71.648C85.1613 71.4541 85.0545 71.2151 84.8408 71.1645C82.3389 70.5657 79.8876 70.5573 77.5177 70.9762C73.5934 71.6705 69.8714 73.5343 66.4193 75.8198C66.0904 76.0363 65.7277 76.2077 65.3426 76.2752C63.0459 76.6603 63.7206 73.3769 63.8471 72.1906C64.3081 67.9204 67.1783 64.6089 69.4694 61.1905C71.5806 58.0505 73.4416 54.7333 75.0299 51.2952C75.6877 49.8728 76.3455 48.1186 77.068 46.8536C78.4342 44.4613 79.4209 43.781 79.5783 42.2293C78.6253 43.2862 78.4061 43.4915 77.678 44.3489C77.0933 45.0292 76.2865 46.1874 75.7804 46.9267C75.2548 47.6885 74.0938 50.3929 73.658 51.2109C72.8568 52.7205 68.359 62.0311 65.8767 61.6684C65.4185 61.601 63.729 52.0796 63.5828 51.6776C63.5125 51.4695 63.3158 51.3346 63.0937 51.3346C62.911 51.3346 62.7535 51.478 62.7395 51.6691C62.7282 51.8097 62.717 51.9502 62.7367 52.0739C62.9812 53.5386 64.339 62.776 64.2153 63.3298C64.0185 64.2069 59.8833 67.749 59.0456 63.3298C58.7336 61.6881 60.26 54.857 60.5018 51.329C60.5159 51.135 60.3612 50.9663 60.1645 50.9663C59.9424 50.9663 59.7596 51.1266 59.7203 51.3458C59.1665 54.4775 58.4778 57.5698 57.3898 60.5664C56.7433 60.9881 52.0458 54.7389 51.0985 54.0642C46.8733 51.0647 50.4519 54.0136 53.8815 59.4589C55.6413 62.2531 56.9204 65.6012 57.5726 68.8706C57.8987 70.4955 59.7793 77.4559 56.0039 75.7411C55.3602 75.4515 54.798 75.0102 54.2385 74.5913C51.1097 72.2581 47.5395 70.577 43.6967 69.8433C41.7514 69.4722 39.7273 69.3373 37.8045 69.8067C37.1917 69.9585 36.0053 70.324 35.8732 71.0521C36.2527 71.1814 36.7138 70.9959 37.1045 70.9621C37.574 70.9256 38.0434 70.9003 38.5101 70.8918C39.4181 70.8778 40.3317 70.9256 41.2369 71.0324C43.0473 71.246 44.824 71.7015 46.5135 72.3874C51.0198 74.2231 55.0819 77.737 56.836 82.3473C58.5284 86.7805 58.4637 91.731 57.4601 96.3132C56.4875 100.76 54.6996 105.559 51.5089 108.904C51.1884 109.244 50.8511 109.565 50.5053 109.871C48.203 111.907 44.8183 114.181 41.5658 113.723C19.2565 106.059 3.2244 84.9027 3.2244 60.0014C3.2244 28.6429 28.6457 3.2244 59.9986 3.2244C91.3515 3.2244 116.776 28.6429 116.776 60.0014C116.776 84.6918 101.013 105.705 78.9992 113.52H79.002Z" fill="white"/>
<path d="M61.7415 40.1855C61.2861 42.0184 61.8005 43.8204 62.2391 45.5942C62.4106 46.3082 62.6242 47.0195 62.7198 47.7476C62.7282 47.7954 62.731 47.8431 62.731 47.8994C62.7339 47.9022 62.7339 47.9078 62.731 47.9106C62.7339 47.9668 62.7339 48.0287 62.731 48.0877V48.0961C62.6889 48.3182 62.4921 48.4813 62.2588 48.4813C62.0704 48.4813 61.9046 48.3744 61.8258 48.2114C61.8118 48.1608 61.7977 48.1074 61.7837 48.0568C60.5946 43.9328 59.9621 39.6064 57.8874 35.8648C56.4987 33.3572 54.4859 31.1673 53.5863 28.4518C52.6502 25.6265 53.0325 22.4921 54.098 19.7147C54.9526 17.4995 56.2148 15.4754 57.5726 13.5357C58.0308 12.8779 61.9018 8.67243 61.9018 8.33228C62.211 9.00696 62.5539 9.67039 62.911 10.3198C64.6989 13.5835 66.8944 16.5858 67.9795 20.3078C69.3485 24.9884 68.9746 29.9079 65.9554 33.8604C64.4262 35.8648 62.374 37.6527 61.7443 40.1884L61.7415 40.1855Z" fill="white"/>
<path d="M107.459 57.7722C107.041 57.6738 104.702 60.6761 104.373 61.0134C101.66 63.8077 98.7139 67.4791 94.9751 68.8819C92.8358 69.6859 90.4547 69.6718 88.2226 69.1686C86.4797 68.775 84.8155 68.0975 83.2104 67.3132C82.814 67.1193 78.6563 65.6575 78.6844 65.902C78.6816 65.8627 78.3864 66.1691 78.3133 65.1627V64.0551C78.3133 61.6572 80.8799 59.9311 82.7324 58.8854C85.0123 57.5979 87.5845 56.8698 90.1708 56.5381C94.6461 55.9674 99.3127 56.3806 103.766 56.9907C104.904 57.1481 106.419 57.1931 107.454 57.7722H107.459Z" fill="white"/>
<path d="M98.1826 36.2077C98.2023 36.2077 97.3758 41.9594 97.2493 42.4851C96.7376 44.6272 95.9899 46.7243 94.8963 48.6443C93.8646 50.4547 92.5069 52.0964 90.8679 53.3924C90.1511 53.9602 89.4033 54.4016 88.6303 54.7755C87.4946 55.3236 86.3026 55.72 85.0573 56.1529C83.1373 56.8164 81.3437 57.6035 79.5587 58.5565C78.8924 58.9135 78.1446 59.1946 77.3941 59.0906C76.2471 58.936 75.3419 57.8003 75.3813 56.6421C75.4178 55.5429 76.1319 54.6377 76.562 53.6679C77.0455 52.5799 77.0427 51.3796 77.6161 50.3029C78.3752 48.8805 79.3675 47.5508 80.4835 46.3954C82.5863 44.2252 85.15 42.4935 87.8544 41.1835C90.6627 39.8229 93.6173 38.7575 96.2879 37.1186C96.8557 36.77 97.5023 36.278 98.1854 36.2049L98.1826 36.2077Z" fill="white"/>
<path d="M56.9119 46.1536C56.077 49.9009 49.0997 47.0082 46.9464 45.5998C41.4196 41.9875 39.5643 30.8047 41.0401 24.5611C42.7493 24.9322 46.9604 27.9457 48.6078 29.3598C53.1562 33.2673 58.3653 39.6458 56.9119 46.1536Z" fill="white"/>
<path d="M46.5725 57.5163C40.1068 57.5726 33.3488 55.318 29.2445 50.3198C27.4622 48.1467 26.2591 45.5492 25.5225 42.8477C25.1402 41.4393 23.5716 35.98 25.5338 35.9997C25.8852 36.0025 26.3518 36.1824 26.959 36.5929C28.8791 37.8916 30.7738 39.0358 32.8821 40.0028C35.6343 41.265 38.4792 42.3726 41.0261 44.0312C43.1204 45.3974 43.573 47.2359 44.2589 49.527C45.0545 52.1836 45.7544 54.871 46.5753 57.5192L46.5725 57.5163Z" fill="white"/>
<path d="M32.9046 70.5095C31.8814 72.5617 27.9654 71.5019 26.335 71.0493C23.6362 70.3015 21.0865 68.9353 19.0906 66.9534C17.5304 65.4016 16.3497 63.535 15.0678 61.7612C14.4241 60.8729 13.7578 60.007 13.0044 59.2087C12.7739 58.9641 11.2503 57.5894 11.5089 57.2296C11.9025 56.6814 13.3502 57.0328 14.469 57.3898C15.0257 57.5698 15.5007 57.7497 15.7256 57.8228C17.6906 58.4609 19.65 59.1299 21.5953 59.8299C22.6186 60.1954 23.6475 60.5749 24.6061 61.0921C26.661 62.2054 28.2971 63.9033 30.0232 65.4523C31.2376 66.5402 33.8689 68.5895 32.9046 70.5151V70.5095Z" fill="white"/>
<path d="M49.1306 79.9888C49.1306 80.0506 47.5367 81.0289 47.3652 81.1694C46.8424 81.5911 46.2829 81.9313 45.7095 82.2883C44.481 83.0529 43.1401 83.6236 41.7485 84.0228C38.9318 84.8268 35.9351 84.9308 33.0424 84.54C30.2846 84.1718 27.6 83.3874 24.9884 82.4429C23.2652 81.8216 21.2102 81.2706 19.6837 80.2418C19.5769 80.1715 19.4673 80.09 19.4083 79.9747C19.2058 79.5924 19.7287 79.3534 19.9986 79.2438C22.9025 78.0575 25.7615 77.1495 28.4742 75.505C33.8379 72.2553 43.0782 72.7247 47.7026 77.2675C48.4194 77.9703 49.1644 78.9318 49.1335 79.9888H49.1306Z" fill="white"/>
<path d="M82.7381 30.4983C82.4907 33.658 81.5967 36.784 79.9522 39.5024C77.2816 43.9075 72.4942 47.1319 67.3442 47.2978C64.2041 47.3962 64.8029 43.8569 65.2639 41.6445C65.7249 39.4293 66.8466 37.4278 68.2353 35.6624C71.3163 31.738 75.5752 29.163 79.0976 25.7081C79.7048 25.1121 80.298 24.4543 80.5201 23.6334C80.7899 22.6467 81.0964 22.3262 81.3887 22.3965C83.3397 22.8575 82.8477 29.1461 82.7409 30.5011L82.7381 30.4983Z" fill="white"/>
<path d="M44.0453 64.221C44.0509 65.2161 43.067 65.753 42.2489 66.0482C41.1554 66.4418 39.9916 66.6273 38.8277 66.6161C38.2936 66.6133 37.7595 66.5655 37.231 66.4783C35.8311 66.2478 34.1753 65.8374 32.9215 65.1599C30.6164 63.9173 28.5192 62.3094 26.2872 60.9544C24.131 59.65 21.7303 58.7982 19.2874 58.2079C18.5031 58.0195 17.7075 57.8818 16.9176 57.7159C16.4959 57.6316 16.063 57.5529 15.6554 57.4208C15.2646 57.2971 15.259 56.9063 15.6301 56.8473C16.0292 56.7854 16.4312 56.7236 16.8332 56.6646C17.6457 56.5465 18.4581 56.4397 19.2733 56.3469C20.8954 56.167 22.5258 56.0489 24.1591 56.0152C25.7896 55.9814 27.4229 56.0349 29.0449 56.1951C29.2951 56.2204 29.5481 56.2513 29.7983 56.2794C33.7395 56.763 37.6302 57.9942 40.8546 60.3584C41.9903 61.1905 44.034 62.5905 44.0453 64.2181V64.221Z" fill="white"/>
<path d="M100.715 82.3248C100.564 82.5863 100.254 82.71 99.9705 82.8112C96.6111 84.0003 93.1281 84.8352 89.5945 85.299C86.5191 85.701 83.3284 85.8107 80.3795 84.8549C77.2141 83.8288 71.5553 79.4968 74.7572 75.7945C76.8093 73.4247 81.3943 73.4106 84.2055 73.9785L84.2421 73.9841C88.2704 74.8078 91.7844 77.1017 95.3911 78.9458C96.1276 79.3225 101.342 81.2566 100.718 82.3192L100.715 82.3248Z" fill="white"/>
</svg>
