<svg width="336" height="400" viewBox="0 0 336 400" fill="none" xmlns="http://www.w3.org/2000/svg">
<path d="M168.004 0C85.1656 0 18 67.1516 18 150.004C18 232.855 85.1656 300 167.996 300C250.827 300 318 232.834 318 150.004C318 67.1727 250.848 0 168.004 0ZM215.505 283.801C209.827 284.412 205.996 282.226 199.292 276.899C177.597 259.639 175.348 216.698 182.228 202.621C186.536 193.787 194.168 187.75 203.045 183.892C206.587 182.353 210.269 181.123 214.036 180.216C217.859 179.289 221.366 178.769 225.576 179.12C225.801 179.141 228.366 179.549 229.582 179.83C229.976 179.914 230.362 179.732 230.531 179.366L230.664 179.12C230.903 178.635 230.636 178.038 230.102 177.911C223.847 176.414 217.719 176.393 211.794 177.44C201.983 179.176 192.678 183.836 184.048 189.549C183.226 190.091 182.319 190.519 181.357 190.688C175.615 191.651 177.301 183.442 177.618 180.476C178.77 169.801 185.946 161.522 191.673 152.976C196.951 145.126 201.604 136.833 205.575 128.238C207.219 124.682 208.864 120.297 210.67 117.134C214.085 111.153 216.552 109.453 216.946 105.573C214.563 108.216 214.015 108.729 212.195 110.872C210.733 112.573 208.716 115.468 207.451 117.317C206.137 119.221 203.234 125.982 202.145 128.027C200.142 131.801 188.897 155.078 182.692 154.171C181.546 154.002 177.323 130.199 176.957 129.194C176.781 128.674 176.289 128.337 175.734 128.337C175.277 128.337 174.884 128.695 174.849 129.173C174.821 129.524 174.792 129.876 174.842 130.185C175.453 133.846 178.848 156.94 178.538 158.325C178.046 160.517 167.708 169.372 165.614 158.325C164.834 154.22 168.65 137.142 169.254 128.322C169.29 127.838 168.903 127.416 168.411 127.416C167.856 127.416 167.399 127.816 167.301 128.365C165.916 136.194 164.194 143.924 161.475 151.416C159.858 152.47 148.115 136.847 145.746 135.161C135.183 127.662 144.13 135.034 152.704 148.647C157.103 155.633 160.301 164.003 161.931 172.177C162.747 176.239 167.448 193.64 158.01 189.353C156.4 188.629 154.995 187.525 153.596 186.478C145.774 180.645 136.849 176.442 127.242 174.608C122.378 173.681 117.318 173.343 112.511 174.517C110.979 174.896 108.013 175.81 107.683 177.63C108.632 177.953 109.784 177.49 110.761 177.405C111.935 177.314 113.109 177.251 114.275 177.23C116.545 177.194 118.829 177.314 121.092 177.581C125.618 178.115 130.06 179.254 134.284 180.968C145.549 185.558 155.705 194.343 160.09 205.868C164.321 216.951 164.159 229.327 161.65 240.783C159.219 251.901 154.749 263.898 146.772 272.261C145.971 273.111 145.128 273.912 144.263 274.678C138.507 279.767 130.046 285.452 121.915 284.307C66.1552 265.163 26.0751 212.271 26.0751 150.018C26.061 71.6073 89.6143 8.061 168.004 8.061C246.393 8.061 309.946 71.6073 309.946 150.004C309.946 211.73 270.541 264.263 215.505 283.801Z" fill="white"/>
<path d="M172.354 100.464C171.215 105.046 172.501 109.551 173.598 113.986C174.026 115.771 174.561 117.549 174.799 119.369C174.821 119.488 174.828 119.608 174.828 119.748C174.835 119.755 174.835 119.769 174.828 119.777C174.835 119.917 174.835 120.072 174.828 120.219V120.24C174.722 120.796 174.23 121.203 173.647 121.203C173.176 121.203 172.761 120.936 172.565 120.528C172.529 120.402 172.494 120.268 172.459 120.142C169.486 109.832 167.905 99.0161 162.719 89.662C159.247 83.3931 154.215 77.9183 151.966 71.1294C149.626 64.0663 150.581 56.2302 153.245 49.2867C155.381 43.7487 158.537 38.6886 161.931 33.8393C163.077 32.1948 172.754 21.6811 172.754 20.8307C173.527 22.5174 174.385 24.176 175.277 25.7994C179.747 33.9588 185.236 41.4646 187.949 50.7696C191.371 62.471 190.437 74.7698 182.889 84.6511C179.065 89.662 173.935 94.1317 172.361 100.471L172.354 100.464Z" fill="white"/>
<path d="M286.649 144.43C285.601 144.184 279.754 151.69 278.932 152.534C272.15 159.519 264.785 168.698 255.438 172.205C250.089 174.215 244.137 174.18 238.557 172.922C234.199 171.938 230.039 170.244 226.026 168.283C225.035 167.798 214.641 164.144 214.711 164.755C214.704 164.657 213.966 165.423 213.783 162.907V160.138C213.783 154.143 220.2 149.828 224.831 147.213C230.531 143.995 236.961 142.174 243.427 141.345C254.615 139.918 266.282 140.952 277.414 142.477C280.26 142.87 284.048 142.983 286.634 144.43H286.649Z" fill="white"/>
<path d="M263.464 90.5194C263.513 90.5194 261.447 104.898 261.13 106.213C259.851 111.568 257.982 116.811 255.248 121.611C252.669 126.137 249.274 130.241 245.177 133.481C243.385 134.901 241.515 136.004 239.583 136.939C236.743 138.309 233.764 139.3 230.65 140.382C225.85 142.041 221.366 144.009 216.904 146.391C215.238 147.284 213.369 147.986 211.492 147.726C208.625 147.34 206.362 144.501 206.46 141.605C206.552 138.857 208.337 136.594 209.412 134.17C210.621 131.45 210.614 128.449 212.047 125.757C213.945 122.201 216.426 118.877 219.216 115.988C224.473 110.563 230.882 106.234 237.643 102.959C244.664 99.5572 252.05 96.8937 258.727 92.7964C260.146 91.9249 261.763 90.6951 263.471 90.5123L263.464 90.5194Z" fill="white"/>
<path d="M160.28 115.384C158.193 124.752 140.749 117.521 135.366 114C121.549 104.969 116.911 77.0117 120.6 61.4028C124.873 62.3305 135.401 69.8644 139.519 73.3994C150.891 83.1682 163.913 99.1145 160.28 115.384Z" fill="white"/>
<path d="M134.431 143.791C118.267 143.931 101.372 138.295 91.1113 125.799C86.6556 120.367 83.6476 113.873 81.8063 107.119C80.8505 103.598 76.929 89.9501 81.8344 89.9993C82.7129 90.0063 83.8795 90.4561 85.3976 91.4822C90.1976 94.7291 94.9344 97.5894 100.205 100.007C107.086 103.163 114.198 105.932 120.565 110.078C125.801 113.494 126.932 118.09 128.647 123.818C130.636 130.459 132.386 137.178 134.438 143.798L134.431 143.791Z" fill="white"/>
<path d="M100.269 176.274C97.7104 181.404 87.9206 178.755 83.8444 177.623C77.0976 175.754 70.7233 172.338 65.7335 167.384C61.833 163.504 58.8813 158.838 55.6766 154.403C54.0672 152.182 52.4016 150.018 50.5181 148.022C49.9418 147.41 46.1327 143.974 46.7793 143.074C47.7632 141.704 51.3825 142.582 54.1796 143.475C55.5712 143.924 56.7589 144.374 57.3211 144.557C62.2336 146.152 67.1321 147.825 71.9954 149.575C74.5535 150.488 77.1257 151.437 79.5222 152.73C84.6596 155.513 88.7499 159.758 93.065 163.631C96.1011 166.35 102.679 171.474 100.269 176.288V176.274Z" fill="white"/>
<path d="M140.834 199.972C140.834 200.127 136.849 202.572 136.42 202.924C135.113 203.978 133.714 204.828 132.281 205.721C129.21 207.632 125.857 209.059 122.378 210.057C115.336 212.067 107.845 212.327 100.613 211.35C93.7186 210.429 87.007 208.469 80.478 206.107C76.1699 204.554 71.0325 203.177 67.2164 200.604C66.9493 200.429 66.6752 200.225 66.5276 199.937C66.0216 198.981 67.3288 198.384 68.0035 198.11C75.2633 195.144 82.4107 192.874 89.1926 188.762C102.602 180.638 125.703 181.812 137.263 193.169C139.056 194.926 140.918 197.329 140.841 199.972H140.834Z" fill="white"/>
<path d="M224.845 76.2457C224.227 84.1451 221.992 91.9601 217.881 98.7561C211.204 109.769 199.236 117.83 186.36 118.244C178.51 118.49 180.007 109.642 181.16 104.111C182.312 98.5733 185.116 93.5695 188.588 89.156C196.291 79.345 206.938 72.9074 215.744 64.2701C217.262 62.7802 218.745 61.1357 219.3 59.0836C219.975 56.6168 220.741 55.8156 221.472 55.9913C226.349 57.1439 225.119 72.8653 224.852 76.2527L224.845 76.2457Z" fill="white"/>
<path d="M128.113 160.552C128.127 163.04 125.667 164.383 123.622 165.121C120.888 166.104 117.979 166.568 115.069 166.54C113.734 166.533 112.399 166.414 111.078 166.196C107.578 165.62 103.438 164.593 100.304 162.9C94.5409 159.793 89.2981 155.773 83.7179 152.386C78.3275 149.125 72.3257 146.996 66.2184 145.52C64.2576 145.049 62.2687 144.704 60.2939 144.29C59.2397 144.079 58.1574 143.882 57.1384 143.552C56.1615 143.243 56.1474 142.266 57.0751 142.118C58.0731 141.964 59.0781 141.809 60.0831 141.661C62.1141 141.366 64.1452 141.099 66.1833 140.867C70.2384 140.417 74.3146 140.122 78.3978 140.038C82.474 139.954 86.5572 140.087 90.6123 140.488C91.2378 140.551 91.8703 140.628 92.4958 140.699C102.349 141.907 112.075 144.986 120.136 150.896C122.976 152.976 128.085 156.476 128.113 160.545V160.552Z" fill="white"/>
<path d="M269.789 205.812C269.409 206.466 268.636 206.775 267.926 207.028C259.528 210.001 250.82 212.088 241.986 213.248C234.298 214.253 226.321 214.527 218.949 212.137C211.035 209.572 196.888 198.742 204.893 189.486C210.023 183.562 221.486 183.527 228.514 184.946L228.605 184.96C238.676 187.019 247.461 192.754 256.478 197.365C258.319 198.306 271.356 203.141 269.796 205.798L269.789 205.812Z" fill="white"/>
<path d="M28.4073 332.548V339.277H18.1122V364.604H10.1992V339.277H0V332.548H28.4073Z" fill="white"/>
<path d="M52.5297 364.604L45.0274 354.709H40.7286V364.604H32.8568V332.548H46.7661C55.6373 332.548 60.9902 336.666 60.9902 343.676C60.9902 348.672 58.2933 352.146 53.5359 353.75L61.6816 364.604H52.5297ZM40.7286 339.099V348.391H46.5333C50.6952 348.391 53.1252 347.11 53.1252 343.814C53.1252 340.518 50.702 339.099 46.5333 339.099H40.7286Z" fill="white"/>
<path d="M65.2137 350.954V332.548H73.1266V350.954C73.1266 355.853 75.6867 358.505 79.9855 358.505C84.2842 358.505 86.9812 355.853 86.9812 350.954V332.548H94.8052V350.954C94.8052 359.697 89.1305 365.145 79.9786 365.145C70.8267 365.145 65.2068 359.697 65.2068 350.954H65.2137Z" fill="white"/>
<path d="M130.277 355.901C130.277 361.301 125.656 364.604 118.065 364.604H101V332.548H117.654C124.698 332.548 128.949 335.522 128.949 340.655C128.949 344.04 127.025 346.787 124.013 347.98C127.854 349.124 130.277 352.057 130.277 355.901ZM108.735 338.777V345.602H116.142C119.667 345.602 121.221 344.41 121.221 342.169C121.221 339.784 119.578 338.777 116.142 338.777H108.735ZM117.011 358.375C120.803 358.375 122.453 357.183 122.453 354.853C122.453 352.331 120.577 351.283 116.874 351.283H108.735V358.375H117.018H117.011Z" fill="white"/>
<path d="M160.211 364.604L158.109 359.334H142.742L140.64 364.604H132.502L145.767 332.548H155.193L168.507 364.604H160.211ZM145.206 353.29H155.679L150.463 340.195L145.206 353.29Z" fill="white"/>
<path d="M172.395 364.604V332.548H180.171V357.916H196.688V364.604H172.395Z" fill="white"/>
<path d="M226.074 364.604L223.973 359.334H208.606L206.504 364.604H198.365L211.631 332.548H221.057L234.371 364.604H226.074ZM211.07 353.29H221.543L216.327 340.195L211.07 353.29Z" fill="white"/>
<path d="M238.259 364.604V332.548H245.535L261.498 352.098V332.548H269.37V364.604H262.326L246.137 344.732V364.604H238.259Z" fill="white"/>
<path d="M275.1 348.576C275.1 338.277 282.554 332 292.253 332C296.415 332 300.577 333.24 304.602 335.988L301.262 341.943C298.332 339.839 295.498 338.825 292.616 338.825C287.27 338.825 283.149 342.395 283.149 348.535C283.149 354.675 287.311 358.286 292.712 358.286C295.594 358.286 298.428 357.326 301.399 355.216L304.698 361.171C300.762 363.918 296.737 365.2 292.575 365.2C282.835 365.2 275.106 358.697 275.106 348.576H275.1Z" fill="white"/>
<path d="M317.196 358.101H336V364.604H309.468V332.548H335.541V339.051H317.196V345.095H333.433V351.276H317.196V358.101Z" fill="white"/>
<path d="M50.7887 392.068C50.7887 396.707 46.8901 399.591 40.5508 399.591H26.3662V371.116H40.0626C45.9138 371.116 49.5304 373.8 49.5304 378.274C49.5304 381.447 47.7015 384.008 44.7793 384.944C48.4372 385.756 50.7955 388.482 50.7955 392.061L50.7887 392.068ZM30.3885 374.736V383.402H39.4094C43.5967 383.402 45.5425 381.853 45.5425 379.052C45.5425 376.251 43.4317 374.743 39.2444 374.743H30.3885V374.736ZM39.9388 395.977C44.6143 395.977 46.7664 394.394 46.7664 391.545C46.7664 388.454 44.408 387.029 39.8563 387.029H30.3885V395.977H39.9388Z" fill="white"/>
<path d="M59.2386 385.357C59.2386 376.856 65.4954 370.71 74.1107 370.71C82.7259 370.71 89.024 376.815 89.024 385.357C89.024 393.899 82.7672 400.004 74.1107 400.004C65.4542 400.004 59.2386 393.899 59.2386 385.357ZM84.7542 385.357C84.7542 378.846 80.3676 374.372 74.1107 374.372C67.8538 374.372 63.4602 378.846 63.4602 385.357C63.4602 391.868 67.8882 396.301 74.1107 396.301C80.3332 396.301 84.7542 391.868 84.7542 385.357Z" fill="white"/>
<path d="M99.3379 371.123H110.882C120.309 371.123 126.366 376.698 126.366 385.322C126.366 393.947 120.309 399.605 110.882 399.605H99.3379V371.123ZM103.36 395.977H110.717C117.71 395.977 122.096 391.992 122.096 385.357C122.096 378.722 117.71 374.702 110.676 374.702H103.36V395.977Z" fill="white"/>
<path d="M158.854 371.116L147.028 389.872V399.598H142.964V389.755L131.179 371.123H135.607L145.034 386.375L154.419 371.123H158.847L158.854 371.116Z" fill="white"/>
<path d="M207.706 371.116L198.644 399.591H194.216L186.817 377.951L179.378 399.591H174.95L165.805 371.116H170.11L177.384 394.587L184.982 371.116H188.557L196.237 394.587L203.47 371.116H207.706Z" fill="white"/>
<path d="M214.024 385.357C214.024 376.856 220.281 370.71 228.896 370.71C237.512 370.71 243.81 376.815 243.81 385.357C243.81 393.899 237.553 400.004 228.896 400.004C220.24 400.004 214.024 393.899 214.024 385.357ZM239.547 385.357C239.547 378.846 235.16 374.372 228.903 374.372C222.646 374.372 218.253 378.846 218.253 385.357C218.253 391.868 222.681 396.301 228.903 396.301C235.126 396.301 239.547 391.868 239.547 385.357Z" fill="white"/>
<path d="M272.495 399.598L264.897 389.59H258.152V399.598H254.13V371.123H265.427C272.942 371.123 277.294 374.461 277.294 380.36C277.294 385.04 274.572 388.089 269.697 389.191L277.624 399.605H272.502L272.495 399.598ZM258.152 374.702V386.011H265.303C270.425 386.011 273.265 384.386 273.265 380.436C273.265 376.485 270.419 374.702 265.344 374.702H258.152Z" fill="white"/>
<path d="M310.634 399.598H305.395L291.293 385.398V399.598H287.23V371.123H291.293V384.958L304.907 371.123H310.153L296.374 385.075L310.634 399.598Z" fill="white"/>
</svg>
