<svg width="240" height="240" viewBox="0 0 240 240" fill="none" xmlns="http://www.w3.org/2000/svg">
<path d="M119.997 0C53.7325 0 0 53.7213 0 120.003C0 186.284 53.7325 240 119.997 240C186.262 240 240 186.267 240 120.003C240 53.7381 186.279 0 119.997 0ZM158.004 227.041C153.461 227.53 150.397 225.781 145.033 221.519C127.677 207.711 125.878 173.359 131.382 162.097C134.829 155.03 140.935 150.2 148.036 147.114C150.869 145.882 153.815 144.898 156.829 144.173C159.888 143.431 162.693 143.015 166.061 143.296C166.241 143.313 168.293 143.639 169.266 143.864C169.58 143.931 169.89 143.785 170.025 143.493L170.131 143.296C170.323 142.908 170.109 142.43 169.682 142.329C164.678 141.131 159.775 141.115 155.035 141.952C147.187 143.341 139.743 147.069 132.839 151.64C132.181 152.073 131.455 152.415 130.685 152.55C126.092 153.321 127.441 146.754 127.694 144.381C128.616 135.841 134.357 129.218 138.939 122.381C143.161 116.101 146.883 109.467 150.06 102.59C151.375 99.7456 152.691 96.2373 154.136 93.7072C156.868 88.9226 158.842 87.562 159.157 84.4585C157.251 86.5725 156.812 86.9829 155.356 88.6977C154.187 90.0583 152.573 92.3747 151.561 93.8534C150.51 95.377 148.188 100.786 147.316 102.422C145.714 105.441 136.718 124.062 131.753 123.337C130.837 123.202 127.458 104.159 127.166 103.355C127.025 102.939 126.632 102.669 126.187 102.669C125.822 102.669 125.507 102.956 125.479 103.338C125.456 103.619 125.434 103.9 125.473 104.148C125.962 107.077 128.678 125.552 128.431 126.66C128.037 128.414 119.767 135.498 118.091 126.66C117.467 123.376 120.52 109.714 121.004 102.658C121.032 102.27 120.722 101.933 120.329 101.933C119.885 101.933 119.519 102.253 119.441 102.692C118.333 108.955 116.956 115.14 114.78 121.133C113.487 121.976 104.092 109.478 102.197 108.128C93.7466 102.129 100.904 108.027 107.763 118.918C111.283 124.506 113.841 131.202 115.145 137.741C115.797 140.991 119.559 154.912 112.008 151.482C110.72 150.903 109.596 150.02 108.477 149.183C102.219 144.516 95.0791 141.154 87.3934 139.687C83.5027 138.944 79.4546 138.675 75.609 139.613C74.3833 139.917 72.0107 140.648 71.7464 142.104C72.5054 142.363 73.4275 141.992 74.209 141.924C75.1479 141.851 76.0869 141.801 77.0202 141.784C78.8362 141.756 80.6634 141.851 82.4738 142.065C86.0946 142.492 89.6479 143.403 93.0269 144.775C102.04 148.446 110.164 155.474 113.672 164.695C117.057 173.561 116.927 183.462 114.92 192.626C112.975 201.521 109.399 211.118 103.018 217.809C102.377 218.489 101.702 219.13 101.011 219.743C96.4059 223.813 89.6367 228.362 83.1316 227.445C38.5129 212.119 6.4488 169.805 6.4488 120.003C6.4488 57.2858 57.2914 6.4488 119.997 6.4488C182.703 6.4488 233.551 57.2858 233.551 120.003C233.551 169.384 202.027 211.411 157.998 227.041H158.004Z" fill="white"/>
<path d="M119.997 6.4488C57.2914 6.4488 6.4488 57.2858 6.4488 120.003C6.4488 169.805 38.5129 212.119 83.1204 227.434C89.6198 228.351 96.3891 223.796 100.999 219.732C101.697 219.124 102.366 218.478 103.007 217.797C109.388 211.107 112.969 201.504 114.909 192.615C116.916 183.445 117.045 173.55 113.661 164.683C110.147 155.468 102.023 148.435 93.0157 144.764C89.6423 143.392 86.0834 142.481 82.4626 142.054C80.6522 141.84 78.8249 141.744 77.0089 141.772C76.0756 141.784 75.1367 141.84 74.1978 141.913C73.4163 141.98 72.4942 142.346 71.7352 142.093C71.9994 140.637 74.3721 139.906 75.5977 139.602C79.4434 138.663 83.4915 138.933 87.3821 139.675C95.0734 141.143 102.208 144.505 108.466 149.171C109.59 150.015 110.715 150.892 111.997 151.471C119.547 154.901 115.786 140.974 115.134 137.73C113.83 131.197 111.271 124.501 107.752 118.906C100.893 108.016 93.7353 102.113 102.186 108.117C104.086 109.472 113.475 121.965 114.768 121.122C116.944 115.134 118.316 108.944 119.429 102.68C119.508 102.248 119.879 101.921 120.318 101.921C120.711 101.921 121.02 102.253 120.992 102.647C120.514 109.703 117.462 123.365 118.08 126.648C119.755 135.487 128.026 128.403 128.419 126.648C128.667 125.541 125.951 107.066 125.462 104.137C125.423 103.889 125.451 103.608 125.468 103.327C125.496 102.95 125.811 102.658 126.176 102.658C126.615 102.658 127.014 102.928 127.154 103.344C127.441 104.148 130.826 123.196 131.742 123.326C136.701 124.051 145.702 105.43 147.305 102.411C148.176 100.774 150.498 95.3658 151.55 93.8422C152.562 92.3635 154.181 90.0471 155.345 88.6865C156.807 86.9717 157.239 86.5612 159.145 84.4473C158.831 87.5508 156.857 88.9058 154.125 93.696C152.68 96.2316 151.364 99.74 150.048 102.579C146.872 109.455 143.15 116.084 138.928 122.37C134.34 129.207 128.605 135.83 127.683 144.37C127.43 146.743 126.081 153.309 130.674 152.539C131.444 152.404 132.17 152.061 132.827 151.628C139.732 147.057 147.175 143.33 155.024 141.941C159.764 141.109 164.667 141.126 169.67 142.318C170.098 142.419 170.311 142.897 170.12 143.285L170.013 143.482C169.873 143.768 169.564 143.915 169.254 143.853C168.282 143.628 166.23 143.302 166.05 143.285C162.682 143.004 159.876 143.425 156.818 144.162C153.804 144.887 150.858 145.871 148.024 147.102C140.923 150.189 134.818 155.019 131.371 162.086C125.873 173.347 127.672 207.7 145.022 221.508C150.386 225.77 153.45 227.518 157.993 227.029C202.021 211.399 233.546 169.372 233.546 119.992C233.546 57.2746 182.709 6.43756 119.992 6.43756L119.997 6.4488ZM30.1413 123.522C28.8538 121.746 27.5213 120.014 26.0145 118.417C25.5534 117.928 22.5062 115.179 23.0234 114.459C23.8105 113.363 26.706 114.066 28.9437 114.78C30.0569 115.14 31.0071 115.499 31.4569 115.646C35.3869 116.922 39.3056 118.26 43.1963 119.66C45.2428 120.391 47.3006 121.15 49.2178 122.184C53.3277 124.411 56.5999 127.807 60.052 130.904C62.4808 133.08 67.7433 137.179 65.8149 141.03C63.7684 145.135 55.9365 143.015 52.6755 142.11C47.2781 140.614 42.1786 137.882 38.1868 133.918C35.0664 130.815 32.705 127.081 30.1413 123.534V123.522ZM95.3995 154.529C96.8332 155.935 98.3231 157.858 98.2613 159.972C98.2613 160.096 95.0734 162.052 94.7305 162.333C93.6847 163.177 92.5659 163.857 91.4189 164.571C88.962 166.1 86.2801 167.242 83.4971 168.04C77.8635 169.648 71.8701 169.856 66.0848 169.074C60.5693 168.338 55.1999 166.769 49.9768 164.88C46.5303 163.638 42.4204 162.536 39.3675 160.478C39.1538 160.337 38.9346 160.174 38.8165 159.944C38.4117 159.179 39.4574 158.701 39.9972 158.482C45.805 156.109 51.5229 154.293 56.9485 151.004C67.6759 144.505 86.1564 145.444 95.4052 154.529H95.3995ZM84.4979 132.102C82.3108 132.889 79.9831 133.26 77.6555 133.238C76.5873 133.232 75.519 133.137 74.462 132.962C71.6621 132.501 68.3506 131.68 65.843 130.325C61.2327 127.84 57.0384 124.624 52.5743 121.914C48.262 119.306 43.4605 117.602 38.5747 116.421C37.0061 116.045 35.415 115.769 33.8351 115.437C32.9918 115.269 32.1259 115.111 31.3107 114.847C30.5292 114.6 30.518 113.818 31.2601 113.7C32.0585 113.576 32.8625 113.453 33.6665 113.335C35.2913 113.099 36.9162 112.885 38.5466 112.699C41.7907 112.34 45.0517 112.103 48.3182 112.036C51.5792 111.969 54.8457 112.075 58.0898 112.396C58.5902 112.446 59.0962 112.508 59.5966 112.564C67.4791 113.532 75.2604 115.994 81.7092 120.722C83.9806 122.387 88.068 125.187 88.0905 128.442C88.1018 130.432 86.134 131.506 84.4979 132.096V132.102ZM58.4834 100.64C54.9188 96.2935 52.5125 91.0985 51.0394 85.6954C50.2748 82.8786 47.1375 71.9601 51.0619 71.9994C51.7647 72.0051 52.698 72.3649 53.9124 73.1857C57.7525 75.7833 61.5419 78.0715 65.7587 80.0056C71.2629 82.53 76.9527 84.7452 82.0465 88.0624C86.2352 90.7949 87.1403 94.4719 88.5122 99.054C90.1033 104.367 91.5033 109.742 93.145 115.038C80.2136 115.151 66.6976 110.642 58.489 100.645L58.4834 100.64ZM113.824 92.3073C112.154 99.8018 98.1995 94.0165 93.8928 91.1997C82.8393 83.975 79.1285 61.6094 82.0803 49.1222C85.4986 49.8644 93.9209 55.8915 97.2156 58.7195C106.312 66.5345 116.731 79.2916 113.824 92.3073ZM123.483 80.3711C122.572 84.0368 123.601 87.6407 124.478 91.1884C124.821 92.6165 125.248 94.0389 125.44 95.4951C125.456 95.5907 125.462 95.6863 125.462 95.7987C125.468 95.8043 125.468 95.8156 125.462 95.8212C125.468 95.9337 125.468 96.0573 125.462 96.1754V96.1923C125.378 96.6364 124.984 96.9625 124.518 96.9625C124.141 96.9625 123.809 96.7489 123.652 96.4228C123.624 96.3216 123.595 96.2148 123.567 96.1136C121.189 87.8656 119.924 79.2129 115.775 71.7296C112.997 66.7145 108.972 62.3347 107.173 56.9035C105.3 51.2531 106.065 44.9842 108.196 39.4293C109.905 34.9989 112.43 30.9509 115.145 27.0715C116.062 25.7559 123.804 17.3449 123.804 16.6646C124.422 18.0139 125.108 19.3408 125.822 20.6395C129.398 27.1671 133.789 33.1717 135.959 40.6156C138.697 49.9768 137.949 59.8159 131.911 67.7209C128.852 71.7296 124.748 75.3054 123.489 80.3767L123.483 80.3711ZM134.683 94.5955C128.403 94.7923 129.6 87.7138 130.522 83.2891C131.444 78.8587 133.688 74.8556 136.465 71.3248C142.627 63.476 151.145 58.326 158.19 51.4161C159.404 50.2242 160.59 48.9086 161.035 47.2669C161.574 45.2934 162.187 44.6525 162.772 44.793C166.674 45.7151 165.69 58.2922 165.476 61.0022C164.981 67.3217 163.193 73.5737 159.904 79.0105C154.563 87.8206 144.988 94.2694 134.688 94.6012L134.683 94.5955ZM154.782 118.187C152.489 117.878 150.678 115.606 150.757 113.29C150.83 111.091 152.258 109.281 153.118 107.341C154.085 105.166 154.08 102.765 155.227 100.611C156.745 97.7665 158.729 95.1072 160.961 92.7964C165.167 88.456 170.294 84.9926 175.703 82.3726C181.32 79.6514 187.229 77.5206 192.57 74.2427C193.706 73.5456 194.999 72.5617 196.365 72.4155C196.405 72.4155 194.752 83.9188 194.499 84.9701C193.475 89.2543 191.98 93.4486 189.793 97.2886C187.729 100.909 185.014 104.193 181.736 106.785C180.302 107.92 178.807 108.803 177.261 109.551C174.989 110.647 172.605 111.44 170.115 112.306C166.275 113.633 162.687 115.207 159.117 117.113C157.785 117.827 156.289 118.389 154.788 118.181L154.782 118.187ZM201.431 164.65C201.127 165.173 200.509 165.42 199.941 165.622C193.222 168.001 186.256 169.67 179.189 170.598C173.038 171.402 166.657 171.621 160.759 169.71C154.428 167.658 143.111 158.994 149.514 151.589C153.619 146.849 162.789 146.821 168.411 147.957L168.484 147.968C176.541 149.616 183.569 154.203 190.782 157.892C192.255 158.645 202.685 162.513 201.437 164.638L201.431 164.65ZM208.746 122.027C203.32 127.615 197.428 134.958 189.95 137.764C185.672 139.372 180.909 139.344 176.445 138.337C172.959 137.55 169.631 136.195 166.421 134.626C165.628 134.239 157.313 131.315 157.369 131.804C157.363 131.725 156.773 132.338 156.627 130.325V128.11C156.627 123.314 161.76 119.862 165.465 117.771C170.025 115.196 175.169 113.74 180.342 113.076C189.292 111.935 198.625 112.761 207.531 113.981C209.808 114.296 212.839 114.386 214.908 115.544C214.07 115.348 209.392 121.352 208.734 122.027H208.746Z" fill="#33346D"/>
<path d="M123.483 80.3711C122.572 84.0368 123.601 87.6407 124.478 91.1884C124.821 92.6165 125.248 94.0389 125.44 95.4951C125.456 95.5907 125.462 95.6863 125.462 95.7987C125.468 95.8043 125.468 95.8156 125.462 95.8212C125.468 95.9337 125.468 96.0573 125.462 96.1754V96.1923C125.378 96.6364 124.984 96.9625 124.518 96.9625C124.141 96.9625 123.809 96.7489 123.652 96.4228C123.624 96.3216 123.595 96.2148 123.567 96.1136C121.189 87.8656 119.924 79.2129 115.775 71.7296C112.997 66.7145 108.972 62.3347 107.173 56.9035C105.3 51.2531 106.065 44.9842 108.196 39.4293C109.905 34.9989 112.43 30.9509 115.145 27.0715C116.062 25.7559 123.804 17.3449 123.804 16.6646C124.422 18.0139 125.108 19.3408 125.822 20.6395C129.398 27.1671 133.789 33.1717 135.959 40.6156C138.697 49.9768 137.949 59.8159 131.911 67.7209C128.852 71.7296 124.748 75.3054 123.489 80.3767L123.483 80.3711Z" fill="#8DC757"/>
<path d="M214.919 115.544C214.081 115.348 209.403 121.352 208.746 122.027C203.32 127.615 197.428 134.958 189.95 137.764C185.672 139.372 180.909 139.344 176.445 138.337C172.959 137.55 169.631 136.195 166.421 134.626C165.628 134.239 157.313 131.315 157.369 131.804C157.363 131.725 156.773 132.338 156.627 130.325V128.11C156.627 123.314 161.76 119.862 165.465 117.771C170.025 115.196 175.169 113.74 180.342 113.076C189.292 111.935 198.625 112.761 207.531 113.981C209.808 114.296 212.839 114.386 214.908 115.544H214.919Z" fill="#8DC757"/>
<path d="M196.365 72.4155C196.405 72.4155 194.752 83.9188 194.499 84.9701C193.475 89.2543 191.98 93.4486 189.793 97.2886C187.729 100.909 185.014 104.193 181.736 106.785C180.302 107.92 178.807 108.803 177.261 109.551C174.989 110.647 172.605 111.44 170.115 112.306C166.275 113.633 162.687 115.207 159.117 117.113C157.785 117.827 156.289 118.389 154.788 118.181C152.494 117.872 150.684 115.601 150.763 113.284C150.836 111.086 152.264 109.275 153.124 107.336C154.091 105.16 154.085 102.759 155.232 100.606C156.75 97.7609 158.735 95.1016 160.967 92.7908C165.173 88.4503 170.3 84.987 175.709 82.367C181.325 79.6458 187.235 77.5149 192.576 74.2371C193.711 73.54 195.005 72.556 196.371 72.4099L196.365 72.4155Z" fill="#8DC757"/>
<path d="M113.824 92.3073C112.154 99.8018 98.1995 94.0165 93.8928 91.1997C82.8393 83.975 79.1285 61.6094 82.0803 49.1222C85.4986 49.8644 93.9209 55.8915 97.2156 58.7195C106.312 66.5345 116.731 79.2916 113.824 92.3073Z" fill="#559B61"/>
<path d="M93.145 115.033C80.2136 115.145 66.6976 110.636 58.489 100.64C54.9245 96.2935 52.5181 91.0985 51.0451 85.6954C50.2804 82.8786 47.1432 71.9601 51.0675 71.9994C51.7703 72.0051 52.7036 72.3649 53.9181 73.1857C57.7581 75.7833 61.5475 78.0715 65.7643 80.0056C71.2685 82.53 76.9583 84.7452 82.0522 88.0624C86.2408 90.7949 87.146 94.4719 88.5178 99.054C90.1089 104.367 91.5089 109.742 93.1506 115.038L93.145 115.033Z" fill="#559B61"/>
<path d="M65.8093 141.019C63.7627 145.123 55.9308 143.004 52.6699 142.099C47.2725 140.603 42.173 137.871 38.1812 133.907C35.0608 130.803 32.6994 127.07 30.1356 123.522C28.8481 121.746 27.5156 120.014 26.0089 118.417C25.5478 117.928 22.5005 115.179 23.0178 114.459C23.8049 113.363 26.7004 114.066 28.9381 114.78C30.0513 115.14 31.0015 115.499 31.4513 115.646C35.3813 116.922 39.3 118.26 43.1907 119.66C45.2372 120.391 47.295 121.15 49.2122 122.184C53.3221 124.411 56.5943 127.807 60.0464 130.905C62.4752 133.08 67.7377 137.179 65.8093 141.03V141.019Z" fill="#559B61"/>
<path d="M98.2613 159.978C98.2613 160.101 95.0734 162.058 94.7305 162.339C93.6847 163.182 92.5659 163.863 91.4189 164.577C88.962 166.106 86.2801 167.247 83.4971 168.046C77.8635 169.654 71.8701 169.862 66.0848 169.08C60.5693 168.344 55.1999 166.775 49.9768 164.886C46.5303 163.643 42.4204 162.541 39.3675 160.484C39.1538 160.343 38.9346 160.18 38.8165 159.949C38.4117 159.185 39.4574 158.707 39.9972 158.488C45.805 156.115 51.5229 154.299 56.9485 151.01C67.6759 144.511 86.1564 145.449 95.4052 154.535C96.8389 155.941 98.3288 157.864 98.2669 159.978H98.2613Z" fill="#559B61"/>
<path d="M165.476 60.9966C164.981 67.316 163.193 73.5681 159.904 79.0049C154.563 87.815 144.988 94.2638 134.688 94.5955C128.408 94.7923 129.606 87.7138 130.528 83.2891C131.45 78.8587 133.693 74.8556 136.471 71.3248C142.633 63.476 151.15 58.326 158.195 51.4161C159.41 50.2242 160.596 48.9086 161.04 47.2669C161.58 45.2934 162.193 44.6525 162.777 44.793C166.679 45.7151 165.695 58.2922 165.482 61.0022L165.476 60.9966Z" fill="#559B61"/>
<path d="M88.0905 128.442C88.1018 130.432 86.134 131.506 84.4979 132.096C82.3108 132.884 79.9831 133.255 77.6555 133.232C76.5873 133.227 75.519 133.131 74.462 132.957C71.6621 132.496 68.3506 131.675 65.843 130.32C61.2327 127.835 57.0384 124.619 52.5743 121.909C48.262 119.3 43.4605 117.596 38.5747 116.416C37.0061 116.039 35.415 115.764 33.8351 115.432C32.9918 115.263 32.1259 115.106 31.3107 114.842C30.5292 114.594 30.518 113.813 31.2601 113.695C32.0585 113.571 32.8625 113.447 33.6665 113.329C35.2913 113.093 36.9162 112.879 38.5466 112.694C41.7907 112.334 45.0517 112.098 48.3182 112.03C51.5792 111.963 54.8457 112.07 58.0898 112.39C58.5902 112.441 59.0962 112.503 59.5966 112.559C67.4791 113.526 75.2604 115.988 81.7092 120.717C83.9806 122.381 88.068 125.181 88.0905 128.436V128.442Z" fill="#559B61"/>
<path d="M201.431 164.65C201.127 165.173 200.509 165.42 199.941 165.622C193.222 168.001 186.256 169.67 179.189 170.598C173.038 171.402 166.657 171.621 160.759 169.71C154.428 167.658 143.111 158.994 149.514 151.589C153.619 146.849 162.789 146.821 168.411 147.957L168.484 147.968C176.541 149.616 183.569 154.203 190.782 157.892C192.255 158.645 202.685 162.513 201.437 164.638L201.431 164.65Z" fill="#559B61"/>
</svg>
