<svg width="460" height="94" viewBox="0 0 460 94" fill="none" xmlns="http://www.w3.org/2000/svg">
<path d="M38.8909 0.75V9.95836H24.7965V44.6163H13.9632V9.95836H0V0.75H38.8909Z" fill="#33346D"/>
<path d="M71.9156 44.6163L61.6446 31.0757H55.7594V44.6163H44.9824V0.75H64.0249C76.1701 0.75 83.4985 6.38565 83.4985 15.9785C83.4985 22.8144 79.8062 27.5686 73.2931 29.7629L84.445 44.6163H71.9156ZM55.7594 9.71455V22.4299H63.7063C69.4041 22.4299 72.7309 20.6764 72.7309 16.166C72.7309 11.6556 69.4134 9.71455 63.7063 9.71455H55.7594Z" fill="#33346D"/>
<path d="M89.2809 25.9468V0.759766H100.114V25.9468C100.114 32.6514 103.619 36.2804 109.504 36.2804C115.389 36.2804 119.082 32.6514 119.082 25.9468V0.759766H129.793V25.9468C129.793 37.912 122.024 45.3668 109.495 45.3668C96.9653 45.3668 89.2715 37.912 89.2715 25.9468H89.2809Z" fill="#33346D"/>
<path d="M178.355 32.7073C178.355 40.0965 172.029 44.6163 161.636 44.6163H138.273V0.75H161.074C170.717 0.75 176.536 4.81967 176.536 11.8431C176.536 16.4755 173.903 20.2357 169.78 21.8673C175.037 23.4333 178.355 27.4467 178.355 32.7073ZM148.863 9.27382V18.6134H159.003C163.829 18.6134 165.956 16.9818 165.956 13.9155C165.956 10.6523 163.707 9.27382 159.003 9.27382H148.863ZM160.193 36.0924C165.385 36.0924 167.643 34.4608 167.643 31.2726C167.643 27.8218 165.075 26.3871 160.006 26.3871H148.863V36.0924H160.202H160.193Z" fill="#33346D"/>
<path d="M219.335 44.6163L216.458 37.4052H195.42L192.543 44.6163H181.4L199.562 0.75H212.466L230.693 44.6163H219.335ZM198.794 29.1346H213.132L205.991 11.2149L198.794 29.1346Z" fill="#33346D"/>
<path d="M236.017 44.6163V0.75H246.662V35.4642H269.275V44.6163H236.017Z" fill="#33346D"/>
<path d="M309.506 44.6163L306.629 37.4052H285.591L282.714 44.6163H271.571L289.733 0.75H302.637L320.864 44.6163H309.506ZM288.964 29.1346H303.303L296.162 11.2149L288.964 29.1346Z" fill="#33346D"/>
<path d="M326.188 44.6163V0.75H336.149L358.003 27.503V0.75H368.78V44.6163H359.137L336.974 17.4226V44.6163H326.188Z" fill="#33346D"/>
<path d="M376.623 22.6833C376.623 8.58946 386.828 0 400.108 0C405.805 0 411.503 1.69727 417.013 5.4575L412.44 13.6062C408.429 10.7275 404.55 9.33965 400.604 9.33965C393.285 9.33965 387.644 14.2251 387.644 22.627C387.644 31.029 393.341 35.9707 400.735 35.9707C404.681 35.9707 408.56 34.6579 412.628 31.7698L417.145 39.9185C411.756 43.6787 406.246 45.4323 400.548 45.4323C387.213 45.4323 376.632 36.5333 376.632 22.6833H376.623Z" fill="#33346D"/>
<path d="M434.257 35.7174H460V44.6163H423.677V0.75H459.372V9.6489H434.257V17.9195H456.486V26.3777H434.257V35.7174Z" fill="#33346D"/>
<path d="M70.0369 83.1895C70.0369 89.5097 64.7234 93.4387 56.083 93.4387H36.75V54.6455H55.4176C63.3926 54.6455 68.3219 58.3026 68.3219 64.3977C68.3219 68.7206 65.8292 72.2089 61.8464 73.4842C66.8319 74.5907 70.0462 78.304 70.0462 83.1801L70.0369 83.1895ZM42.2322 59.5779V71.3837H54.5274C60.2345 71.3837 62.8866 69.2738 62.8866 65.4573C62.8866 61.6408 60.0096 59.5873 54.3025 59.5873H42.2322V59.5779ZM55.249 88.5157C61.6215 88.5157 64.5547 86.359 64.5547 82.4769C64.5547 78.2665 61.3403 76.3255 55.1365 76.3255H42.2322V88.5157H55.249Z" fill="#33346D"/>
<path d="M81.5537 74.0468C81.5537 62.4661 90.0816 54.0923 101.824 54.0923C113.566 54.0923 122.15 62.4098 122.15 74.0468C122.15 85.6839 113.622 94.0014 101.824 94.0014C90.0254 94.0014 81.5537 85.6839 81.5537 74.0468ZM116.331 74.0468C116.331 65.1761 110.352 59.0809 101.824 59.0809C93.296 59.0809 87.3077 65.1761 87.3077 74.0468C87.3077 82.9176 93.3428 88.9565 101.824 88.9565C110.305 88.9565 116.331 82.9176 116.331 74.0468Z" fill="#33346D"/>
<path d="M136.207 54.6548H151.941C164.79 54.6548 173.046 62.2503 173.046 73.9998C173.046 85.7494 164.79 93.4574 151.941 93.4574H136.207V54.6548ZM141.689 88.5156H151.717C161.247 88.5156 167.226 83.0863 167.226 74.0467C167.226 65.0071 161.247 59.5309 151.66 59.5309H141.689V88.5156Z" fill="#33346D"/>
<path d="M217.325 54.6455L201.206 80.1982V93.4481H195.668V80.0388L179.605 54.6549H185.641L198.489 75.4346L211.28 54.6549H217.316L217.325 54.6455Z" fill="#33346D"/>
<path d="M283.909 54.6455L271.557 93.4387H265.522L255.439 63.957L245.299 93.4387H239.264L226.8 54.6455H232.666L242.581 86.6215L252.936 54.6455H257.809L268.277 86.6215L278.136 54.6455H283.909Z" fill="#33346D"/>
<path d="M292.521 74.0468C292.521 62.4661 301.048 54.0923 312.791 54.0923C324.533 54.0923 333.117 62.4098 333.117 74.0468C333.117 85.6839 324.589 94.0014 312.791 94.0014C300.992 94.0014 292.521 85.6839 292.521 74.0468ZM327.307 74.0468C327.307 65.1761 321.328 59.0809 312.8 59.0809C304.272 59.0809 298.284 65.1761 298.284 74.0468C298.284 82.9176 304.319 88.9565 312.8 88.9565C321.281 88.9565 327.307 82.9176 327.307 74.0468Z" fill="#33346D"/>
<path d="M372.214 93.448L361.859 79.8136H352.666V93.448H347.184V54.6548H362.581C372.823 54.6548 378.756 59.2027 378.756 67.2389C378.756 73.6153 375.044 77.7694 368.4 79.2698L379.205 93.4574H372.224L372.214 93.448ZM352.666 59.5309V74.9375H362.412C369.394 74.9375 373.264 72.7245 373.264 67.342C373.264 61.9595 369.384 59.5309 362.468 59.5309H352.666Z" fill="#33346D"/>
<path d="M424.197 93.448H417.056L397.835 74.103V93.448H392.297V54.6548H397.835V73.5028L416.391 54.6548H423.541L404.761 73.6622L424.197 93.448Z" fill="#33346D"/>
</svg>
