<svg width="240" height="240" viewBox="0 0 240 240" fill="none" xmlns="http://www.w3.org/2000/svg">
<path d="M119.876 0C53.6755 0 0 53.7213 0 120.003C0 186.284 53.6755 240 119.87 240C186.064 240 239.746 186.267 239.746 120.003C239.746 53.7381 186.081 0 119.876 0ZM157.837 227.041C153.299 227.53 150.238 225.781 144.88 221.519C127.542 207.711 125.745 173.359 131.243 162.097C134.686 155.03 140.785 150.2 147.879 147.114C150.709 145.882 153.652 144.898 156.663 144.173C159.718 143.431 162.521 143.015 165.885 143.296C166.065 143.313 168.114 143.639 169.086 143.864C169.401 143.931 169.71 143.785 169.844 143.493L169.951 143.296C170.142 142.908 169.929 142.43 169.502 142.329C164.503 141.131 159.606 141.115 154.871 141.952C147.031 143.341 139.595 147.069 132.698 151.64C132.041 152.073 131.316 152.415 130.547 152.55C125.958 153.321 127.306 146.754 127.559 144.381C128.48 135.841 134.214 129.218 138.791 122.381C143.009 116.101 146.727 109.467 149.901 102.59C151.215 99.7456 152.529 96.2373 153.973 93.7072C156.702 88.9226 158.673 87.562 158.988 84.4585C157.084 86.5725 156.646 86.9829 155.191 88.6977C154.023 90.0583 152.411 92.3747 151.4 93.8534C150.35 95.3771 148.03 100.786 147.16 102.422C145.559 105.441 136.573 124.062 131.614 123.337C130.698 123.202 127.323 104.159 127.031 103.355C126.89 102.939 126.497 102.669 126.054 102.669C125.689 102.669 125.374 102.956 125.346 103.338C125.323 103.619 125.301 103.9 125.34 104.148C125.829 107.077 128.542 125.552 128.295 126.66C127.901 128.414 119.64 135.498 117.966 126.66C117.343 123.376 120.392 109.714 120.875 102.658C120.903 102.27 120.594 101.933 120.201 101.933C119.758 101.933 119.393 102.253 119.314 102.692C118.208 108.955 116.832 115.14 114.658 121.133C113.366 121.976 103.981 109.478 102.089 108.128C93.6472 102.129 100.797 108.027 107.649 118.918C111.165 124.506 113.72 131.202 115.023 137.741C115.675 140.991 119.432 154.912 111.889 151.482C110.603 150.903 109.48 150.02 108.362 149.183C102.111 144.516 94.9783 141.154 87.3007 139.687C83.4142 138.944 79.3704 138.675 75.5288 139.613C74.3044 139.917 71.9343 140.648 71.6704 142.104C72.4286 142.363 73.3497 141.992 74.1303 141.924C75.0683 141.851 76.0062 141.801 76.9385 141.784C78.7526 141.756 80.5779 141.851 82.3864 142.065C86.0033 142.492 89.5529 143.403 92.9283 144.775C101.931 148.446 110.047 155.474 113.552 164.695C116.933 173.561 116.803 183.462 114.798 192.626C112.855 201.521 109.283 211.118 102.909 217.809C102.268 218.489 101.594 219.13 100.904 219.743C96.3037 223.813 89.5416 228.362 83.0435 227.445C38.4833 212.13 6.4532 169.817 6.4532 120.014C6.44196 57.2858 57.2307 6.4488 119.876 6.4488C182.52 6.4488 233.309 57.2858 233.309 120.003C233.309 169.384 201.818 211.411 157.837 227.041Z" fill="white"/>
<path d="M123.352 80.3711C122.442 84.0368 123.47 87.6407 124.346 91.1884C124.689 92.6165 125.116 94.0389 125.307 95.4951C125.323 95.5907 125.329 95.6863 125.329 95.7987C125.335 95.8043 125.335 95.8156 125.329 95.8212C125.335 95.9337 125.335 96.0574 125.329 96.1754V96.1923C125.245 96.6364 124.852 96.9625 124.386 96.9625C124.009 96.9625 123.678 96.7489 123.521 96.4228C123.493 96.3216 123.464 96.2148 123.436 96.1136C121.061 87.8656 119.797 79.2129 115.652 71.7296C112.878 66.7145 108.856 62.3347 107.059 56.9035C105.189 51.2531 105.953 44.9842 108.081 39.4293C109.789 34.9989 112.31 30.9509 115.023 27.0715C115.939 25.7559 123.672 17.3449 123.672 16.6646C124.29 18.0139 124.975 19.3408 125.689 20.6395C129.261 27.1671 133.647 33.1717 135.815 40.6156C138.55 49.9768 137.803 59.8159 131.771 67.7209C128.716 71.7296 124.616 75.3054 123.358 80.3767L123.352 80.3711Z" fill="white"/>
<path d="M214.691 115.544C213.854 115.348 209.181 121.352 208.524 122.027C203.104 127.615 197.218 134.958 189.749 137.764C185.475 139.372 180.718 139.344 176.258 138.337C172.776 137.55 169.451 136.195 166.244 134.626C165.452 134.239 157.146 131.315 157.202 131.804C157.196 131.725 156.607 132.338 156.461 130.325V128.11C156.461 123.314 161.588 119.862 165.289 117.771C169.844 115.196 174.983 113.74 180.15 113.076C189.092 111.935 198.415 112.761 207.311 113.981C209.586 114.296 212.613 114.386 214.68 115.544H214.691Z" fill="white"/>
<path d="M196.163 72.4155C196.202 72.4155 194.551 83.9188 194.298 84.9701C193.276 89.2543 191.782 93.4486 189.597 97.2886C187.536 100.909 184.823 104.193 181.549 106.785C180.117 107.92 178.623 108.803 177.078 109.551C174.809 110.647 172.428 111.44 169.94 112.306C166.104 113.633 162.521 115.207 158.954 117.113C157.623 117.827 156.129 118.389 154.63 118.181C152.338 117.872 150.53 115.601 150.608 113.284C150.681 111.086 152.108 109.275 152.967 107.336C153.933 105.16 153.928 102.759 155.073 100.606C156.59 97.7609 158.572 95.1016 160.802 92.7908C165.003 88.4503 170.125 84.987 175.528 82.367C181.139 79.6458 187.042 77.5149 192.377 74.2371C193.512 73.54 194.803 72.556 196.168 72.4099L196.163 72.4155Z" fill="white"/>
<path d="M113.703 92.3073C112.035 99.8018 98.0953 94.0165 93.7932 91.1997C82.7515 83.975 79.0446 61.6094 81.9932 49.1222C85.408 49.8644 93.8213 55.8915 97.1125 58.7195C106.2 66.5346 116.607 79.2916 113.703 92.3073Z" fill="white"/>
<path d="M93.0462 115.033C80.1286 115.145 66.6269 110.636 58.427 100.64C54.8662 96.2935 52.4624 91.0985 50.9909 85.6954C50.2271 82.8786 47.0932 71.9601 51.0134 71.9994C51.7154 72.0051 52.6478 72.3649 53.8609 73.1858C57.6969 75.7833 61.4823 78.0716 65.6946 80.0056C71.193 82.5301 76.8767 84.7452 81.9652 88.0624C86.1493 90.7949 87.0536 94.4719 88.424 99.054C90.0134 104.367 91.4119 109.742 93.0518 115.038L93.0462 115.033Z" fill="white"/>
<path d="M65.7451 141.019C63.7008 145.123 55.8772 143.004 52.6197 142.099C47.228 140.603 42.1339 137.871 38.1463 133.907C35.0292 130.803 32.6704 127.07 30.1093 123.522C28.8232 121.746 27.4921 120.014 25.9869 118.417C25.5264 117.928 22.4823 115.179 22.999 114.459C23.7853 113.363 26.6777 114.066 28.913 114.78C30.0251 115.14 30.9742 115.499 31.4235 115.646C35.3494 116.922 39.264 118.26 43.1505 119.66C45.1948 120.391 47.2504 121.15 49.1656 122.184C53.2712 124.411 56.5399 127.807 59.9883 130.905C62.4146 133.08 67.6715 137.179 65.7451 141.03V141.019Z" fill="white"/>
<path d="M98.1627 159.978C98.1627 160.101 94.9783 162.058 94.6357 162.339C93.591 163.182 92.4734 163.863 91.3276 164.577C88.8733 166.106 86.1943 167.247 83.4142 168.046C77.7866 169.654 71.7995 169.862 66.0203 169.08C60.5107 168.344 55.147 166.775 49.9294 164.886C46.4866 163.643 42.381 162.541 39.3314 160.484C39.1179 160.343 38.8989 160.18 38.781 159.949C38.3766 159.185 39.4212 158.707 39.9604 158.488C45.7621 156.115 51.4739 154.299 56.8937 151.01C67.6097 144.511 86.0707 145.449 95.3096 154.535C96.7418 155.941 98.2301 157.864 98.1684 159.978H98.1627Z" fill="white"/>
<path d="M165.301 60.9966C164.806 67.316 163.02 73.5681 159.735 79.0049C154.399 87.815 144.835 94.2638 134.546 94.5956C128.272 94.7923 129.468 87.7138 130.389 83.2891C131.31 78.8587 133.551 74.8556 136.326 71.3248C142.481 63.476 150.99 58.326 158.028 51.4161C159.241 50.2242 160.426 48.9086 160.869 47.2668C161.409 45.2934 162.021 44.6525 162.605 44.793C166.503 45.7151 165.52 58.2922 165.306 61.0022L165.301 60.9966Z" fill="white"/>
<path d="M87.9971 128.442C88.0084 130.432 86.0426 131.506 84.4083 132.096C82.2235 132.884 79.8983 133.255 77.5732 133.232C76.5061 133.227 75.4389 133.131 74.3831 132.957C71.5861 132.496 68.2781 131.675 65.7732 130.32C61.1678 127.835 56.978 124.619 52.5186 121.909C48.2108 119.3 43.4145 117.596 38.5338 116.416C36.9669 116.039 35.3775 115.764 33.7993 115.432C32.9568 115.263 32.0919 115.106 31.2775 114.842C30.4968 114.594 30.4856 113.813 31.227 113.695C32.0245 113.571 32.8276 113.447 33.6308 113.329C35.2539 113.093 36.877 112.879 38.5058 112.694C41.7464 112.334 45.0039 112.098 48.267 112.03C51.5245 111.963 54.7876 112.07 58.0282 112.39C58.5281 112.441 59.0336 112.503 59.5334 112.559C67.4076 113.526 75.1806 115.988 81.6226 120.717C83.8916 122.381 87.9747 125.181 87.9971 128.436V128.442Z" fill="white"/>
<path d="M201.217 164.65C200.914 165.173 200.296 165.42 199.729 165.622C193.017 168.001 186.059 169.67 178.999 170.598C172.855 171.402 166.48 171.621 160.589 169.71C154.265 167.658 142.959 158.994 149.356 151.589C153.456 146.849 162.616 146.821 168.232 147.957L168.305 147.968C176.354 149.616 183.374 154.203 190.58 157.892C192.051 158.645 202.47 162.513 201.223 164.638L201.217 164.65Z" fill="white"/>
</svg>
