<svg width="460" height="94" viewBox="0 0 460 94" fill="none" xmlns="http://www.w3.org/2000/svg">
<path d="M38.8909 0.75V9.95836H24.7965V44.6163H13.9632V9.95836H0V0.75H38.8909Z" fill="#33346D"/>
<path d="M71.9156 44.6163L61.6446 31.0757H55.7594V44.6163H44.9824V0.75H64.0249C76.1701 0.75 83.4985 6.38565 83.4985 15.9785C83.4985 22.8144 79.8062 27.5686 73.2931 29.7629L84.445 44.6163H71.9156ZM55.7594 9.71455V22.4299H63.7063C69.4041 22.4299 72.7309 20.6764 72.7309 16.166C72.7309 11.6556 69.4134 9.71455 63.7063 9.71455H55.7594Z" fill="#33346D"/>
<path d="M89.2809 25.9468V0.759766H100.114V25.9468C100.114 32.6514 103.619 36.2804 109.504 36.2804C115.389 36.2804 119.082 32.6514 119.082 25.9468V0.759766H129.793V25.9468C129.793 37.912 122.024 45.3668 109.495 45.3668C96.9653 45.3668 89.2715 37.912 89.2715 25.9468H89.2809Z" fill="#33346D"/>
<path d="M178.355 32.7073C178.355 40.0965 172.029 44.6163 161.636 44.6163H138.273V0.75H161.074C170.717 0.75 176.536 4.81967 176.536 11.8431C176.536 16.4755 173.903 20.2357 169.78 21.8673C175.037 23.4333 178.355 27.4467 178.355 32.7073ZM148.863 9.27382V18.6134H159.003C163.829 18.6134 165.956 16.9818 165.956 13.9155C165.956 10.6523 163.707 9.27382 159.003 9.27382H148.863ZM160.193 36.0924C165.385 36.0924 167.643 34.4608 167.643 31.2726C167.643 27.8218 165.075 26.3871 160.006 26.3871H148.863V36.0924H160.202H160.193Z" fill="#33346D"/>
<path d="M219.335 44.6163L216.458 37.4052H195.42L192.543 44.6163H181.4L199.562 0.75H212.466L230.693 44.6163H219.335ZM198.794 29.1346H213.132L205.991 11.2149L198.794 29.1346Z" fill="#33346D"/>
<path d="M236.017 44.6163V0.75H246.662V35.4642H269.275V44.6163H236.017Z" fill="#33346D"/>
<path d="M309.506 44.6163L306.629 37.4052H285.591L282.714 44.6163H271.571L289.733 0.75H302.637L320.864 44.6163H309.506ZM288.964 29.1346H303.303L296.162 11.2149L288.964 29.1346Z" fill="#33346D"/>
<path d="M326.188 44.6163V0.75H336.149L358.003 27.503V0.75H368.78V44.6163H359.137L336.974 17.4226V44.6163H326.188Z" fill="#33346D"/>
<path d="M376.623 22.6833C376.623 8.58946 386.828 0 400.108 0C405.805 0 411.503 1.69727 417.013 5.4575L412.44 13.6062C408.429 10.7275 404.55 9.33965 400.604 9.33965C393.285 9.33965 387.644 14.2251 387.644 22.627C387.644 31.029 393.341 35.9707 400.735 35.9707C404.681 35.9707 408.56 34.6579 412.628 31.7698L417.145 39.9185C411.756 43.6787 406.246 45.4323 400.548 45.4323C387.213 45.4323 376.632 36.5333 376.632 22.6833H376.623Z" fill="#33346D"/>
<path d="M434.257 35.7174H460V44.6163H423.677V0.75H459.372V9.6489H434.257V17.9195H456.486V26.3777H434.257V35.7174Z" fill="#33346D"/>
<path d="M34.2869 83.1895C34.2869 89.5097 28.9734 93.4387 20.333 93.4387H1V54.6455H19.6676C27.6426 54.6455 32.5719 58.3026 32.5719 64.3977C32.5719 68.7206 30.0792 72.2089 26.0964 73.4842C31.0819 74.5907 34.2963 78.304 34.2963 83.1801L34.2869 83.1895ZM6.48221 59.5779V71.3837H18.7774C24.4845 71.3837 27.1366 69.2738 27.1366 65.4573C27.1366 61.6408 24.2596 59.5873 18.5525 59.5873H6.48221V59.5779ZM19.499 88.5157C25.8714 88.5157 28.8047 86.359 28.8047 82.4769C28.8047 78.2665 25.5903 76.3255 19.3865 76.3255H6.48221V88.5157H19.499Z" fill="#33346D"/>
<path d="M45.8037 74.0468C45.8037 62.4661 54.3316 54.0923 66.0738 54.0923C77.8161 54.0923 86.4002 62.4098 86.4002 74.0468C86.4002 85.6839 77.8723 94.0014 66.0738 94.0014C54.2754 94.0014 45.8037 85.6839 45.8037 74.0468ZM80.5806 74.0468C80.5806 65.1761 74.6017 59.0809 66.0738 59.0809C57.546 59.0809 51.5577 65.1761 51.5577 74.0468C51.5577 82.9176 57.5928 88.9565 66.0738 88.9565C74.5549 88.9565 80.5806 82.9176 80.5806 74.0468Z" fill="#33346D"/>
<path d="M100.457 54.6548H116.191C129.04 54.6548 137.296 62.2503 137.296 73.9998C137.296 85.7494 129.04 93.4574 116.191 93.4574H100.457V54.6548ZM105.939 88.5156H115.967C125.497 88.5156 131.476 83.0863 131.476 74.0467C131.476 65.0071 125.497 59.5309 115.91 59.5309H105.939V88.5156Z" fill="#33346D"/>
<path d="M181.575 54.6455L165.456 80.1982V93.4481H159.918V80.0388L143.855 54.6549H149.891L162.739 75.4346L175.53 54.6549H181.566L181.575 54.6455Z" fill="#33346D"/>
<path d="M248.159 54.6455L235.807 93.4387H229.772L219.689 63.957L209.549 93.4387H203.514L191.05 54.6455H196.916L206.831 86.6215L217.186 54.6455H222.059L232.527 86.6215L242.386 54.6455H248.159Z" fill="#33346D"/>
<path d="M256.771 74.0468C256.771 62.4661 265.298 54.0923 277.041 54.0923C288.783 54.0923 297.367 62.4098 297.367 74.0468C297.367 85.6839 288.839 94.0014 277.041 94.0014C265.242 94.0014 256.771 85.6839 256.771 74.0468ZM291.557 74.0468C291.557 65.1761 285.578 59.0809 277.05 59.0809C268.522 59.0809 262.534 65.1761 262.534 74.0468C262.534 82.9176 268.569 88.9565 277.05 88.9565C285.531 88.9565 291.557 82.9176 291.557 74.0468Z" fill="#33346D"/>
<path d="M336.464 93.448L326.109 79.8136H316.916V93.448H311.434V54.6548H326.831C337.073 54.6548 343.006 59.2027 343.006 67.2389C343.006 73.6153 339.294 77.7694 332.65 79.2698L343.455 93.4574H336.474L336.464 93.448ZM316.916 59.5309V74.9375H326.662C333.644 74.9375 337.514 72.7245 337.514 67.342C337.514 61.9595 333.634 59.5309 326.718 59.5309H316.916Z" fill="#33346D"/>
<path d="M388.447 93.448H381.306L362.085 74.103V93.448H356.547V54.6548H362.085V73.5028L380.641 54.6548H387.791L369.011 73.6622L388.447 93.448Z" fill="#33346D"/>
</svg>
